<svg width="144" height="77" viewBox="0 0 144 77" fill="none" xmlns="http://www.w3.org/2000/svg">
<g id="ne_pas_modifier">
<path id="aplat" d="M36.2 76.2C16.3 76.2 0.199997 59.1 0.199997 38.1C0.199997 17.1 16.4 0 36.2 0H137.8C140.7 0 143.1 2.4 143.1 5.4V70.7C143.1 73.7 140.7 76.1 137.8 76.1H36.2V76.2Z" fill="white"/>
<path id="filet" d="M36.2 72.8C18.2 72.8 3.6 57.2 3.6 38.1C3.6 19 18.2 3.4 36.2 3.4H137.8C138.9 3.4 139.7 4.3 139.7 5.4V70.7C139.7 71.8 138.8 72.7 137.8 72.7H36.2V72.8Z" stroke="#000091" stroke-width="0.9946" stroke-miterlimit="10"/>
<path id="pllanete" d="M7.7998 20.9004C8.9998 20.9004 10.1002 21.0002 11.2002 21.2002V24.0996H7.7998V27.5H11.2002V30.9004H14.5996V27.5H18V30.9004H21.4004V27.5H24.7998V30.9004H21.4004V34.2998H24.7998V37.5996H27.5996C27.7996 38.5996 27.9004 39.6999 27.9004 40.7998V40.9004H24.7998V44.2998H27.5C27.3 45.4998 26.9996 46.6002 26.5996 47.7002C26.1996 48.9 25.5999 49.9998 25 51.0996C25 51.2996 24.8998 51.4 24.7998 51.5C24.1998 52.6 23.4 53.6 22.5 54.5C22.1001 54.7999 21.8003 55.2 21.4004 55.5C20.5004 56.3 19.3998 57.0998 18.2998 57.7998C18.1998 57.8998 18.1 57.9 18 58C16.9 58.6 15.7996 59.1996 14.5996 59.5996C13.4997 59.9995 12.4 60.3 11.2002 60.5C10.1002 60.7 8.9998 60.7998 7.7998 60.7998H7.28906C2.78912 54.4998 0 46.7999 0 38.5C2.46115e-07 32.3 1.19981 26.4998 3.7998 21.2998C3.9998 21.2998 4.30039 21.2002 4.40039 21.2002C5.50022 21.0002 6.60001 20.9004 7.7998 20.9004ZM11.2002 51.2002H14.5996V47.7998H11.2002V51.2002ZM14.5996 34.2998H11.2002V41H14.5996V37.5996H18V30.9004H14.5996V34.2998ZM18 41H21.4004V37.7002H18V41ZM4.40039 37.5996H7.7998V34.2998H4.40039V37.5996ZM31.5996 34H28.2002V30.5996H31.5996V34ZM14.5996 24.0996V27.5H11.2002V24.0996H14.5996ZM21.4004 27.5H18V24.0996H21.4004V27.5ZM28.2998 24.2002H24.9004V20.7998H28.2998V24.2002ZM31.7998 17.4004H28.4004V14H31.7998V17.4004Z" fill="#000091"/>
</g>
</svg>
