<svg width="144" height="77" viewBox="0 0 144 77" fill="none" xmlns="http://www.w3.org/2000/svg">
<path d="M36.2 76.2C16.3 76.2 0.199997 59.1 0.199997 38.1C0.199997 17.1 16.4 0 36.2 0H137.8C140.7 0 143.1 2.4 143.1 5.4V70.7C143.1 73.7 140.7 76.1 137.8 76.1H36.2V76.2Z" fill="white"/>
<path d="M36.2 72.8C18.2 72.8 3.6 57.2 3.6 38.1C3.6 19 18.2 3.4 36.2 3.4H137.8C138.9 3.4 139.7 4.3 139.7 5.4V70.7C139.7 71.8 138.8 72.7 137.8 72.7H36.2V72.8Z" stroke="black" stroke-width="0.9946" stroke-miterlimit="10"/>
<path fill-rule="evenodd" clip-rule="evenodd" d="M28.4 14H31.8V17.4H28.4V14ZM24.9 20.8H28.3V24.2H24.9V20.8ZM24.8 37.6V34.3H21.4V30.9H24.8V27.5H21.4V30.9H18V27.5H14.6V30.9H11.2V27.5H7.8V24.1H11.2L11.2 27.5H14.6V24.1L11.2 24.1V21.2C10.1 21 9 20.9 7.8 20.9C6.6 20.9 5.5 21 4.4 21.2C4.35858 21.2 4.28284 21.2172 4.19411 21.2373C4.06863 21.2657 3.91716 21.3 3.8 21.3C1.2 26.5 0 32.3 0 38.5C0 46.8 2.78906 54.5 7.28906 60.8H7.8C9 60.8 10.1 60.7 11.2 60.5C12.4 60.3 13.5 60 14.6 59.6C15.8 59.2 16.8999 58.6 17.9999 58.0001L18 58C18.05 57.95 18.1 57.925 18.15 57.9C18.2 57.875 18.25 57.85 18.3 57.8C19.4 57.1 20.5 56.3 21.4 55.5C21.6 55.35 21.775 55.175 21.95 55C22.125 54.825 22.3 54.65 22.5 54.5C23.4 53.6 24.2 52.6 24.8 51.5C24.9 51.4 25 51.3 25 51.1C25.6 50 26.2 48.9 26.6 47.7C27 46.6 27.3 45.5 27.5 44.3H24.8V40.9H27.9V40.8C27.9 39.7 27.8 38.6 27.6 37.6H24.8ZM14.6 30.9H18V34.3V37.6H14.6V41H11.2V37.6V34.3H14.6V30.9ZM7.8 37.6H4.4V34.3H7.8V37.6ZM14.6 51.2H11.2V47.8H14.6V51.2ZM21.4 41H18V37.7H21.4V41ZM28.2 30.6H31.6V34H28.2V30.6ZM21.4 24.1H18V27.5H21.4V24.1Z" fill="black"/>
</svg>
