<svg xmlns="http://www.w3.org/2000/svg" width="68" height="68" viewBox="0 0 68 68" fill="none">
  <path fill-rule="evenodd" clip-rule="evenodd" d="M64.6 59.5C64.1313 59.5 63.75 59.1187 63.75 58.65C63.75 58.1813 64.1313 57.8 64.6 57.8C65.0687 57.8 65.45 58.1813 65.45 58.65C65.45 59.1187 65.0687 59.5 64.6 59.5Z" fill="#ECECFE"/>
  <path fill-rule="evenodd" clip-rule="evenodd" d="M33.15 3.40001C32.6814 3.40001 32.3 3.0187 32.3 2.55001C32.3 2.08128 32.6814 1.70001 33.15 1.70001C33.6187 1.70001 34 2.08128 34 2.55001C34 3.0187 33.6187 3.40001 33.15 3.40001Z" fill="#ECECFE"/>
  <path fill-rule="evenodd" clip-rule="evenodd" d="M3.40005 52.7C2.93136 52.7 2.55005 52.3187 2.55005 51.85C2.55005 51.3813 2.93136 51 3.40005 51C3.86874 51 4.25005 51.3813 4.25005 51.85C4.25005 52.3187 3.86874 52.7 3.40005 52.7Z" fill="#ECECFE"/>
  <path d="M57.9699 57.6744C58.8149 57.6744 59.4999 56.9894 59.4999 56.1445C59.4999 55.2995 58.8149 54.6145 57.9699 54.6145C57.1249 54.6145 56.4399 55.2995 56.4399 56.1445C56.4399 56.9894 57.1249 57.6744 57.9699 57.6744Z" fill="#E1000F"/>
  <path fill-rule="evenodd" clip-rule="evenodd" d="M16.5996 11.8947C16.9515 12.2054 16.9848 12.7426 16.6741 13.0945L10.8371 19.7041C10.5264 20.056 9.98921 20.0893 9.63734 19.7786C9.28546 19.4678 9.25212 18.9307 9.56286 18.5788L15.3998 11.9692C15.7105 11.6173 16.2477 11.584 16.5996 11.8947Z" fill="#E1000F"/>
  <path fill-rule="evenodd" clip-rule="evenodd" d="M22.1434 11.6836C22.3697 11.6689 22.5925 11.7452 22.7623 11.8956L48.9788 35.121C49.0945 35.2234 49.18 35.3554 49.2262 35.5029L54.2446 51.5067C54.333 51.7884 54.2688 52.0958 54.075 52.3187C53.8813 52.5415 53.5858 52.6479 53.2945 52.5995L36.9235 49.8838C36.767 49.8578 36.6209 49.7886 36.5017 49.6839L14.2019 30.0999C13.8492 29.7901 13.8144 29.2531 14.1241 28.9004C14.4339 28.5476 14.971 28.5128 15.3237 28.8226L37.4411 48.2464L52.2089 50.6962L47.6748 36.2368L22.277 13.7368L17.1178 19.6686C16.8097 20.0228 16.2728 20.0602 15.9186 19.7521C15.5644 19.4441 15.527 18.9072 15.8351 18.553L21.5573 11.974C21.7061 11.8029 21.9171 11.6983 22.1434 11.6836Z" fill="#000091"/>
  <path fill-rule="evenodd" clip-rule="evenodd" d="M48.9777 35.12C49.3296 35.4307 49.363 35.9679 49.0522 36.3198L43.2153 42.9294C42.9045 43.2812 42.3674 43.3146 42.0155 43.0039C41.6636 42.6931 41.6303 42.156 41.941 41.8041L47.778 35.1945C48.0887 34.8426 48.6259 34.8093 48.9777 35.12Z" fill="#000091"/>
  <path fill-rule="evenodd" clip-rule="evenodd" d="M28.4996 28.0447C28.8515 28.3554 28.8848 28.8926 28.5741 29.2444L22.7371 35.8541C22.4264 36.2059 21.8892 36.2393 21.5374 35.9285C21.1855 35.6178 21.1521 35.0806 21.4629 34.7288L27.2998 28.1192C27.6106 27.7673 28.1477 27.7339 28.4996 28.0447Z" fill="#000091"/>
  <path fill-rule="evenodd" clip-rule="evenodd" d="M50.3682 42.2788C50.721 42.5884 50.756 43.1255 50.4464 43.4783L44.1351 50.6693C43.8254 51.0221 43.2884 51.0571 42.9356 50.7475C42.5827 50.4378 42.5478 49.9008 42.8574 49.5479L49.1687 42.3569C49.4783 42.0041 50.0154 41.9691 50.3682 42.2788Z" fill="#000091"/>
  <path fill-rule="evenodd" clip-rule="evenodd" d="M21.9299 56.1445C21.9299 55.675 22.3105 55.2945 22.7799 55.2945H53.3799C53.8494 55.2945 54.2299 55.675 54.2299 56.1445C54.2299 56.6139 53.8494 56.9945 53.3799 56.9945H22.7799C22.3105 56.9945 21.9299 56.6139 21.9299 56.1445Z" fill="#000091"/>
  <path fill-rule="evenodd" clip-rule="evenodd" d="M12.75 56.1445C12.75 55.675 13.1306 55.2945 13.6 55.2945H19.9113C20.3807 55.2945 20.7613 55.675 20.7613 56.1445C20.7613 56.6139 20.3807 56.9945 19.9113 56.9945H13.6C13.1306 56.9945 12.75 56.6139 12.75 56.1445Z" fill="#000091"/>
  <path fill-rule="evenodd" clip-rule="evenodd" d="M26.2868 11.3314C26.6009 10.9824 27.1383 10.9542 27.4872 11.2682L44.4872 26.5682C44.8362 26.8822 44.8645 27.4197 44.5504 27.7686C44.2364 28.1175 43.6989 28.1458 43.35 27.8318L26.35 12.5318C26.0011 12.2178 25.9728 11.6803 26.2868 11.3314Z" fill="#000091"/>
</svg>