<svg width="253" height="176" viewBox="0 0 253 176" fill="none" xmlns="http://www.w3.org/2000/svg">
<path fill-rule="evenodd" clip-rule="evenodd" d="M54.8154 87.8358H24.4054C22.2887 87.8358 20.5811 89.5439 20.5811 91.6611V102.472C20.5811 104.589 22.2887 106.297 24.4054 106.297H54.8154C56.932 106.297 58.6397 104.589 58.6397 102.472V91.6611C58.6397 89.5439 56.932 87.8358 54.8154 87.8358ZM24.4054 88.9446H54.8154C56.3198 88.9446 57.5312 90.1563 57.5312 91.6611V102.472C57.5312 103.976 56.3198 105.188 54.8154 105.188H24.4054C22.9009 105.188 21.6896 103.976 21.6896 102.472V91.6611C21.6896 90.1563 22.9009 88.9446 24.4054 88.9446Z" fill="#000091"/>
<path fill-rule="evenodd" clip-rule="evenodd" d="M52.6725 92.0676C52.9786 92.0676 53.2268 92.3158 53.2268 92.622C53.2268 92.9173 52.9961 93.1586 52.7051 93.1755L52.6725 93.1764H27.5464C27.2403 93.1764 26.9922 92.9282 26.9922 92.622C26.9922 92.3268 27.2229 92.0854 27.5139 92.0686L27.5464 92.0676H52.6725Z" fill="#000091"/>
<path fill-rule="evenodd" clip-rule="evenodd" d="M47.2593 94.8765C47.5654 94.8765 47.8136 95.1247 47.8136 95.4309C47.8136 95.7262 47.5829 95.9675 47.2919 95.9843L47.2593 95.9853H27.5464C27.2403 95.9853 26.9922 95.7371 26.9922 95.4309C26.9922 95.1357 27.2229 94.8943 27.5139 94.8775L27.5464 94.8765H47.2593Z" fill="#000091"/>
<path fill-rule="evenodd" clip-rule="evenodd" d="M52.6725 97.9626C52.9786 97.9626 53.2268 98.2108 53.2268 98.517C53.2268 98.8122 52.9961 99.0535 52.7051 99.0704L52.6725 99.0713H27.5464C27.2403 99.0713 26.9922 98.8231 26.9922 98.517C26.9922 98.2217 27.2229 97.9804 27.5139 97.9635L27.5464 97.9626H52.6725Z" fill="#000091"/>
<path fill-rule="evenodd" clip-rule="evenodd" d="M47.2593 100.771C47.5654 100.771 47.8136 101.02 47.8136 101.326C47.8136 101.621 47.5829 101.862 47.2919 101.879L47.2593 101.88H27.5464C27.2403 101.88 26.9922 101.632 26.9922 101.326C26.9922 101.031 27.2229 100.789 27.5139 100.772L27.5464 100.771H47.2593Z" fill="#000091"/>
<path fill-rule="evenodd" clip-rule="evenodd" d="M22.2436 94.5993C24.4374 94.5993 26.2158 92.8205 26.2158 90.6263C26.2158 88.432 24.4374 86.6532 22.2436 86.6532C20.0499 86.6532 18.2715 88.432 18.2715 90.6263C18.2715 92.8205 20.0499 94.5993 22.2436 94.5993Z" fill="#685C48"/>
<path fill-rule="evenodd" clip-rule="evenodd" d="M109.668 115.056H105.696V111.748H109.668C110.297 111.748 110.795 112.247 110.795 112.875V113.929C110.795 114.557 110.297 115.056 109.668 115.056Z" fill="#685C48"/>
<path fill-rule="evenodd" clip-rule="evenodd" d="M160.179 115.056H150.794C150.166 115.056 149.667 114.557 149.667 113.929V112.875C149.667 112.247 150.166 111.748 150.794 111.748H160.179C160.807 111.748 161.306 112.247 161.306 112.875V113.929C161.288 114.557 160.789 115.056 160.179 115.056Z" fill="#685C48"/>
<path fill-rule="evenodd" clip-rule="evenodd" d="M145.473 115.056H114.693C114.065 115.056 113.566 114.557 113.566 113.929V112.875C113.566 112.247 114.065 111.748 114.693 111.748H145.473C146.101 111.748 146.6 112.247 146.6 112.875V113.929C146.6 114.557 146.101 115.056 145.473 115.056Z" fill="#685C48"/>
<path fill-rule="evenodd" clip-rule="evenodd" d="M161.177 108.237H105.881C105.584 108.237 105.34 108.471 105.327 108.767L105.305 109.289C105.241 110.937 105.226 112.257 105.267 113.489L105.278 113.805C105.309 114.527 105.428 115.719 105.699 118.166C105.731 118.447 105.968 118.66 106.25 118.66H161.177C163.016 118.66 164.502 117.173 164.502 115.333V111.545C164.502 109.72 163.013 108.237 161.177 108.237ZM106.412 109.346L161.177 109.346C162.402 109.346 163.394 110.334 163.394 111.545V115.333L163.393 115.39C163.363 116.591 162.385 117.551 161.177 117.551H106.746L106.644 116.609C106.467 114.958 106.392 114.108 106.379 113.583C106.337 112.425 106.346 111.193 106.4 109.674L106.412 109.346Z" fill="#000091"/>
<path fill-rule="evenodd" clip-rule="evenodd" d="M45.7632 105.262C46.0584 105.262 46.2997 105.493 46.3165 105.784L46.3175 105.816V123.409C46.3175 123.715 46.0693 123.963 45.7632 123.963C45.4681 123.963 45.2268 123.732 45.2099 123.441L45.209 123.409V105.816C45.209 105.51 45.4571 105.262 45.7632 105.262Z" fill="#000091"/>
<path fill-rule="evenodd" clip-rule="evenodd" d="M45.7632 141.094C46.0584 141.094 46.2997 141.324 46.3165 141.615L46.3175 141.648V143.865C46.3175 145.617 47.8351 147.049 49.7448 147.08L49.8093 147.081H77.6512C77.9573 147.081 78.2055 147.329 78.2055 147.635C78.2055 147.93 77.9747 148.172 77.6838 148.189L77.6512 148.19H49.8093C47.2996 148.19 45.2503 146.305 45.2096 143.937L45.209 143.865V141.648C45.209 141.342 45.4571 141.094 45.7632 141.094Z" fill="#000091"/>
<path fill-rule="evenodd" clip-rule="evenodd" d="M132.855 147.081C133.161 147.081 133.409 147.329 133.409 147.635C133.409 147.93 133.178 148.172 132.887 148.189L132.855 148.19H110.389C110.083 148.19 109.835 147.941 109.835 147.635C109.835 147.34 110.066 147.099 110.357 147.082L110.389 147.081H132.855Z" fill="#000091"/>
<path fill-rule="evenodd" clip-rule="evenodd" d="M208.307 117.902C208.602 117.902 208.843 118.133 208.86 118.424L208.861 118.456V143.865C208.861 146.243 206.837 148.151 204.336 148.189L204.261 148.19H183.698C183.392 148.19 183.144 147.941 183.144 147.635C183.144 147.34 183.374 147.099 183.665 147.082L183.698 147.081H204.261C206.179 147.081 207.718 145.668 207.752 143.924L207.752 143.865V118.456C207.752 118.15 208 117.902 208.307 117.902Z" fill="#000091"/>
<path fill-rule="evenodd" clip-rule="evenodd" d="M208.307 66.2889C208.602 66.2889 208.843 66.5197 208.86 66.8107L208.861 66.8433V78.5962C208.861 78.9023 208.613 79.1505 208.307 79.1505C208.012 79.1505 207.77 78.9198 207.754 78.6287L207.753 78.5962V67.3975H46.3173L46.3175 88.2239C46.3175 88.5192 46.0867 88.7605 45.7958 88.7774L45.7632 88.7783C45.4681 88.7783 45.2268 88.5475 45.2099 88.2565L45.209 88.2239V66.8433C45.209 66.548 45.4397 66.3067 45.7307 66.2898L45.7632 66.2889H208.307Z" fill="#000091"/>
<path fill-rule="evenodd" clip-rule="evenodd" d="M129.196 48.6226H118C118.388 48.9182 118.739 49.2878 119.053 49.6944C119.053 49.7128 119.072 49.7128 119.072 49.7313L124.023 57.5666H130.748C130.637 57.4742 130.582 57.3264 130.582 57.16V49.8976C130.582 49.1954 129.953 48.6226 129.196 48.6226ZM126.905 53.4826H126.092V54.2957C126.092 54.5914 125.833 54.8501 125.538 54.8501C125.224 54.8501 124.984 54.5914 124.984 54.2957V53.5011H124.189C123.875 53.5011 123.635 53.2609 123.635 52.9467C123.635 52.6326 123.875 52.3924 124.189 52.3924H125.002V51.5793C125.002 51.2836 125.261 51.0249 125.556 51.0249C125.87 51.0249 126.111 51.2836 126.111 51.5793V52.3739H126.905C127.219 52.3739 127.459 52.6141 127.459 52.9283C127.459 53.2239 127.201 53.4826 126.905 53.4826Z" fill="#000091"/>
<path fill-rule="evenodd" clip-rule="evenodd" d="M204.87 44.5756L49.1807 44.7788C46.9268 44.7788 45.1162 46.7192 45.1162 49.0845L45.2086 57.6959L72.5886 57.5666L77.54 49.7313C77.54 49.7128 77.5584 49.7128 77.5584 49.6944C78.5746 48.3454 80.108 47.5323 81.6784 47.5323H114.767C114.823 47.5138 114.86 47.5138 114.915 47.5138H129.215C130.6 47.5138 131.709 48.5856 131.709 49.8976V57.16C131.709 57.3264 131.635 57.4557 131.543 57.5666H208.953V58.6754H123.728C123.543 58.6754 123.358 58.583 123.266 58.4166L118.167 50.3411C117.372 49.2878 116.171 48.641 114.952 48.641H81.6599C80.4406 48.641 79.2397 49.2693 78.4452 50.3411L73.3461 58.4166C73.2537 58.583 73.069 58.6754 72.8842 58.6754L45.2086 58.8047L45.301 68.1922H208.953V48.8813C208.935 46.4974 207.106 44.5756 204.87 44.5756ZM51.8781 53.9446C50.5109 53.9446 49.4024 52.8359 49.4024 51.4684C49.4024 50.1009 50.5109 48.9921 51.8781 48.9921C53.2452 48.9921 54.3538 50.1009 54.3538 51.4684C54.3538 52.8359 53.2452 53.9446 51.8781 53.9446ZM60.0256 53.9446C58.6584 53.9446 57.5499 52.8359 57.5499 51.4684C57.5499 50.1009 58.6584 48.9921 60.0256 48.9921C61.3928 48.9921 62.5013 50.1009 62.5013 51.4684C62.5013 52.8359 61.3928 53.9446 60.0256 53.9446ZM68.1916 53.9446C66.8244 53.9446 65.7159 52.8359 65.7159 51.4684C65.7159 50.1009 66.8244 48.9921 68.1916 48.9921C69.5587 48.9921 70.6672 50.1009 70.6672 51.4684C70.6672 52.8359 69.5587 53.9446 68.1916 53.9446ZM200.288 52.3L199.235 53.0761H199.309C199.605 53.1131 199.826 53.3902 199.808 53.6859C199.771 53.9631 199.531 54.1849 199.254 54.1849C199.235 54.1849 199.217 54.1849 199.198 54.1849L197.813 54.037C197.794 54.037 197.776 54.037 197.739 54.037C197.573 54.037 197.406 53.9631 197.295 53.8153C197.203 53.6859 197.166 53.5381 197.203 53.3718L197.48 51.9119C197.536 51.6162 197.831 51.413 198.127 51.4684C198.422 51.5238 198.626 51.8195 198.57 52.1152L198.552 52.2076L199.66 51.3945C199.9 51.2097 200.251 51.2651 200.436 51.5238C200.621 51.7825 200.547 52.1152 200.288 52.3ZM204.187 49.4357L203.909 50.8031C203.854 51.0618 203.632 51.2466 203.374 51.2466C203.337 51.2466 203.3 51.2466 203.263 51.2282C202.967 51.1727 202.764 50.877 202.838 50.5814L202.856 50.5075L201.803 51.2836C201.711 51.3575 201.582 51.3945 201.471 51.3945C201.304 51.3945 201.138 51.3206 201.027 51.1727C200.843 50.9325 200.898 50.5814 201.157 50.3966L202.265 49.5835L202.173 49.565C201.877 49.528 201.656 49.2509 201.692 48.9552C201.729 48.6595 202.007 48.4378 202.302 48.4747L203.78 48.641C203.928 48.6595 204.076 48.7334 204.168 48.8628C204.26 49.0476 204.279 49.2693 204.187 49.4357ZM111.922 53.0946C111.7 52.8913 111.663 52.5402 111.867 52.3184C112.07 52.0967 112.421 52.0597 112.643 52.263L113.419 52.9283L114.195 52.263C114.435 52.0597 114.786 52.0967 114.97 52.3369C115.174 52.5772 115.137 52.9283 114.897 53.1131L114.25 53.649L114.897 54.2033C115.118 54.4066 115.155 54.7577 114.952 54.9795C114.841 55.1088 114.693 55.1643 114.527 55.1643C114.398 55.1643 114.268 55.1273 114.158 55.0349L113.382 54.3697L112.606 55.0349C112.495 55.1273 112.384 55.1643 112.255 55.1643C112.088 55.1643 111.941 55.0904 111.83 54.961C111.626 54.7208 111.663 54.3697 111.904 54.1849L112.55 53.649L111.922 53.0946ZM57.7347 63.9789H54.5755L55.3699 64.6996C55.5916 64.9029 55.6101 65.254 55.4068 65.4758C55.296 65.6051 55.1482 65.6606 55.0004 65.6606C54.8711 65.6606 54.7417 65.6051 54.6309 65.5127L52.8757 63.905C52.691 63.8126 52.5617 63.6278 52.5617 63.4061V63.3876V63.3691C52.5617 63.2213 52.6171 63.0735 52.7464 62.9626L54.5755 61.2625C54.7972 61.0592 55.1482 61.0592 55.3514 61.2994C55.5546 61.5212 55.5362 61.8723 55.3145 62.0756L54.4831 62.8332H57.7347C58.0488 62.8332 58.2889 63.0735 58.2889 63.3876C58.2889 63.7018 58.0303 63.9789 57.7347 63.9789ZM66.4549 63.4246C66.4549 63.6463 66.3256 63.8311 66.1409 63.9235L64.3857 65.5312C64.2749 65.6236 64.1455 65.6791 64.0162 65.6791C63.8684 65.6791 63.7206 65.6236 63.6098 65.4943C63.4065 65.2725 63.425 64.9214 63.6467 64.7181L64.4411 63.9974H61.2819C60.9678 63.9974 60.7277 63.7572 60.7277 63.443C60.7277 63.1289 60.9678 62.8887 61.2819 62.8887H64.5335L63.7021 62.131C63.4804 61.9277 63.462 61.5766 63.6652 61.3549C63.8684 61.1331 64.2194 61.1146 64.4411 61.3179L66.2702 63.018C66.381 63.1289 66.4549 63.2767 66.4549 63.4246C66.4549 63.4061 66.4549 63.3876 66.4549 63.4246C66.4549 63.4061 66.4549 63.4061 66.4549 63.4246ZM183.919 64.4964C183.919 65.0138 183.513 65.4203 182.996 65.4203H73.6972C73.1799 65.4203 72.7734 65.0138 72.7734 64.4964V62.7593C72.7734 62.2419 73.1799 61.8353 73.6972 61.8353H182.996C183.513 61.8353 183.919 62.2419 183.919 62.7593V64.4964ZM193.508 62.8702L192.547 63.4246L192.917 64.5888C192.991 64.8105 192.917 65.0508 192.732 65.1986C192.547 65.3464 192.307 65.3649 192.104 65.254L191.069 64.6627L190.016 65.4388C189.924 65.5127 189.813 65.5497 189.684 65.5497C189.554 65.5497 189.462 65.5127 189.351 65.4388C189.148 65.291 189.074 65.0508 189.148 64.8105L189.536 63.6094L188.501 62.8702C188.298 62.7223 188.224 62.4821 188.298 62.2419C188.372 62.0201 188.594 61.8538 188.834 61.8538H190.109L190.497 60.6527C190.57 60.4309 190.792 60.2646 191.032 60.2646C191.273 60.2646 191.494 60.4124 191.568 60.6527L191.956 61.8538H193.231C193.49 61.8538 193.693 62.0201 193.767 62.2604C193.841 62.5006 193.73 62.7593 193.508 62.8702ZM202.339 65.5312H199.235C198.921 65.5312 198.681 65.291 198.681 64.9768C198.681 64.6627 198.921 64.4225 199.235 64.4225H202.339C202.653 64.4225 202.893 64.6627 202.893 64.9768C202.893 65.291 202.653 65.5312 202.339 65.5312ZM202.339 63.8126H199.235C198.921 63.8126 198.681 63.5724 198.681 63.2583C198.681 62.9441 198.921 62.7039 199.235 62.7039H202.339C202.653 62.7039 202.893 62.9441 202.893 63.2583C202.893 63.5724 202.653 63.8126 202.339 63.8126ZM202.339 62.0756H199.235C198.921 62.0756 198.681 61.8353 198.681 61.5212C198.681 61.207 198.921 60.9668 199.235 60.9668H202.339C202.653 60.9668 202.893 61.207 202.893 61.5212C202.893 61.8353 202.653 62.0756 202.339 62.0756Z" fill="#000091"/>
<path fill-rule="evenodd" clip-rule="evenodd" d="M160.789 88.6674H107.396C107.322 89.462 107.267 90.2751 107.211 91.0513C106.916 96.0592 106.491 100.402 106.195 104.283H160.808C162.581 104.283 164.022 102.841 164.022 101.067V91.8644C164.004 90.0903 162.563 88.6674 160.789 88.6674Z" fill="#000091"/>
<path fill-rule="evenodd" clip-rule="evenodd" d="M180.058 133.092H136.568C134.229 133.092 132.318 135.003 132.318 137.342V156.228C132.318 158.567 134.229 160.478 136.568 160.478H180.058C182.396 160.478 184.307 158.567 184.307 156.228V137.342C184.307 135.003 182.396 133.092 180.058 133.092ZM136.568 134.201H180.058C181.784 134.201 183.199 135.616 183.199 137.342V156.228C183.199 157.955 181.784 159.37 180.058 159.37H136.568C134.841 159.37 133.427 157.955 133.427 156.228V137.342C133.427 135.616 134.841 134.201 136.568 134.201Z" fill="#000091"/>
<path fill-rule="evenodd" clip-rule="evenodd" d="M145.306 138.839C142.092 138.839 139.486 141.445 139.486 144.66C139.486 147.875 142.092 150.481 145.306 150.481C148.52 150.481 151.126 147.875 151.126 144.66C151.126 141.445 148.52 138.839 145.306 138.839ZM145.306 139.948C147.908 139.948 150.017 142.058 150.017 144.66C150.017 147.263 147.908 149.372 145.306 149.372C142.704 149.372 140.595 147.263 140.595 144.66C140.595 142.058 142.704 139.948 145.306 139.948Z" fill="#000091"/>
<path fill-rule="evenodd" clip-rule="evenodd" d="M174.792 149.465H168.215C167.244 149.465 166.46 150.249 166.46 151.22V151.885C166.46 152.857 167.244 153.641 168.215 153.641H174.792C175.742 153.641 176.52 152.863 176.547 151.901L176.547 151.22C176.547 150.249 175.763 149.465 174.792 149.465ZM168.215 150.573H174.792C175.151 150.573 175.439 150.861 175.439 151.22V151.885C175.429 152.239 175.135 152.532 174.792 152.532H168.215C167.856 152.532 167.568 152.245 167.568 151.885V151.22C167.568 150.861 167.856 150.573 168.215 150.573Z" fill="#000091"/>
<path fill-rule="evenodd" clip-rule="evenodd" d="M133.999 138.913C136.193 138.913 137.972 137.134 137.972 134.94C137.972 132.746 136.193 130.967 133.999 130.967C131.806 130.967 130.027 132.746 130.027 134.94C130.027 137.134 131.806 138.913 133.999 138.913Z" fill="#685C48"/>
<path fill-rule="evenodd" clip-rule="evenodd" d="M154.01 143.293L175.459 143.348C175.765 143.349 176.013 143.598 176.012 143.904C176.011 144.199 175.78 144.44 175.489 144.456L175.456 144.457L154.007 144.401C153.701 144.401 153.453 144.152 153.454 143.845C153.455 143.55 153.686 143.31 153.977 143.293L154.01 143.293Z" fill="#000091"/>
<path fill-rule="evenodd" clip-rule="evenodd" d="M154.25 145.991L175.681 146.046C175.987 146.047 176.235 146.296 176.234 146.602C176.233 146.897 176.002 147.138 175.711 147.154L175.678 147.155L154.247 147.099C153.941 147.099 153.694 146.85 153.694 146.543C153.695 146.248 153.926 146.008 154.217 145.991L154.25 145.991Z" fill="#000091"/>
<path fill-rule="evenodd" clip-rule="evenodd" d="M224.158 78.1527L185.882 78.0417C183.357 78.0208 181.296 80.0627 181.296 82.5877L181.203 114.315C181.182 116.838 183.224 118.9 185.748 118.9L224.027 119.011C226.544 119.011 228.589 116.978 228.61 114.469L228.703 82.7372C228.724 80.2141 226.682 78.1527 224.158 78.1527ZM185.811 79.1504L224.156 79.2614C226.045 79.2614 227.577 80.7869 227.594 82.6688L227.502 114.463C227.486 116.361 225.935 117.902 224.029 117.902L185.75 117.791C183.861 117.791 182.33 116.266 182.312 114.384L182.404 82.5893C182.404 80.6997 183.929 79.1682 185.811 79.1504Z" fill="#000091"/>
<path fill-rule="evenodd" clip-rule="evenodd" d="M220.038 97.6669L211.816 97.6484C210.937 97.6484 210.227 98.3586 210.227 99.2377L210.209 107.589C210.209 108.469 210.919 109.18 211.798 109.18L220.018 109.198C220.891 109.226 221.608 108.509 221.608 107.609L221.627 99.2574C221.627 98.3771 220.917 97.6669 220.038 97.6669ZM211.815 98.7572L220.036 98.7757C220.304 98.7757 220.518 98.9895 220.518 99.2561L220.5 107.608C220.5 107.88 220.308 108.082 220.066 108.09L211.799 108.071C211.531 108.071 211.317 107.857 211.317 107.59L211.336 99.2389C211.336 98.971 211.55 98.7572 211.815 98.7572Z" fill="#000091"/>
<path fill-rule="evenodd" clip-rule="evenodd" d="M218.486 86.7455L191.754 86.6716C190.576 86.6716 189.628 87.6051 189.628 88.7783L189.609 92.9892C189.609 94.1679 190.543 95.1167 191.716 95.1167L218.447 95.1906C219.599 95.1906 220.548 94.2488 220.573 93.096L220.592 88.8731C220.592 87.6944 219.659 86.7455 218.486 86.7455ZM191.711 87.7812L191.752 87.7802L218.484 87.8543C219.043 87.8543 219.484 88.3027 219.484 88.8707L219.465 93.0816C219.453 93.6252 218.993 94.0819 218.449 94.0819L191.717 94.008C191.159 94.008 190.718 93.5596 190.718 92.9916L190.736 88.7807C190.736 88.2352 191.163 87.802 191.711 87.7812Z" fill="#000091"/>
<path fill-rule="evenodd" clip-rule="evenodd" d="M190.534 107.165L207.439 107.202C207.745 107.203 207.992 107.452 207.992 107.758C207.991 108.053 207.76 108.294 207.469 108.31L207.436 108.311L190.532 108.274C190.225 108.273 189.978 108.025 189.979 107.718C189.979 107.423 190.21 107.182 190.501 107.166L190.534 107.165Z" fill="#000091"/>
<path fill-rule="evenodd" clip-rule="evenodd" d="M190.535 102.749L207.458 102.804C207.764 102.805 208.011 103.054 208.01 103.36C208.009 103.656 207.778 103.896 207.487 103.912L207.454 103.913L190.531 103.858C190.225 103.857 189.978 103.608 189.979 103.301C189.979 103.006 190.211 102.766 190.502 102.75L190.535 102.749Z" fill="#000091"/>
<path fill-rule="evenodd" clip-rule="evenodd" d="M190.553 98.3322L207.458 98.3876C207.764 98.3886 208.011 98.6376 208.01 98.9438C208.009 99.239 207.778 99.4796 207.487 99.4955L207.454 99.4964L190.55 99.4409C190.243 99.4399 189.996 99.1909 189.997 98.8847C189.998 98.5895 190.23 98.3489 190.521 98.333L190.553 98.3322Z" fill="#000091"/>
<path fill-rule="evenodd" clip-rule="evenodd" d="M183.679 83.7519C185.873 83.7519 187.651 81.9731 187.651 79.7789C187.651 77.5846 185.873 75.8058 183.679 75.8058C181.485 75.8058 179.707 77.5846 179.707 79.7789C179.707 81.9731 181.485 83.7519 183.679 83.7519Z" fill="#685C48"/>
<path fill-rule="evenodd" clip-rule="evenodd" d="M52.0254 122.799H5.5052C3.66566 122.799 2.17969 124.285 2.17969 126.125V138.747C2.17969 140.587 3.66566 142.073 5.5052 142.073H52.0254C53.865 142.073 55.3509 140.587 55.3509 138.747V126.125C55.3509 124.285 53.865 122.799 52.0254 122.799ZM5.5052 123.908H52.0254C53.2528 123.908 54.2424 124.898 54.2424 126.125V138.747C54.2424 139.974 53.2528 140.964 52.0254 140.964H5.5052C4.27787 140.964 3.28819 139.974 3.28819 138.747V126.125C3.28819 124.898 4.27787 123.908 5.5052 123.908Z" fill="#000091"/>
<path fill-rule="evenodd" clip-rule="evenodd" d="M47 129.803C47.3061 129.803 47.5543 130.051 47.5543 130.357C47.5543 130.652 47.3235 130.894 47.0326 130.91L47 130.911H9.71734C9.41123 130.911 9.16309 130.663 9.16309 130.357C9.16309 130.062 9.39382 129.82 9.68477 129.804L9.71734 129.803H47Z" fill="#000091"/>
<path fill-rule="evenodd" clip-rule="evenodd" d="M42.6399 133.813C42.946 133.813 43.1942 134.061 43.1942 134.367C43.1942 134.662 42.9634 134.904 42.6725 134.92L42.6399 134.921H9.71734C9.41123 134.921 9.16309 134.673 9.16309 134.367C9.16309 134.072 9.39382 133.83 9.68477 133.814L9.71734 133.813H42.6399Z" fill="#000091"/>
<path fill-rule="evenodd" clip-rule="evenodd" d="M3.97214 128.01C6.16589 128.01 7.94428 126.231 7.94428 124.037C7.94428 121.843 6.16589 120.064 3.97214 120.064C1.77839 120.064 0 121.843 0 124.037C0 126.231 1.77839 128.01 3.97214 128.01Z" fill="#685C48"/>
<path fill-rule="evenodd" clip-rule="evenodd" d="M152.049 34.0792C150.331 13.6041 132.337 -1.58601 111.866 0.132574C91.3958 1.85116 76.2093 19.8501 77.9275 40.3253C78.9621 52.6326 85.8717 63.018 95.6635 68.9868L92.1163 74.7709C94.9245 77.0069 97.2524 79.6495 98.5272 81.2202L99.5987 82.2735C99.5987 80.5365 99.8943 72.3316 104.938 71.6664C106.638 71.4446 107.561 72.2577 108.023 73.7545C111.275 74.3644 114.637 74.5676 118.092 74.272C138.581 72.5534 153.768 54.5544 152.049 34.0792ZM117.409 65.9378C101.557 67.2683 87.6084 55.4969 86.2597 39.6415C84.9295 23.7862 96.6981 9.83426 112.55 8.48527C128.401 7.13627 142.35 18.9261 143.699 34.7815C145.029 50.6553 133.26 64.5888 117.409 65.9378Z" fill="#685C48"/>
<path fill-rule="evenodd" clip-rule="evenodd" d="M81.0813 70.5005C76.2923 71.7058 71.8582 74.036 68.4395 77.4141C64.3901 81.4154 61.9129 86.7133 61.3762 93.2791L61.3746 93.3057C61.1153 101.036 64.1724 108.257 69.4157 114.758C71.1713 116.935 73.0516 118.872 74.9324 120.548C75.5915 121.136 76.204 121.649 76.7545 122.084L76.8261 122.141C76.9437 122.233 77.0528 122.318 77.1531 122.394L77.2237 122.448L76.8195 174.611C76.8171 174.919 77.0672 175.171 77.3757 175.17L114.049 175.04C114.375 175.039 114.627 174.758 114.599 174.438L114.579 174.294L113.431 166.385L112.829 162.207C112.067 156.909 111.312 151.607 110.596 146.51L110.204 143.711C107.872 127.028 106.455 116.047 106.379 113.597C106.321 111.722 106.378 109.66 106.543 107.081L106.594 106.328C106.654 105.458 106.726 104.526 106.818 103.398L107.23 98.4825C107.449 95.8408 107.608 93.6984 107.739 91.5236L107.764 91.1022C107.809 90.3434 107.869 89.546 107.947 88.6798L108 88.1087C108.082 87.2544 108.174 86.3755 108.316 85.0823L108.478 83.5961C108.981 78.8961 109.076 77.2122 108.881 75.2953C108.58 72.321 107.32 70.8144 104.867 71.1351C102.194 71.4759 100.543 73.6534 99.6841 76.9872C99.3924 78.1196 99.2099 79.3254 99.1147 80.5436L99.1057 80.6629L99.0896 80.8961L99.0809 81.0369L99.0511 81.0002C98.896 80.8092 98.7328 80.6113 98.5618 80.4074C97.3896 79.0097 96.0913 77.6121 94.7014 76.3061C91.2921 73.1026 87.8997 70.9671 84.6777 70.4042C83.4307 70.1863 82.2285 70.2117 81.0813 70.5005ZM84.487 71.4964C87.4493 72.014 90.6767 74.0455 93.9425 77.1142C95.2978 78.3877 96.5668 79.7538 97.7125 81.1199L97.9092 81.356C98.1665 81.6668 98.4038 81.9614 98.6198 82.2364L98.7777 82.4389C98.8697 82.5578 98.9515 82.665 99.0228 82.7597L99.1508 82.9319C99.4651 83.365 100.143 83.1438 100.153 82.6209L100.152 82.5232C100.144 82.0461 100.16 81.3937 100.22 80.63C100.31 79.4716 100.483 78.3277 100.758 77.2638C101.516 74.3207 102.893 72.5045 105.009 72.2348C106.703 72.0132 107.514 72.9583 107.77 75.3268L107.79 75.5265C107.966 77.3747 107.848 79.1334 107.306 84.1271L107.083 86.1725C106.993 87.0124 106.926 87.6764 106.863 88.3601L106.824 88.7986C106.761 89.5201 106.709 90.1959 106.669 90.8438L106.62 91.6665C106.505 93.5511 106.367 95.4255 106.187 97.6399L105.766 102.67C105.642 104.153 105.553 105.304 105.48 106.371L105.437 107.012C105.27 109.622 105.212 111.717 105.271 113.632C105.345 115.994 106.597 125.808 108.694 140.909L109.315 145.358L109.612 147.471C110.294 152.321 111.01 157.345 111.731 162.365L113.008 171.197L113.406 173.934L77.9323 174.059L78.3344 122.175C78.3358 121.995 78.2495 121.825 78.103 121.72L77.935 121.596L77.766 121.467C77.6866 121.406 77.6016 121.34 77.5112 121.269L77.4424 121.215C76.9083 120.792 76.3123 120.293 75.6698 119.72C73.832 118.083 71.9936 116.188 70.2785 114.062L70.1264 113.872C65.1797 107.674 62.2945 100.837 62.476 93.5656L62.4821 93.3566L62.481 93.3694C62.9961 87.0683 65.3575 82.018 69.2186 78.2029C72.4877 74.9725 76.7453 72.7351 81.3518 71.5757C82.342 71.3265 83.3879 71.3044 84.487 71.4964Z" fill="#000091"/>
<path fill-rule="evenodd" clip-rule="evenodd" d="M60.081 121.727C59.305 122.984 60.432 125.09 62.6121 126.439L63.7391 127.142C65.9191 128.491 68.3024 128.564 69.0783 127.308L78.5006 111.767L70.1314 105.428L60.081 121.727Z" fill="#685C48"/>
<path fill-rule="evenodd" clip-rule="evenodd" d="M74.1067 95.8903C74.2203 95.606 74.5429 95.4677 74.8271 95.5814C83.6778 99.1225 94.0216 108.039 93.3068 111.527C92.6332 114.814 89.1859 116.044 84.3701 115.025C82.7646 114.679 80.2885 113.355 77.1273 111.276L76.9988 111.192C76.3638 110.772 75.7083 110.327 75.036 109.86C73.5426 108.821 72.0277 107.714 70.5571 106.602L70.1572 106.299C69.785 106.016 69.4339 105.746 69.107 105.493L68.5683 105.073L68.0679 104.679C67.8287 104.488 67.7895 104.139 67.9804 103.9C68.164 103.67 68.4935 103.625 68.7313 103.791L68.7823 103.831L69.2516 104.2L69.7859 104.616C70.1103 104.868 70.4588 105.135 70.8283 105.416C72.4115 106.621 74.054 107.826 75.669 108.949C76.251 109.354 76.82 109.742 77.3733 110.11L77.6095 110.266C80.7167 112.318 83.1577 113.629 84.6017 113.941C88.8913 114.849 91.7 113.846 92.2208 111.304C92.4566 110.154 90.3812 107.388 86.9195 104.405C83.2094 101.207 78.5764 98.2757 74.4154 96.6109C74.1312 96.4972 73.993 96.1745 74.1067 95.8903Z" fill="#000091"/>
<path fill-rule="evenodd" clip-rule="evenodd" d="M76.668 86.2347C76.7922 85.9673 77.1024 85.8457 77.3731 85.9523L77.4122 85.9693L77.6492 86.0822L77.9671 86.2371C78.0806 86.293 78.2016 86.3531 78.3297 86.4173L78.6263 86.567C79.2783 86.8984 79.9905 87.2743 80.7495 87.6921C83.2517 89.0696 85.7542 90.6188 88.0923 92.307C90.8636 94.3078 93.2169 96.3719 95.0229 98.4774L95.1385 98.6132L95.2157 98.6989C97.9237 101.731 98.9837 105.312 98.2553 108.06L98.2324 108.144C97.443 110.963 94.9382 112.038 92.2059 110.434C91.9419 110.279 91.8535 109.939 92.0084 109.675C92.1634 109.411 92.503 109.323 92.767 109.478C94.8617 110.707 96.5685 109.975 97.165 107.845C97.8287 105.476 96.8869 102.236 94.3925 99.4415L94.2986 99.3368C92.5423 97.2587 90.2102 95.2036 87.4435 93.206C85.1454 91.5467 82.6803 90.0206 80.215 88.6635L79.8732 88.4764C79.1964 88.1083 78.561 87.7758 77.9776 87.4813L77.6501 87.3172C77.5318 87.2584 77.4208 87.2038 77.3174 87.1534L76.9371 86.9711C76.6594 86.8421 76.539 86.5124 76.668 86.2347Z" fill="#000091"/>
<path fill-rule="evenodd" clip-rule="evenodd" d="M78.0468 78.0767C78.1365 77.7954 78.4296 77.6355 78.7119 77.7078L78.7637 77.7234L78.9642 77.7904L79.1715 77.8621C79.3415 77.9217 79.5298 77.9895 79.735 78.0656L80.0515 78.1844C80.7472 78.4488 81.5069 78.7587 82.3163 79.1148C84.9843 80.2884 87.6524 81.7205 90.1458 83.4212C94.0563 86.0885 97.1668 89.1668 99.1754 92.6794C100.957 95.7955 101.712 98.3409 101.586 100.381C101.483 102.048 100.803 103.296 99.7379 104.158C99.3318 104.487 98.8981 104.735 98.4636 104.916C98.1983 105.026 97.986 105.09 97.8519 105.12C97.5529 105.185 97.2575 104.996 97.1921 104.697C97.1291 104.408 97.303 104.123 97.5836 104.044L97.6571 104.026C97.6728 104.021 97.6922 104.016 97.7152 104.009C97.8112 103.98 97.9201 103.941 98.0384 103.892C98.38 103.75 98.7224 103.554 99.0407 103.296C99.871 102.624 100.397 101.66 100.48 100.313C100.59 98.5152 99.8962 96.1732 98.2131 93.2299C96.2978 89.8803 93.3036 86.9171 89.5212 84.3372C87.089 82.6782 84.4796 81.2776 81.8701 80.1297C81.0178 79.7548 80.2228 79.4326 79.5029 79.1624L79.3498 79.1052C79.1179 79.0193 78.9091 78.9444 78.7253 78.8807L78.5318 78.8146L78.4066 78.7732C78.115 78.6803 77.9539 78.3684 78.0468 78.0767Z" fill="#000091"/>
<path fill-rule="evenodd" clip-rule="evenodd" d="M99.2755 81.7704C99.5432 81.6217 99.8806 81.7183 100.029 81.9859C102.12 85.7534 103.13 88.8394 103.227 91.3201C103.305 93.2972 102.802 94.7952 101.906 95.858C101.608 96.2111 101.287 96.4902 100.963 96.7034C100.761 96.8363 100.596 96.92 100.487 96.963C100.202 97.0753 99.8803 96.9354 99.768 96.6506C99.6597 96.3759 99.7858 96.0668 100.05 95.9443L100.105 95.9206C100.155 95.8978 100.241 95.8512 100.353 95.7771C100.591 95.6206 100.832 95.4114 101.059 95.143C101.775 94.2938 102.186 93.067 102.12 91.3636C102.03 89.0753 101.073 86.151 99.06 82.5241C98.9114 82.2565 99.0079 81.919 99.2755 81.7704Z" fill="#000091"/>
<path fill-rule="evenodd" clip-rule="evenodd" d="M251.945 174.172C252.251 174.172 252.499 174.42 252.499 174.726C252.499 175.021 252.269 175.263 251.978 175.279L251.945 175.28H0.88726C0.581155 175.28 0.333008 175.032 0.333008 174.726C0.333008 174.431 0.563747 174.189 0.854693 174.173L0.88726 174.172H251.945Z" fill="#000091"/>
</svg>
