<?xml version="1.0" encoding="UTF-8"?>
<svg id="Calque_1" data-name="Calque 1" xmlns="http://www.w3.org/2000/svg" viewBox="0 0 116.71 112.19">
  <path d="M59.29,33.15c-.93,0-1.49-.05-1.52-.05-19.59-.83-23.83-19.29-23.87-19.48l-.14-.62.33-.54c2.44-3.91,8.5-1.44,15.52,1.41,1.04.42,2.11.86,3.17,1.27,2.17.85,8.01,2.47,15.24-.84,9.25-4.24,13.56-3.75,14.02-3.67l1.5.23-.19,1.51c-2.47,19.26-18.94,20.79-24.07,20.79ZM37.13,13.74c.97,3.3,5.6,15.61,20.85,16.26.86.09,18.59,1.59,22-16.24-1.85.2-5.35.93-10.68,3.36-8.31,3.8-15.12,1.9-17.66.91-1.08-.42-2.16-.86-3.22-1.29-4.32-1.75-9.59-3.9-11.3-3.01Z"/>
  <path d="M84.77,99.04h-52.29c-5.9,0-10.71-4.8-10.71-10.71v-9.16h3.1v9.16c0,4.19,3.41,7.61,7.61,7.61h52.29c4.19,0,7.61-3.41,7.61-7.61v-1.67c-.03-2.57-.06-6.87.02-8.77l3.1.13c-.08,1.83-.05,6.08-.02,8.62v1.69c0,5.9-4.8,10.71-10.7,10.71Z"/>
  <path d="M84.77,89.88h-52.29c-5.9,0-10.71-4.8-10.71-10.71,0-1.36,0-5.73.04-8.36l3.1.05c-.04,2.62-.04,6.96-.04,8.32,0,4.19,3.41,7.61,7.61,7.61h52.29c4.19,0,7.61-3.41,7.61-7.61v-1.83c.02-2.44.03-6.34,0-8.13l3.1-.05c.03,1.8.02,5.74,0,8.2v1.82c0,5.9-4.81,10.71-10.72,10.71Z"/>
  <path d="M84.77,79.5h-52.29c-5.9,0-10.71-4.8-10.71-10.71V21.33c0-5.9,4.8-10.71,10.71-10.71h4.43l.06,1.49c.08,2.08,1.97,8.16,7.08,12.69,4.52,4,10.35,5.73,17.27,5.15,18.08-1.52,18.94-17.18,18.97-17.84l.06-1.49h4.42c5.9,0,10.71,4.8,10.71,10.71v47.46c0,5.9-4.8,10.71-10.71,10.71ZM32.48,13.72c-4.19,0-7.61,3.41-7.61,7.61v47.46c0,4.19,3.41,7.61,7.61,7.61h52.29c4.19,0,7.61-3.41,7.61-7.61V21.33c0-4.19-3.41-7.61-7.61-7.61h-1.56c-.71,4.53-4.27,17.86-21.64,19.32-7.84.66-14.41-1.34-19.59-5.92-5-4.43-7.29-10.16-7.93-13.4h-1.58Z"/>
</svg>