<svg width="48" height="48" viewBox="0 0 48 48" fill="none" xmlns="http://www.w3.org/2000/svg">
<path d="M19.4236 40.0169C17.9923 40.391 15.3221 39.6772 13.8658 39.4256L7.63836 38.636C6.33734 38.5335 5.01261 38.5047 4.53491 36.9348C4.10423 35.5195 4.99747 31.0743 5.41405 29.7162L5.82402 28.443C6.05417 27.8164 6.3268 27.1845 6.45978 26.5277L8.24703 15.9074C8.28125 15.648 8.26981 15.3813 8.27005 15.1199L8.26939 9.03499C8.26963 8.88119 8.24286 8.67307 8.31814 8.53483L8.41691 8.36758C8.83091 7.75971 10.9931 7.89518 11.6037 8.00815L13.5292 8.42876C14.5561 8.60482 16.1469 8.73546 17.2189 8.73611L21.6287 8.73232C21.8674 8.72951 22.0904 8.68404 22.324 8.66988C22.9334 8.6329 23.5257 8.67972 24.1312 8.71422L24.892 8.75576C25.1078 8.77699 25.3232 8.81027 25.54 8.8196L28.7513 8.87257L32.6247 8.81421C33.4847 8.76311 34.3632 8.60983 35.1999 8.40724C35.9997 8.2136 36.7041 7.94336 37.5359 7.90919C38.1166 7.89968 39.4347 7.87629 39.6469 8.52044L39.6574 8.55508C39.7336 8.71596 39.72 8.86221 39.7204 9.03827L39.7213 14.3699C39.7215 15.384 39.7231 15.8711 39.8953 16.8684L40.1195 18.2642C40.1889 18.7213 40.2879 19.1752 40.3641 19.6311L40.458 20.1604C40.5036 20.4305 40.5462 20.7014 40.5987 20.9708L40.9227 22.7816C40.9777 23.0524 41.0176 23.3343 41.0579 23.608L41.396 25.4924C41.5742 26.5546 41.6573 26.969 42.0447 27.9848L42.5628 29.5668C42.6261 29.7767 42.7012 29.9981 42.7388 30.2146L42.8323 30.5903C42.8926 30.9531 43.0182 31.3137 43.0835 31.6786L43.4216 34.5323C43.4304 34.6155 43.4589 34.6935 43.465 34.7778L43.5005 36.1661C43.5009 36.3695 43.529 36.6326 43.4709 36.8266L43.3759 37.1371C42.839 38.4762 41.7038 38.5221 40.5115 38.6377L39.0115 38.8234L34.1411 39.6725C33.2829 39.8126 29.426 40.3343 28.6603 40.0475L28.4177 39.9595C27.7462 39.6749 27.5795 39.1341 27.3298 38.5163L26.0802 35.7123C25.7521 35.092 25.4214 34.515 25.1855 33.8491L24.3937 31.3108C24.2645 30.874 24.1641 30.4337 23.9881 30.0123C23.883 30.2038 23.8444 30.4365 23.7853 30.6449L22.7356 34.0127C22.4901 34.6554 22.1697 35.2689 21.862 35.8832L21.3098 37.0459C21.0051 37.6823 20.7217 38.2952 20.531 38.977C20.381 39.5135 19.9335 39.8335 19.4236 40.0169ZM10.42 9.31516L9.65609 9.37891L9.65328 10.9638L11.4036 11.2477L16.776 11.7258L18.738 11.7836C18.9161 11.8001 19.0866 11.8275 19.2663 11.8302L23.5779 11.839C23.6996 11.8417 23.8198 11.8623 23.9412 11.8701L32.724 11.9155L33.5665 11.8409C34.8545 11.7674 36.6237 11.639 37.8177 11.0853C38.3217 10.8602 38.2997 10.9876 38.2976 10.4432L38.2927 9.73868C38.2911 9.62346 38.3024 9.48222 38.2688 9.37291C37.4785 9.24569 36.9793 9.38655 36.2224 9.61282C34.6874 10.0716 33.1165 10.3083 31.5111 10.3121L28.4558 10.3084C28.256 10.3039 28.0604 10.2682 27.8607 10.2634L26.8591 10.2532C26.6817 10.2453 26.5066 10.2128 26.3274 10.2064L21.9782 10.1161L20.7689 10.1948L15.8475 10.0952C14.7275 10.0328 13.6052 9.86885 12.5019 9.67085C11.8325 9.55076 11.1035 9.27124 10.42 9.31516ZM9.68169 12.408L9.66331 14.5493L38.3139 14.5569L38.297 13.6663L38.2547 12.4363C37.4648 12.8808 36.0844 13.0416 35.2058 13.1401L32.7527 13.3152C32.4797 13.3289 32.2074 13.3749 31.9342 13.3837L25.3336 13.3818C25.0336 13.3753 24.7438 13.309 24.4392 13.3046L20.0281 13.2144L15.7732 13.0788C13.7344 12.941 11.695 12.7688 9.68169 12.408ZM23.5878 16.0078L16.3289 16.0149C16.3418 16.2625 16.4035 16.5158 16.4536 16.7582L17.3076 20.9887C18.1192 24.2749 20.0979 25.678 22.9262 27.3285L24.0288 28.0234L24.3005 27.8445L27.218 25.9512C29.5995 24.2592 30.334 22.5723 30.9098 19.899L31.5552 16.5746C31.5886 16.3921 31.6411 16.205 31.6488 16.0193L23.5878 16.0078ZM9.68338 16.0086C9.64559 16.2056 9.6403 16.4008 9.60725 16.5941L7.99067 26.1487C7.82717 27.1453 7.55263 27.8414 7.22005 28.7934L6.67677 30.4802C6.51561 31.0072 6.3838 31.5931 6.29127 32.1383L6.08286 33.3409C6.63748 33.4568 7.21039 33.5091 7.77092 33.5931L13.3669 34.3447L15.5599 34.7231L19.3647 35.7052L20.233 35.9381L21.1547 34.0463C21.7618 32.6438 22.4272 30.4271 22.7494 28.8973C22.1948 28.6142 21.6581 28.2572 21.1324 27.9227C17.5471 25.6409 16.492 24.1182 15.5902 19.7894L14.9299 16.3799C14.9118 16.2691 14.9137 16.1131 14.8659 16.013L9.68338 16.0086ZM33.1567 16.0108C33.0273 16.4796 32.9557 16.9651 32.8708 17.435L32.3582 19.9646C32.1812 20.7626 32.0506 21.5861 31.7792 22.3598C30.719 25.3828 28.1705 27.2879 25.4789 28.7944L25.2031 28.9352L25.7856 30.9473C25.7937 30.9883 25.8058 31.0216 25.8196 31.0607L25.9779 31.6747C26.0813 32.1291 26.2163 32.6016 26.3909 33.0356L26.6421 33.697C26.8363 34.1463 27.5113 35.5429 27.8337 35.927L31.8747 34.8457C32.1612 34.7788 32.4548 34.7076 32.7468 34.6717C33.076 34.5886 33.4145 34.5439 33.7497 34.4952L41.9133 33.3469L41.0739 29.5487C40.8284 28.7256 40.4868 27.9398 40.2755 27.1059C40.1234 26.5058 40.0322 25.8925 39.9255 25.2837L38.5198 17.2209C38.4458 16.8168 38.3681 16.4262 38.3338 16.016L33.1567 16.0108ZM5.90891 34.7934C5.86667 35.0351 5.82209 36.3933 5.92934 36.5863L5.94744 36.6201C6.23295 37.1327 6.65689 37.1147 7.15503 37.1561L14.0734 38.0515C14.6795 38.1603 18.583 38.9789 19.054 38.6421C19.118 38.5963 19.1773 38.3926 19.2095 38.3127L19.6115 37.2332C18.1485 36.8509 16.6816 36.4127 15.1987 36.1183L7.031 34.9439C6.65736 34.8912 6.28555 34.8216 5.90891 34.7934ZM42.0079 34.8146L38.4724 35.3122C36.3331 35.6001 34.1749 35.8331 32.0622 36.2852L30.2517 36.7572C29.6351 36.9229 28.983 37.0669 28.3813 37.2777C28.4338 37.5395 28.6934 38.1497 28.8273 38.4051C28.9865 38.8146 29.189 38.6832 29.5837 38.6823C30.9223 38.6791 32.2051 38.4827 33.5271 38.2817L38.4958 37.4307L40.7152 37.1606C42.1289 37.007 42.1467 36.8301 42.0591 35.491L42.0079 34.8146Z" fill="black"/>
</svg>
