<svg width="48" height="48" viewBox="0 0 48 48" fill="none" xmlns="http://www.w3.org/2000/svg">
<rect width="48" height="48" fill="white"/>
<path d="M20.7782 44.851L19.621 45.6253C17.3293 47.0385 15.0108 47.9849 12.306 47.98C6.90746 47.9701 2.89861 43.0549 4.27166 37.7476C4.43064 37.133 4.73448 36.5463 5.01375 35.9785C6.52425 32.9072 8.84395 30.4634 11.5777 28.4203L13.1841 27.2848C14.444 26.4542 17.7896 24.7103 17.8755 23.0479L17.8924 18.0591C17.8918 17.6062 17.7864 17.332 17.7864 16.7988L17.7678 15.3034L17.4671 11.8196C17.3576 11.065 17.4219 10.2398 17.422 9.47686L17.4218 2.03611C17.4223 1.52396 17.6074 1.21916 18.1048 1.0126L36.8575 1C37.4024 1.00099 37.8912 0.98004 38.1428 1.58848L38.1564 1.62837C38.2832 1.97792 38.208 2.44328 38.2074 2.81345L38.2074 8.92505C38.2083 9.79036 38.2561 10.6782 38.214 11.5405C38.1381 13.0946 37.7623 14.6022 37.4561 16.1205C37.1762 17.5083 36.9253 19.2935 36.8587 20.7164L36.8932 24.374L37.0122 25.922C37.5314 30.5965 35.3241 35.2738 31.4292 37.9253L28.2592 39.8765C27.8924 40.0866 27.4951 40.2469 27.1382 40.4726L25.0869 41.7819C24.6355 42.0551 24.1516 42.2871 23.7192 42.5881L20.7782 44.851ZM19.3296 2.6565L19.1845 2.66718C19.1069 2.96017 19.142 10.5108 19.1851 10.6097L36.2113 10.6091L36.459 10.6005L36.4582 2.66825L19.3296 2.6565ZM26.4247 12.3999C26.2657 12.4314 26.1377 12.4658 25.9924 12.5422L25.9534 12.562C25.6305 12.7352 25.4314 13.0812 25.1483 13.3024C24.7392 13.6219 24.0333 13.689 23.59 13.4289C23.0222 13.0958 22.6601 12.2468 21.8716 12.4496C21.2772 12.6024 21.0119 13.2654 20.4557 13.4265L20.4193 13.4373C20.1277 13.5171 19.7732 13.4663 19.4791 13.4181L19.6759 17.212C20.4381 17.6711 20.5891 17.7318 21.3551 17.4369C22.9236 16.8329 23.1869 17.7838 24.3619 18.239C25.2384 17.9299 25.7471 17.1802 26.7975 17.2681L26.8479 17.2718C27.9992 17.3703 28.2955 18.6266 29.2838 18.0305C29.7479 17.7095 30.1747 17.3646 30.7471 17.2716C32.0171 17.0653 32.2806 17.9933 33.0803 18.177C33.3361 18.2358 34.5618 17.2834 35.4075 17.1863L36.1031 13.4436C35.7931 13.1855 35.3565 12.697 34.9308 12.7392C34.5388 12.7782 34.3694 13.0894 34.0698 13.2911C32.2635 14.5072 31.9669 12.0064 30.5686 12.4853L30.5403 12.4947C30.4431 12.5288 30.3599 12.5934 30.2766 12.6522L30.2392 12.6783C30.0692 12.8018 29.9445 12.9874 29.8008 13.1396C29.282 13.689 28.3876 13.7375 27.798 13.2805C27.2845 12.8824 27.1587 12.4154 26.4247 12.3999ZM22.1355 19.1565L21.2252 19.4729C20.7041 19.6181 20.1701 19.4267 19.6863 19.2477L19.6758 22.4119C19.6758 22.8648 19.7276 23.3747 19.6347 23.8149L19.6259 23.8587C19.2934 25.4532 17.3001 26.847 16.029 27.6732C13.2023 29.5105 10.7781 31.0765 8.61548 33.7618C8.1665 34.3192 7.7756 34.9088 7.37136 35.4973L8.42751 35.9825C10.5359 37.0078 12.4813 39.0229 13.41 41.2044L14.292 43.8927C14.3436 44.1976 14.4232 44.5012 14.4583 44.8101L14.545 45.9039C16.2541 45.4259 17.8805 44.5856 19.3391 43.5821L21.2459 42.143L22.0696 41.5156L21.6298 40.3993C21.2851 39.407 20.9888 38.323 20.8737 37.2729C20.7973 36.5759 20.7465 36.127 20.7457 35.4095L20.7465 34.4073C20.7529 32.1201 21.506 29.7436 22.6734 27.7998C24.369 24.9764 26.4094 24.0233 29.5768 24.0268C30.8847 24.0283 32.1931 24.1753 33.4382 24.5879C33.8107 24.7113 33.8036 24.8036 34.1796 24.681L35.0467 24.3965L34.9807 21.4688C34.9811 21.0119 34.9514 20.5325 35.036 20.0822L35.121 19.2343C34.2366 19.7328 33.6983 20.2861 32.5079 19.9475L32.3273 19.8866C31.8228 19.7007 31.4912 19.3292 31.0459 19.1369C30.6267 19.3519 30.2955 19.6806 29.8483 19.8565L29.8158 19.8696C28.9968 20.192 28.0093 20.0521 27.2733 19.5802L26.7546 19.2374C26.443 19.0349 26.2845 19.3101 25.9576 19.5276C25.0612 20.1243 24.0347 20.2595 23.0659 19.6909L22.4223 19.2731C22.309 19.1978 22.2708 19.1461 22.1355 19.1565ZM29.1814 25.9063C26.3187 25.9666 24.9999 27.0711 23.7555 29.6805C23.4247 30.3742 23.1394 31.11 22.9732 31.8618L22.7789 32.7299C22.4285 34.6745 22.4552 37.1547 23.1434 39.0533L23.4836 40.0483C23.5422 40.1868 23.58 40.3044 23.6649 40.4333L24.3884 39.9913L26.3032 38.8009C26.4244 38.7232 26.6492 38.6269 26.7322 38.5201C26.6067 38.0834 26.4892 37.6586 26.41 37.2098C25.719 33.2968 27.39 28.6814 30.5867 26.2906L30.9884 26.0027C30.4773 25.8634 29.7157 25.8551 29.1814 25.9063ZM35.0632 26.3881C34.5234 26.5088 33.9615 26.6486 33.4451 26.8468C29.8976 28.2077 28.1175 31.9119 28.1319 35.5368C28.1335 35.9263 28.1212 36.3716 28.1967 36.7531L28.2139 36.8254C28.2669 37.0544 28.265 37.2985 28.3537 37.518L28.3805 37.5868C28.5475 37.5705 28.8703 37.3285 29.0258 37.2398C33.0128 34.9669 35.6375 31.1589 35.1856 26.3881C35.1256 26.3721 35.1198 26.373 35.0632 26.3881ZM6.50029 37.2444C6.01493 38.1114 5.70753 39.7682 5.95606 40.7747L6.19521 41.8233C7.31701 44.892 9.17971 45.7687 12.1296 46.1425L12.7227 46.1777C12.469 42.2196 10.4016 38.5031 6.50029 37.2444Z" fill="black"/>
</svg>
