<svg width="35" height="47" viewBox="0 0 35 47" fill="none" xmlns="http://www.w3.org/2000/svg">
<path d="M16.7782 43.851L15.621 44.6253C13.3293 46.0385 11.0108 46.9849 8.30602 46.98C2.90746 46.9701 -1.10139 42.0549 0.271658 36.7476C0.43064 36.133 0.734481 35.5463 1.01375 34.9785C2.52425 31.9072 4.84395 29.4634 7.57772 27.4203L9.1841 26.2848C10.444 25.4542 13.7896 23.7103 13.8755 22.0479L13.8924 17.0591C13.8918 16.6062 13.7864 16.332 13.7864 15.7988L13.7678 14.3034L13.4671 10.8196C13.3576 10.065 13.4219 9.23985 13.422 8.47686L13.4218 1.03611C13.4223 0.523963 13.6074 0.219163 14.1048 0.0126044L32.8575 0C33.4024 0.000988695 33.8912 -0.0199604 34.1428 0.588483L34.1564 0.628369C34.2832 0.977916 34.208 1.44328 34.2074 1.81345L34.2074 7.92505C34.2083 8.79036 34.2561 9.67821 34.214 10.5405C34.1381 12.0946 33.7623 13.6022 33.4561 15.1205C33.1762 16.5083 32.9253 18.2935 32.8587 19.7164L32.8932 23.374L33.0122 24.922C33.5314 29.5965 31.3241 34.2738 27.4292 36.9253L24.2592 38.8765C23.8924 39.0866 23.4951 39.2469 23.1382 39.4726L21.0869 40.7819C20.6355 41.0551 20.1516 41.2871 19.7192 41.5881L16.7782 43.851ZM15.3296 1.6565L15.1845 1.66718C15.1069 1.96017 15.142 9.51081 15.1851 9.60968L32.2113 9.60906L32.459 9.60052L32.4582 1.66825L15.3296 1.6565ZM22.4247 11.3999C22.2657 11.4314 22.1377 11.4658 21.9924 11.5422L21.9534 11.562C21.6305 11.7352 21.4314 12.0812 21.1483 12.3024C20.7392 12.6219 20.0333 12.689 19.59 12.4289C19.0222 12.0958 18.6601 11.2468 17.8716 11.4496C17.2772 11.6024 17.0119 12.2654 16.4557 12.4265L16.4193 12.4373C16.1277 12.5171 15.7732 12.4663 15.4791 12.4181L15.6759 16.212C16.4381 16.6711 16.5891 16.7318 17.3551 16.4369C18.9236 15.8329 19.1869 16.7838 20.3619 17.239C21.2384 16.9299 21.7471 16.1802 22.7975 16.2681L22.8479 16.2718C23.9992 16.3703 24.2955 17.6266 25.2838 17.0305C25.7479 16.7095 26.1747 16.3646 26.7471 16.2716C28.0171 16.0653 28.2806 16.9933 29.0803 17.177C29.3361 17.2358 30.5618 16.2834 31.4075 16.1863L32.1031 12.4436C31.7931 12.1855 31.3565 11.697 30.9308 11.7392C30.5388 11.7782 30.3694 12.0894 30.0698 12.2911C28.2635 13.5072 27.9669 11.0064 26.5686 11.4853L26.5403 11.4947C26.4431 11.5288 26.3599 11.5934 26.2766 11.6522L26.2392 11.6783C26.0692 11.8018 25.9445 11.9874 25.8008 12.1396C25.282 12.689 24.3876 12.7375 23.798 12.2805C23.2845 11.8824 23.1587 11.4154 22.4247 11.3999ZM18.1355 18.1565L17.2252 18.4729C16.7041 18.6181 16.1701 18.4267 15.6863 18.2477L15.6758 21.4119C15.6758 21.8648 15.7276 22.3747 15.6347 22.8149L15.6259 22.8587C15.2934 24.4532 13.3001 25.847 12.029 26.6732C9.20229 28.5105 6.77806 30.0765 4.61548 32.7618C4.1665 33.3192 3.7756 33.9088 3.37136 34.4973L4.42751 34.9825C6.53586 36.0078 8.48133 38.0229 9.41003 40.2044L10.292 42.8927C10.3436 43.1976 10.4232 43.5012 10.4583 43.8101L10.545 44.9039C12.2541 44.4259 13.8805 43.5856 15.3391 42.5821L17.2459 41.143L18.0696 40.5156L17.6298 39.3993C17.2851 38.407 16.9888 37.323 16.8737 36.2729C16.7973 35.5759 16.7465 35.127 16.7457 34.4095L16.7465 33.4073C16.7529 31.1201 17.506 28.7436 18.6734 26.7998C20.369 23.9764 22.4094 23.0233 25.5768 23.0268C26.8847 23.0283 28.1931 23.1753 29.4382 23.5879C29.8107 23.7113 29.8036 23.8036 30.1796 23.681L31.0467 23.3965L30.9807 20.4688C30.9811 20.0119 30.9514 19.5325 31.036 19.0822L31.121 18.2343C30.2366 18.7328 29.6983 19.2861 28.5079 18.9475L28.3273 18.8866C27.8228 18.7007 27.4912 18.3292 27.0459 18.1369C26.6267 18.3519 26.2955 18.6806 25.8483 18.8565L25.8158 18.8696C24.9968 19.192 24.0093 19.0521 23.2733 18.5802L22.7546 18.2374C22.443 18.0349 22.2845 18.3101 21.9576 18.5276C21.0612 19.1243 20.0347 19.2595 19.0659 18.6909L18.4223 18.2731C18.309 18.1978 18.2708 18.1461 18.1355 18.1565ZM25.1814 24.9063C22.3187 24.9666 20.9999 26.0711 19.7555 28.6805C19.4247 29.3742 19.1394 30.11 18.9732 30.8618L18.7789 31.7299C18.4285 33.6745 18.4552 36.1547 19.1434 38.0533L19.4836 39.0483C19.5422 39.1868 19.58 39.3044 19.6649 39.4333L20.3884 38.9913L22.3032 37.8009C22.4244 37.7232 22.6492 37.6269 22.7322 37.5201C22.6067 37.0834 22.4892 36.6586 22.41 36.2098C21.719 32.2968 23.39 27.6814 26.5867 25.2906L26.9884 25.0027C26.4773 24.8634 25.7157 24.8551 25.1814 24.9063ZM31.0632 25.3881C30.5234 25.5088 29.9615 25.6486 29.4451 25.8468C25.8976 27.2077 24.1175 30.9119 24.1319 34.5368C24.1335 34.9263 24.1212 35.3716 24.1967 35.7531L24.2139 35.8254C24.2669 36.0544 24.265 36.2985 24.3537 36.518L24.3805 36.5868C24.5475 36.5705 24.8703 36.3285 25.0258 36.2398C29.0128 33.9669 31.6375 30.1589 31.1856 25.3881C31.1256 25.3721 31.1198 25.373 31.0632 25.3881ZM2.50029 36.2444C2.01493 37.1114 1.70753 38.7682 1.95606 39.7747L2.19521 40.8233C3.31701 43.892 5.17971 44.7687 8.12958 45.1425L8.72269 45.1777C8.46896 41.2196 6.40163 37.5031 2.50029 36.2444Z" fill="black"/>
</svg>
