<svg width="48" height="48" viewBox="0 0 48 48" fill="none" xmlns="http://www.w3.org/2000/svg">
<g clip-path="url(#clip0_314_12784)">
<path d="M29.3706 47.1719L17.168 47.1977C14.6122 47.1986 12.0988 46.8408 9.80034 45.6321C9.54791 46.7547 8.89139 46.7688 7.84086 46.7673C5.93597 46.7646 4.01382 46.3878 2.22331 45.7512C-0.461352 44.7968 0.172522 44.2007 0.639332 41.8929L3.10402 28.3661L4.92352 14.9697C5.01068 14.2183 5.05059 13.4551 5.18945 12.7113C5.71498 9.89565 7.65239 7.40013 10.2586 6.20088C10.8754 5.91706 11.5335 5.70947 12.1812 5.5082L14.5235 4.70812C15.5419 4.35878 15.1025 4.60761 15.7665 3.94044C16.6501 3.05244 17.68 2.34679 18.2881 1.21711C18.4287 0.955988 18.5947 0.861756 18.8679 0.781222C19.3493 0.75681 19.8176 0.857122 20.2932 0.869294L25.3203 0.952779C25.5886 0.948472 25.8504 0.908144 26.1168 0.897944L27.7824 0.852402C28.1443 0.83301 28.4959 0.781522 28.8617 0.775105C29.6913 0.760549 29.5829 1.10258 30.0324 1.71333C30.3648 2.16487 30.7462 2.57415 31.1575 2.95408C31.5849 3.3489 32.1732 3.72835 32.4676 4.23213C32.6679 4.57478 33.5324 4.73506 33.9024 4.85892L35.9867 5.56912C36.849 5.85615 37.7126 6.08994 38.5001 6.56276C40.4348 7.72435 42.0888 9.70762 42.6252 11.9366L42.7591 12.4702C42.8975 12.9154 42.9108 13.4267 42.965 13.8884L44.1963 23.3571C44.2329 23.579 44.2417 23.8049 44.2831 24.0268L44.8808 28.2947C44.8933 28.4219 44.9295 28.5393 44.9514 28.6642L46.6076 37.8883L47.6636 43.4675C47.8754 44.9378 46.064 45.5734 44.9331 45.966C43.3665 46.5099 41.6513 46.7809 39.9947 46.7642C39.2763 46.7569 38.2737 46.8039 38.1096 45.8784C38.0916 45.7765 38.0907 45.6253 38.0413 45.5374C35.9614 46.7904 33.9086 47.1652 31.551 47.169L29.3706 47.1719ZM19.5049 2.18742C19.6435 2.57999 19.8762 2.95595 20.076 3.32099C20.8775 4.78574 22.8447 7.96071 24.1376 9.0916C24.8549 8.29981 25.4592 7.47004 26.0441 6.57663L28.4403 2.21533L19.5049 2.18742ZM29.5257 3.20495C29.306 3.57165 29.1335 3.97461 28.9463 4.35931L28.1265 5.90399C27.6904 6.65024 27.2249 7.41058 26.7241 8.11654L25.496 9.78738C25.8037 10.0527 26.1682 10.2198 26.5313 10.3939L27.6889 10.9199L28.3194 11.1791C29.7149 9.84963 30.9121 6.89913 31.4142 5.03854L29.5257 3.20495ZM18.4323 3.25558C17.8595 3.89962 17.2508 4.51933 16.5709 5.05146C16.5893 5.13888 16.6092 5.21442 16.6417 5.29772L17.0459 6.59335C17.1675 7.04019 17.4233 7.46694 17.6066 7.88924C18.0881 8.99854 18.8618 10.325 19.7468 11.1797L20.5647 10.8117L22.695 9.69958C22.6154 9.54299 22.4831 9.40296 22.3715 9.26758L20.3424 6.48342L19.1913 4.54413C18.9479 4.10383 18.7389 3.6572 18.4323 3.25558ZM15.3455 5.87656L15.3121 5.89558C14.7331 6.22103 14.0029 6.35699 13.3743 6.57588L12.2546 6.96412C9.62693 7.80904 7.56711 9.34537 6.75363 12.1409C6.44506 13.2013 6.40054 14.2767 6.26216 15.3656L4.97629 25.0768L4.34436 29.2823L1.83277 42.8385C1.76526 43.1862 1.71677 43.5508 1.61616 43.8902C2.18709 44.4779 4.87354 45.0721 5.64979 45.2049C6.1052 45.2828 8.05509 45.5073 8.48125 45.3629C8.67448 45.0821 8.6672 44.5984 8.71263 44.2692L9.20473 40.5116L9.52954 36.503L9.57148 34.564C9.57813 34.3356 9.63213 34.1155 9.63722 33.885L9.63786 24.2411C9.63186 23.9861 9.57459 23.7318 9.56972 23.4726L9.54748 20.8642C9.52381 20.3021 9.44913 19.8235 9.445 19.2176L9.43927 17.6564C9.43911 17.4401 9.40081 17.1275 9.4652 16.924C9.69223 16.2064 10.726 16.3111 10.7744 17.2732C10.7837 17.4593 10.7983 17.6463 10.7937 17.8326L10.8161 19.1404C10.8258 19.6862 10.913 20.2005 10.9199 20.7455L10.9318 22.7862C10.939 23.0464 10.9944 23.3015 11.0009 23.5627L11.0016 34.5035C10.9959 34.7735 10.9464 35.0355 10.9378 35.3036L10.7856 38.6455L10.1524 44.0668C10.0869 44.7095 13.7272 45.5024 14.3123 45.6214C14.8174 45.7241 15.4704 45.7684 15.9859 45.7724L23.2724 45.7892L23.2736 11.9096C23.2736 11.6362 23.3054 11.3175 23.257 11.0509L20.5983 12.3242C19.7622 12.689 19.53 12.8346 18.8198 12.2002C17.7974 11.287 16.9278 9.83662 16.3676 8.6116L15.3455 5.87656ZM32.6278 5.87945C32.1583 7.4349 30.3578 11.9586 28.6608 12.5952L28.6262 12.6088C28.2204 12.7585 27.9322 12.499 27.5869 12.3428L24.9108 11.1437C24.848 11.1122 24.7553 11.0436 24.6883 11.0358L24.698 45.7749L29.6093 45.7736C30.5162 45.7732 31.445 45.8181 32.3489 45.7632C33.8808 45.6701 35.2357 45.3417 36.641 44.714C37.0515 44.5306 37.5425 44.3303 37.8688 44.0144L37.0221 34.5035C36.9522 34.0462 36.9904 33.5323 36.99 33.0689L36.9968 24.7098C37.0034 24.525 37.054 24.3408 37.0623 24.1536L37.0781 21.228L37.1785 18.0096C37.183 17.488 37.0726 16.6024 37.7816 16.4752C38.562 16.3352 38.5582 16.9905 38.5537 17.5147L38.5377 21.515C38.5291 21.7226 38.483 21.9257 38.4723 22.1324L38.3665 25.1099L38.366 32.6351C38.3699 32.8424 38.4077 33.0459 38.4119 33.2531L38.4748 36.3692L39.1084 43.0045L39.2692 44.0223C39.3296 44.477 39.3388 44.9453 39.4099 45.3971C41.4081 45.5232 44.8121 44.9359 46.3076 43.6991L43.5325 28.561L41.7056 14.8125C41.4065 11.9582 40.8129 9.95415 38.3624 8.11976C37.4909 7.46737 36.5308 7.17176 35.509 6.84422L33.0162 6.00958C32.8888 5.96876 32.7591 5.90297 32.6278 5.87945Z" fill="black"/>
</g>
<defs>
<clipPath id="clip0_314_12784">
<rect width="48" height="48" fill="white"/>
</clipPath>
</defs>
</svg>
