<svg width="48" height="48" viewBox="0 0 48 48" fill="none" xmlns="http://www.w3.org/2000/svg">
<path d="M24.748 34.4051L23.5301 25.4724C23.4919 25.6738 23.4332 25.8764 23.4021 26.0772L21.4575 41.0576L21.2305 45.4126C21.2265 45.593 21.2344 45.7885 21.1523 45.9543L21.1307 45.9949C20.7796 46.6855 20.2022 46.9898 19.4525 46.9922L14.2379 46.993C13.6606 46.992 13.1312 47.0238 12.5906 46.7759C11.0836 46.0846 10.9177 44.8666 11.027 43.4616L11.9892 31.4369L11.9955 22.68C11.9852 22.2921 11.9141 21.9171 11.9073 21.5251L11.9067 8.62621L12.0386 6.22103L12.6201 1.47221C12.7133 0.860566 12.653 0.353159 13.2667 0.0106316L33.4747 0C34.0213 0.00540489 34.1779 0.462148 34.276 0.929404L34.708 3.72373C34.7315 3.91504 34.7315 4.10956 34.7608 4.30004L34.8994 5.4878C35.0057 6.48052 34.9427 7.48055 35.066 8.46774C35.1468 9.11467 35.0929 9.82253 35.093 10.4766L34.997 22.8847L34.9988 31.8889C35.009 32.1674 35.0718 32.4378 35.0843 32.7155L35.1002 33.5161L35.8597 42.6067C35.9267 43.2318 36.0072 43.8664 35.9995 44.4962C35.9836 45.8038 34.8564 46.8817 33.5494 46.9826C33.142 47.0141 32.719 46.9931 32.31 46.9934L28.1838 46.9927C27.2204 46.9918 26.2566 47.0537 25.8756 45.9261L25.859 45.8761C25.7542 45.5765 25.7641 45.2462 25.7532 44.9324L25.5555 41.3798L24.748 34.4051ZM32.5662 1.35853L14.5861 1.37605C14.4039 1.37605 14.2034 1.36007 14.0239 1.38787C13.9318 1.76811 13.935 2.20775 13.899 2.5988L14.5378 2.61454L33.1253 2.5972C33.0438 2.19284 32.9725 1.77916 32.9557 1.36726C32.8341 1.33976 32.6913 1.35657 32.5662 1.35853ZM21.5091 3.95246L21.508 4.90669C21.7 4.92261 21.8864 4.91459 22.078 4.92077L24.812 4.96412C25.1842 4.96412 26.0051 4.81641 26.3003 5.0705L26.347 5.11029C26.8678 5.55789 26.6325 6.28339 25.9473 6.30353L24.3839 6.27864L24.4129 14.75C24.9099 14.5797 25.4929 14.0537 25.7943 13.6394L25.8272 13.5957C26.4625 12.7448 26.4651 11.8608 26.4665 10.8578L26.4668 8.86622C26.4673 8.24222 26.3367 7.74093 27.0948 7.54451C27.3468 7.59458 27.5479 7.64008 27.6985 7.87023L27.7722 8.01515C27.864 8.2497 27.84 8.54994 27.8405 8.79916L27.8412 9.94523C27.841 10.7205 27.8812 11.5209 27.8212 12.2934C27.6912 13.9686 26.2498 15.5244 24.7422 16.1649C24.6029 16.2241 24.4687 16.2397 24.3463 16.3359C24.3431 17.4879 24.1334 18.6359 24.24 19.7822L25.744 31.1463C25.7759 31.4124 25.7876 31.6836 25.8305 31.9481L26.7348 39.1942L27.0081 42.3784C27.0272 42.6415 27.088 42.8969 27.0974 43.1588L27.1365 45.072C27.1374 45.2483 27.1169 45.4295 27.1978 45.5923L30.2881 45.6076L32.5646 45.6076C33.3156 45.6068 34.0958 45.7024 34.4923 44.8961L34.5095 44.8621C34.7293 44.415 34.6029 43.9779 34.5523 43.5081L33.8974 36.3103C32.7084 36.7045 31.5834 35.9612 31.2104 34.8473L30.9025 32.8952C30.8108 32.2584 30.6498 31.5872 30.7633 30.9434C30.9561 29.8488 32.0657 28.5832 33.1819 28.3774C33.3105 28.3537 33.4782 28.3604 33.5939 28.3045L33.5897 25.1278C32.8975 25.5288 32.2521 25.9738 31.9195 26.7325C31.7681 27.0781 31.851 27.3571 31.4228 27.5288C30.3195 27.9712 30.3566 26.6532 30.766 25.8685C31.2499 24.941 32.2525 24.0494 33.2726 23.7178L33.6136 23.6305L33.6424 7.8915C31.1049 8.54798 27.8277 7.30676 27.5272 4.46337C27.5097 4.29766 27.5201 4.13266 27.4916 3.96778L21.5091 3.95246ZM16.9923 3.97236L13.6784 3.98435L13.4162 6.40871C13.7595 6.53582 14.1551 6.56997 14.5174 6.63061C16.6928 6.65698 17.6862 5.98315 18.1552 3.99112L16.9923 3.97236ZM30.1423 3.97236L28.8879 3.978C28.9657 4.82906 29.2127 5.3917 29.8886 5.96563L30.0383 6.06975C30.8091 6.56272 31.5957 6.66833 32.4976 6.62925C32.8779 6.58114 33.2431 6.51153 33.6072 6.39155L33.362 3.96689L30.1423 3.97236ZM19.49 3.99908C19.2641 6.63554 17.129 8.26491 14.4613 8.01468L13.3535 7.82646C13.2628 8.36178 13.3019 8.93316 13.3016 9.47566L13.3049 21.3646C13.3091 22.1093 13.404 22.8789 13.3992 23.5732C14.6589 24.0476 15.709 24.724 16.2965 25.9641L16.527 26.5864C16.6523 26.9921 16.5446 27.4484 16.0547 27.5431L16.0143 27.5513C15.2632 27.6898 15.2538 26.9079 15.0105 26.453C14.7539 25.9732 14.0057 25.1972 13.4211 25.0824L13.4272 28.2281C13.6024 28.3182 13.7975 28.3385 13.9814 28.4048C14.8228 28.7078 15.6665 29.4373 16.0144 30.241C16.4775 31.3108 16.1565 32.3837 15.9971 33.4775C15.8177 34.7091 15.8211 35.9078 14.2624 36.3448C13.8133 36.4707 13.5133 36.3657 13.0823 36.3159L12.6901 40.6713L12.4325 43.4042C12.3589 44.2326 12.1745 45.35 13.404 45.594C13.5891 45.6308 13.8318 45.6067 14.0221 45.6071L19.8463 45.5988C19.9178 44.8848 19.841 44.1599 19.8836 43.4445C19.8971 43.2179 19.9514 42.9979 19.9669 42.7728L20.0186 41.4809C20.0339 41.2537 20.0783 41.0234 20.101 40.7958L21.1269 31.9601L22.5474 21.9699C22.5794 21.6232 22.6479 21.2808 22.667 20.933L22.7373 19.6575C22.791 18.7942 22.9646 17.9365 23.0175 17.076L23.0259 6.27009L21.2118 6.25494C20.1604 6.25257 20.1412 6.20945 20.1389 5.05013L20.1387 4.2129C20.1389 3.98138 20.1782 4.00877 19.9296 3.99665L19.49 3.99908ZM13.3999 29.6331C13.4194 30.2228 13.4545 30.8215 13.348 31.4048C13.2443 31.9724 13.3156 32.6301 13.2965 33.2103C13.2809 33.6833 13.1923 34.1572 13.1803 34.6326C13.1645 35.2584 14.0473 35.0068 14.3209 34.6771L14.3358 34.6569C14.5261 34.3153 14.5388 33.8525 14.5878 33.4706L14.8337 31.859C14.9719 30.9198 14.622 30.2768 13.7282 29.8L13.3999 29.6331ZM33.5677 29.7208C32.9086 30.0096 32.466 30.3723 32.1882 31.0127L32.1639 31.0677C32.0445 31.3422 32.1083 31.5776 32.1593 31.859L32.5256 34.366C32.5406 34.474 32.5658 34.5965 32.6306 34.6863C32.9548 34.9898 33.2462 35.1181 33.6621 34.9227L33.7565 34.8771L33.5677 29.7208Z" fill="black"/>
</svg>
