<svg width="48" height="48" viewBox="0 0 48 48" fill="none" xmlns="http://www.w3.org/2000/svg">
<path d="M32.8876 46.8654C31.4028 47.9603 29.9603 47.9933 28.2355 47.9932L24.9135 47.9707C24.6576 47.9592 24.4131 47.9032 24.1592 47.8798L22.5189 47.804C21.9623 47.799 21.4225 47.8243 20.8684 47.875L20.1919 47.956C18.4185 48.0882 16.6631 47.9722 15.1529 46.9088C14.9647 46.7763 14.8059 46.6023 14.6251 46.4592C13.3411 45.4432 11.7203 45.5605 10.198 45.372C9.38497 45.2713 7.25904 44.4874 7.12759 43.4818L7.12268 43.4392C7.08 43.1139 7.16888 42.9097 7.32436 42.635L7.25112 42.5324C6.37759 41.2545 5.02578 41.2519 3.7125 40.8871C2.54712 40.5634 1.54216 39.9146 0.639089 39.1225C-0.014913 38.5489 -0.187855 38.2961 0.217429 37.4309L8.34324 17.0516L10.2831 12.7903C10.8953 11.5028 11.5115 10.235 12.2829 9.03369L12.2349 4.31819C12.2374 3.07329 12.5461 3.01808 13.7494 3.00452L34.2446 3.00166C34.8329 3.00233 35.262 2.94396 35.6539 3.46415L35.6815 3.49761C35.8564 3.74934 35.7625 4.32088 35.7629 4.61196L35.7643 7.94028C35.764 9.02329 35.5736 8.75988 36.0925 9.6533C36.8129 10.8934 37.4015 12.2078 38.0477 13.4868L42.9142 24.8684L45.5271 31.5681C45.7415 32.1615 45.9548 32.7551 46.1928 33.3395L47.9428 37.8457C48.1948 38.462 47.556 38.9277 47.1669 39.2717C46.2115 40.1165 45.2056 40.6763 43.9576 40.9588C42.0072 41.4004 42.2416 41.3266 40.7065 42.6026L40.7955 42.8279C41.3966 44.3429 38.7073 45.26 37.6512 45.3825L36.0968 45.5069C34.481 45.707 34.1553 45.941 32.8876 46.8654ZM14.9903 4.64774L13.804 4.65943C13.7505 5.29278 13.7309 7.08198 13.8052 7.71353L17.5821 8.28151C17.864 8.32268 18.1688 8.36359 18.4521 8.38943L19.0132 8.42649C20.1111 8.52405 21.2107 8.70051 22.3146 8.70759L26.0075 8.69933C26.187 8.68985 26.3611 8.65683 26.5392 8.64084L29.5534 8.37482L32.3728 7.97627L34.1923 7.67682L34.1915 4.65287L14.9903 4.64774ZM34.0187 9.32135L31.4214 9.75706C31.4455 9.86457 31.4632 9.97202 31.5025 10.0752L31.8788 11.3127C31.8873 11.3512 31.8984 11.3841 31.9112 11.421L32.2799 12.7038C32.2892 12.7492 32.3024 12.7857 32.3187 12.8285L34.1273 19.1508C34.1357 19.1866 34.1471 19.2179 34.1594 19.2523L34.5356 20.5734C34.5435 20.6096 34.5551 20.6397 34.5676 20.6741L36.0002 25.6607C36.1543 26.1028 36.2372 26.5842 36.4072 27.0191L36.6767 27.932C36.6863 27.976 36.6992 28.0124 36.7143 28.0544L38.9312 36.0232C38.9396 36.0651 38.9514 36.1024 38.9644 36.143L39.7503 39.112C39.7897 39.2915 40.1652 40.8428 40.2056 40.8914C40.7497 40.4 41.6285 39.7665 42.3766 39.6402C43.9687 39.1624 44.7894 39.2549 46.2106 37.9223L46.1869 37.8755C46.1093 37.7169 46.0618 37.5337 46.0026 37.3666L40.6708 23.5449L36.3207 13.6229L34.6873 10.4289C34.4804 10.0668 34.2958 9.67017 34.0692 9.32253L34.0187 9.32135ZM13.8839 9.33135C13.5671 10.0197 13.147 10.6587 12.7956 11.3305L10.8781 15.2789L3.8596 32.3656L2.39765 36.2491C2.19599 36.7997 1.93246 37.3427 1.7723 37.907C3.11354 39.251 4.07487 39.1984 5.65525 39.6515L5.68986 39.6582C6.46412 39.8108 7.21105 40.2891 7.81134 40.7837L16.5851 9.74681L14.9683 9.51437C14.6117 9.46561 14.2319 9.42024 13.8839 9.33135ZM18.1778 9.98781L8.84913 43.0608C10.2741 44.3576 13.2634 43.3351 15.3716 44.982C15.5962 45.1575 15.799 45.3607 16.0261 45.5309C17.4109 46.5688 18.7784 46.3475 20.3719 46.2458L24.5627 46.2705C24.7757 46.2861 24.9819 46.3235 25.1976 46.3332L28.114 46.3563C29.7917 46.3567 30.9362 46.3311 32.31 45.2589C35.0647 43.1088 37.1579 44.5126 39.2022 43.0309L36.0412 31.4072L29.8306 9.99756L27.8707 10.1575C27.8885 10.3919 27.9402 10.6203 27.9668 10.8545L28.2399 13.2689L28.6122 18.4784C28.6234 18.7073 28.6789 18.9278 28.6879 19.1585L28.7032 21.8136C28.7125 22.3133 28.7623 22.9223 28.1364 23.0521L28.1014 23.0598C27.742 23.1331 27.4514 22.962 27.2508 22.6762L27.2328 22.6525C27.132 22.5158 27.1319 22.3193 27.1267 22.1568L27.0842 20.035C27.08 19.0681 27.0224 18.2262 26.9713 17.2759L26.3301 10.8209C26.3087 10.6657 26.3037 10.486 26.2484 10.3403L21.7387 10.3445C21.6599 10.4453 21.674 10.5681 21.6631 10.6922L21.1956 15.5904C21.1841 15.7252 21.1435 15.8536 21.1317 15.9871L20.994 18.1572C20.9733 18.4469 20.9251 18.7334 20.9163 19.0239L20.9056 22.0503C20.9043 22.552 20.7202 22.9937 20.1504 23.0815L20.1199 23.0865C19.7835 23.1348 19.5245 22.8919 19.3703 22.625L19.3535 22.5973C19.2817 22.4745 19.2958 22.3218 19.2957 22.1843L19.3062 19.5172C19.3146 19.3069 19.3633 19.1024 19.3765 18.8932L19.6338 14.6531L20.1337 10.153L19.1373 10.0819C18.8261 10.0508 18.4891 9.98269 18.1778 9.98781Z" fill="black"/>
</svg>
