<svg width="48" height="48" viewBox="0 0 48 48" fill="none" xmlns="http://www.w3.org/2000/svg">
<path d="M39.4793 37.787C39.3343 39.1508 37.9323 40.1926 36.7891 40.7167C35.8072 41.1669 34.7301 41.2367 33.6817 41.4336C31.9779 41.7537 30.149 42.3796 28.7238 43.405C28.468 43.589 28.2429 43.8034 27.9958 43.9967C26.8808 44.8687 24.6823 45.612 23.2611 45.3064C22.2126 45.0809 21.2229 44.8797 20.3302 44.2515C19.94 43.9769 19.5911 43.638 19.2 43.3583C17.663 42.2588 15.8186 41.684 13.9738 41.3723C12.1288 41.0606 11.0837 40.9621 9.64332 39.6794C8.28141 38.4667 8.09199 36.6345 9.04627 35.1095L9.79838 33.9952C10.2726 33.2185 10.51 32.3787 10.7888 31.5222L11.2952 30.0763C11.6151 29.1962 11.9643 28.3001 12.2143 27.398C12.9055 24.9036 12.8333 22.9067 11.9644 20.5059L10.7361 17.4611C9.99479 15.629 9.63394 13.8572 9.82215 11.8948L9.93352 10.9454C10.0442 10.0716 10.0043 10.0362 10.8042 9.65262C12.394 8.89025 12.5385 7.43867 12.5394 5.91195L12.5446 3.59819C12.5472 3.49764 12.5416 3.38 12.5786 3.28506L12.59 3.25794C12.7345 2.89469 12.9541 2.76024 13.3485 2.72847L15.3151 2.72344C16.0025 2.72383 16.2743 2.61187 16.7001 3.2449C16.8368 3.44806 16.7878 3.80842 16.7883 4.04412L16.79 5.036C16.7933 5.97317 16.8417 7.14364 17.1847 8.01387L17.5456 9.02365C18.9437 12.3289 20.9857 13.5938 24.0074 15.033L24.064 15.0138C24.3993 14.8744 24.732 14.6728 25.058 14.5084C27.7483 13.1515 29.7846 11.2341 30.7144 8.25861C30.8915 7.69175 31.068 7.07947 31.1217 6.4857L31.2022 4.11015C31.2027 3.89025 31.164 3.5541 31.2475 3.35195L31.2633 3.31653C31.6254 2.46287 32.6606 2.72137 33.4392 2.72128L34.3546 2.72224C34.7988 2.72324 35.1674 2.72044 35.3848 3.18569L35.3961 3.21106C35.474 3.37901 35.4534 3.58905 35.4547 3.77073L35.4565 6.10714C35.4568 6.70737 35.4768 7.24559 35.606 7.82825L35.6251 7.91028C36.1549 9.63172 37.742 9.55184 37.9572 10.2815L37.9693 10.3243C38.0309 10.5194 38.0419 10.7231 38.0649 10.9262L38.1703 11.9415C38.3591 13.7948 37.9763 15.6078 37.2929 17.3272L36.0923 20.3556C35.8154 21.1043 35.5519 21.7947 35.4391 22.5939C35.2933 23.6255 35.3037 24.5844 35.4385 25.6056L35.583 26.45C35.6885 27.0655 35.807 27.6618 36.0359 28.246L37.3846 32.0626C37.5769 32.7468 37.8776 33.4703 38.2447 34.0782C38.9537 35.2525 39.7874 36.3317 39.4793 37.787ZM14.142 4.31794C14.0884 4.49497 14.1297 4.70698 14.1303 4.88661L14.1288 6.41445C14.1271 6.9874 14.0931 7.54297 13.9454 8.10148C13.5958 9.42265 12.7844 10.5423 11.5127 11.072C11.3202 12.8966 11.287 13.5567 11.728 15.4329L11.9542 16.172L13.7097 20.7072C13.8008 21.0052 13.9244 21.3061 13.9759 21.6141L14.0883 22.1732C14.1197 22.3038 14.1211 22.4375 14.1355 22.5704L14.212 23.2177C14.3828 25.1804 14.0182 27.1281 13.3675 28.9692L12.6418 31.0252C12.1412 32.4886 11.7317 33.9874 10.8752 35.2934C10.1491 36.4006 9.37805 37.2608 10.7147 38.5077C11.8513 39.5679 13.3584 39.6228 14.81 39.879C16.6383 40.2018 18.5242 40.9358 20.0547 42.0058C21.1561 42.776 21.9046 43.5958 23.3667 43.6917C24.5891 43.7718 25.7938 43.5857 26.82 42.8762C27.1746 42.631 27.482 42.328 27.8388 42.0832C29.2949 41.0843 30.9918 40.3251 32.7228 39.97L34.8515 39.5938C35.9589 39.3837 37.8168 38.7177 37.9109 37.4174C37.9534 36.8293 37.8189 36.3451 37.5023 35.8513C37.2408 35.4466 36.9451 35.0733 36.7263 34.6407C36.1581 33.5172 35.8216 32.323 35.3985 31.1432C34.3164 28.1263 33.4039 25.5565 33.8851 22.3079C33.9548 21.8373 34.0572 21.3502 34.2034 20.8974L35.5787 17.3945L36.0286 16.1486C36.5236 14.6685 36.7408 13.3716 36.5738 11.8238C36.5474 11.5798 36.4896 11.3441 36.4803 11.0973L36.4554 11.0866C34.8945 10.4 34.1561 8.94978 33.8907 7.35823C33.8366 7.03409 33.87 6.66191 33.8701 6.33172L33.8691 4.31516L32.7863 4.31443C32.7586 4.46136 32.7847 4.61607 32.7885 4.7652L32.7894 5.57103C32.7426 9.18317 30.7393 12.7488 27.7774 14.7759C26.8249 15.4278 25.8224 15.9583 24.7693 16.4293C24.0997 16.7288 24.0613 16.8008 23.3285 16.4766L22.4498 16.0748C21.7753 15.7361 21.0907 15.3792 20.462 14.9608C16.9359 12.6135 15.2122 9.05037 15.2106 4.90067C15.2106 4.71472 15.2298 4.507 15.2023 4.32355L14.142 4.31794Z" fill="black"/>
</svg>
