<svg width="48" height="48" viewBox="0 0 48 48" fill="none" xmlns="http://www.w3.org/2000/svg">
<path d="M25.2144 47.0271C24.6745 46.6432 24.344 46.0457 23.8351 45.6335C23.6132 45.8173 23.4291 46.0629 23.239 46.28C21.913 47.7937 21.1325 47.6003 19.3545 47.321L13.2183 46.4329C12.3573 46.3185 11.7959 46.4 11.029 45.8356L10.99 45.8066C10.0814 45.1362 9.92938 44.3335 10.0748 43.3189L11.1778 36.0895C10.2981 35.956 9.28532 36.3814 8.63611 35.5962C8.31977 35.2136 8.334 34.736 8.28089 34.2706L7.96274 31.7885L7.61523 26.9368L7.6158 21.1091L7.73579 18.9797L8.45949 13.3916C8.78438 11.6575 9.17247 9.95997 9.72533 8.28166C10.751 5.16844 12.4263 3.25871 15.9527 3.39525C16.5818 3.41962 16.4447 3.63733 16.7713 3.07886C17.7171 1.46171 19.5613 0.712338 21.3458 0.536657C21.5342 0.496488 21.768 0.521303 21.9602 0.520736L23.387 0.518729C25.6054 0.518021 27.8926 0.390405 29.7358 1.85961C30.1924 2.22361 30.6313 2.64401 30.8759 3.18417C30.9493 3.3465 30.8945 3.45261 31.0893 3.44513C35.6907 3.26874 36.9571 5.20653 38.1969 9.06975L39.2517 13.2216C39.3828 13.7806 39.4556 14.3631 39.5502 14.9294L40.0249 18.993C40.0673 19.5408 40.1403 20.0976 40.1534 20.649L40.1575 25.9515C40.15 26.161 40.1207 26.3621 40.1001 26.5698L39.9469 28.8663L39.3264 34.1674C39.2144 35.4278 39.0989 36.0657 37.7642 36.0689L36.6234 36.0678C36.8136 36.6085 36.8588 37.289 36.9447 37.8569L37.4615 40.6124C37.5293 40.9335 37.5596 41.2682 37.6302 41.5901L37.8564 42.7946C37.9723 43.324 38.1033 44.079 37.9277 44.5975L37.9136 44.6367C37.6781 45.3347 37.1008 45.9857 36.3886 46.2044L36.1587 46.268C35.7487 46.3562 35.3179 46.3635 34.9015 46.4043L28.4995 47.3197C27.3099 47.523 26.2797 47.7204 25.2144 47.0271ZM21.3603 2.23642C20.3109 2.35205 19.1303 2.68442 18.4443 3.55339C18.2524 3.79637 17.949 4.17341 17.9813 4.4995C18.1095 5.78846 17.6035 7.66725 17.8663 8.5921L17.9581 8.84365C18.0679 9.11362 18.2447 9.31512 18.4611 9.50574C19.6534 10.5554 18.567 10.9121 18.0755 11.8046L18.0566 11.8384C18.0106 11.9236 18.0009 12.007 17.9906 12.1022C19.7407 13.9487 21.5479 14.8644 23.1351 17.1029C23.5685 17.7142 23.7666 18.2426 24.1351 18.8013L24.9056 17.3425C25.631 16.0502 26.6478 14.9325 27.696 13.8984L29.5198 12.1897C30.108 11.7052 28.159 11.0427 28.7302 9.92744C28.8715 9.65146 29.1186 9.5211 29.3301 9.31399C30.2755 8.38771 29.6544 7.02908 29.6086 5.89565L29.5909 4.99199C29.5908 4.70819 29.6518 4.43698 29.5354 4.16689C28.6006 1.99847 25.5767 2.2333 23.6893 2.235L22.1446 2.2354C21.886 2.23517 21.618 2.22032 21.3603 2.23642ZM15.904 5.10155C12.8722 5.11499 11.9724 6.37964 11.1698 9.09015C10.1015 12.6979 9.59854 15.9485 9.35385 19.713L9.25154 20.7459L9.24247 26.984L9.41523 29.9162L9.84232 33.7466C9.86811 33.9709 9.86267 34.192 9.93114 34.4094L11.4664 34.4003C11.5262 33.6955 11.6584 32.9953 11.7649 32.2961L13.4628 21.3358C13.6258 20.3416 13.7083 19.3142 13.9292 18.3314C14.1038 17.5546 15.1359 17.3386 15.446 18.1184L15.4682 18.1715C15.5553 18.3955 15.5021 18.7474 15.4749 18.9871L13.3325 32.7767L11.675 43.6799C11.6021 44.0893 11.767 44.4949 12.1941 44.6239L12.2402 44.6381C12.517 44.7212 12.8016 44.7148 13.0861 44.7465L19.5469 45.6478C20.1414 45.7246 20.8165 46.0435 21.3889 45.7204C22.0438 45.3508 22.3435 44.5651 22.9508 44.1338L22.963 22.4709C22.9755 21.9579 23.3516 21.2701 23.2709 21.0066L23.1062 20.4998C22.5049 18.8256 21.5099 17.5624 20.266 16.336L17.6215 14.0216C17.2831 13.7296 16.8913 13.4341 16.6532 13.0515L16.6243 13.0056C16.1074 12.1657 16.456 11.121 17.0487 10.4337C15.6833 8.61982 16.365 7.16058 16.3467 5.12094L15.904 5.10155ZM31.3801 5.10717L31.2643 5.11363C31.0989 7.00392 32.2535 8.60792 30.5214 10.4077L30.5386 10.4268C31.2183 11.1954 31.4951 12.3773 30.8083 13.2245C30.5291 13.569 30.129 13.8434 29.8033 14.1458C27.1738 16.5866 25.6992 18.4828 24.7633 22.1194C24.5599 22.9099 24.6611 22.9158 24.6691 23.709L24.6706 43.7015C24.6637 44.4213 24.7719 44.1773 25.2903 44.7458C25.815 45.3213 26.098 45.9156 26.9715 45.8455C27.6531 45.7908 28.3533 45.6415 29.0282 45.53L34.673 44.7415C35.2355 44.6829 36.2366 44.8259 36.3844 44.0557L36.3915 44.0204C36.4329 43.7854 36.3382 43.526 36.3003 43.2946L34.2887 32.4423L32.1964 19.3998C32.1339 18.9614 31.9548 18.3674 32.2409 17.9807C32.5245 17.5974 33.0172 17.5375 33.3854 17.8333C33.7438 18.1212 33.7138 18.6065 33.7843 19.0141L34.0604 20.7034C34.0875 20.8719 34.0883 21.0465 34.118 21.2135L35.4197 29.3047C35.4475 29.4495 35.4501 29.599 35.4759 29.7439L35.8734 32.0536C35.9372 32.4129 35.992 32.7752 36.0491 33.1358L36.2502 34.3914L37.6905 34.3956L38.4113 27.6942L38.5288 20.6272L38.3383 18.3087C38.0874 15.5652 37.6206 12.8333 36.8377 10.1892C36.0806 7.63199 35.361 5.18675 32.2768 5.11658L31.3801 5.10717Z" fill="black"/>
<path d="M24.7842 14.71C24.5467 15.2452 23.9298 15.5038 23.4977 15.0941C22.3311 13.9878 20.4295 8.6405 19.9478 6.59547C19.5729 5.00406 20.8514 3.94017 22.3878 3.91064L25.3692 3.90497C26.3824 3.92192 27.1939 4.5314 27.6516 5.42757C27.9767 6.06409 27.63 6.92909 27.4295 7.55309L24.7842 14.71ZM22.1356 5.57154C21.6868 5.6577 21.4144 5.86311 21.5583 6.32029L22.1582 8.24742C22.2482 8.48129 22.2971 8.72388 22.3845 8.95593L23.8427 12.5673L24.3278 11.3723L26.083 6.28543C26.3478 5.38795 25.0169 5.57347 24.5625 5.57228L22.1356 5.57154Z" fill="black"/>
</svg>
