<svg width="48" height="48" viewBox="0 0 48 48" fill="none" xmlns="http://www.w3.org/2000/svg">
<path d="M25.86 23.3049L25.3504 18.8584L24.893 23.7687L24.1698 30.7179L23.5768 40.0954L23.0845 46.4708C23.0554 46.7912 23.0736 47.149 22.9784 47.4571L22.9651 47.4983C22.922 47.6347 22.8465 47.7631 22.735 47.8562L22.7062 47.8792C22.4694 48.0711 22.0513 47.9768 21.7675 47.977L14.6672 47.9881C13.8732 47.9762 13.9796 46.8322 13.9463 46.3091L12.9455 32.3355C12.9345 32.1839 12.9 32.0378 12.8906 31.885L12.2222 20.7726L12.1903 18.9513L12.0096 15.4582L12 11.3528C12.0124 10.7269 12.1021 10.0867 12.1762 9.46486L13.1053 2.48493L13.2685 1.69328C13.4132 1.12335 13.6941 1.09835 14.2617 1.09933L19.5592 1.10142C19.9734 1.10153 20.2956 1.07836 20.6997 1L20.8351 1.03679C21.0636 1.09808 21.2963 1.09032 21.5312 1.09375L36.3494 1.0999C36.6394 1.09994 37.023 1.0547 37.2998 1.13041L37.3325 1.14022C37.7189 1.251 37.7426 1.80283 37.8 2.12578L37.9576 3.01442C38.1087 3.98291 38.2943 5.03579 38.4115 6.00519L38.9072 10.8822C38.9304 11.1817 38.978 11.4745 38.9897 11.7762L39 14.6659C38.9953 15.5522 38.9792 16.1822 38.9027 17.0498L38.6344 20.9405C38.6181 21.1988 38.5673 21.4488 38.5575 21.7102L38.5246 23.0494L38.3108 26.7786L37.8844 33.7787C37.862 34.38 37.8138 34.9884 37.7701 35.5891L36.9249 46.9844C36.8357 47.8509 36.7313 47.9746 35.8974 47.9753L28.5516 47.9794C28.2732 47.9675 28.0947 47.78 28.016 47.5213L28.0055 47.4854C27.8887 47.1066 27.9307 46.6449 27.8959 46.2467L27.7188 44.3626L27.0781 35.8271L26.8055 31.754L25.9581 24.17C25.9301 23.8803 25.914 23.5917 25.86 23.3049ZM14.3954 2.3256L14.0046 4.82716L19.5232 4.82797L19.9399 4.82959L19.9137 2.33533L14.3954 2.3256ZM21.1844 2.32749L21.1682 4.80851L29.0732 4.82564C29.3394 4.82494 29.6241 4.79888 29.8876 4.82797L29.9084 3.03237C29.9081 2.81768 29.9397 2.54234 29.8956 2.3349L21.1844 2.32749ZM31.1369 2.32571C31.0759 2.53607 31.0941 2.76724 31.0936 2.97879L31.0919 4.11893C31.0918 4.3121 31.0483 4.64021 31.1057 4.81813L37.0244 4.81867L36.5933 2.3316L31.1369 2.32571ZM13.8748 6.05207C13.8239 6.18079 13.8195 6.30827 13.8 6.43732L13.4635 8.8534C13.3365 9.90936 13.2284 10.9538 13.2096 12.0193L13.238 15.5502L13.3714 17.7003L13.3934 20.1285C13.4073 20.3893 13.4795 20.6287 13.4913 20.8923L13.5181 22.2674C13.5267 22.4536 13.5724 22.6283 13.5823 22.8137L13.7162 25.5577C13.7356 25.829 13.7928 26.0964 13.8094 26.3648L13.9631 29.521C13.9792 29.7405 14.02 29.9546 14.0315 30.1751L14.0664 31.3064C14.0771 31.4555 14.1202 31.5992 14.1312 31.7469L14.2518 33.6644L15.1251 45.5038C15.1655 45.9097 15.1164 46.348 15.1948 46.7478L21.8397 46.7503L22.0068 44.5857L22.5639 36.8493C22.5779 36.6574 22.6236 36.474 22.635 36.2801L22.7761 32.8155L23.6197 24.3593C23.8972 21.5541 23.985 18.7128 24.8465 16.0006C22.6909 15.8446 20.5875 14.8627 20.0357 12.6106C19.9142 12.1143 19.9138 11.6613 19.9134 11.1551L19.9145 6.06331L13.8748 6.05207ZM21.1765 6.04925L21.1804 11.8306C21.1822 13.5979 22.7565 14.3743 24.3033 14.7131L24.2685 6.04882L21.1765 6.04925ZM25.4862 6.04925L25.4847 13.6878C25.4848 14.0611 25.4363 14.5029 25.5465 14.8615C26.6061 14.823 28.0298 14.5625 28.8078 13.7928C29.3631 13.2762 29.8735 12.4288 29.9004 11.65L29.9105 6.06147L25.4862 6.04925ZM31.12 6.05261C31.0681 6.54501 31.0963 7.05245 31.0962 7.54161L31.0953 11.3439C31.0928 14.19 28.8387 15.9231 26.0549 16.0302C26.0198 16.1536 26.0745 16.2779 26.0973 16.3985L26.2066 17.0878C26.2323 17.2305 26.2344 17.3772 26.2602 17.5203L26.8667 21.4128C26.9051 21.6771 26.9086 21.9459 26.9645 22.2086L27.9512 30.8702C28.0209 31.2364 27.9953 31.6421 28.0317 32.0152L28.4651 38.3075C28.4749 38.4796 28.5131 38.6471 28.5272 38.8187L28.5789 39.8483C28.5917 40.033 28.631 40.2173 28.6464 40.4025L29.0894 45.8899C29.1061 46.1648 29.0784 46.4829 29.1526 46.7487L32.7701 46.7449L35.7311 46.7485L36.3716 38.5034L36.6401 33.9476C36.6493 33.8181 36.6785 33.6937 36.6859 33.5638L37.251 24.1157L37.4658 20.1288C37.5158 19.2953 37.5523 18.3925 37.6284 17.5661C37.776 15.9626 37.8383 14.3652 37.7953 12.7547L37.59 9.34943L37.256 6.55577C37.2408 6.42007 37.2471 6.16392 37.1812 6.05374L31.12 6.05261Z" fill="black"/>
</svg>
