<svg width="48" height="48" viewBox="0 0 48 48" fill="none" xmlns="http://www.w3.org/2000/svg">
<path d="M27.9663 46.9051L26.7768 46.9978L19.8978 47C19.5155 46.9862 19.1335 46.9138 18.752 46.894L16.6961 46.7951C14.9428 46.6799 13.9795 46.4607 12.3118 45.9119L11.7373 45.7296C10.7553 45.4426 10.7885 45.166 11.1436 44.2551C12.0926 41.8207 11.5621 41.0634 11.2231 38.7824C11.0031 37.3016 10.8101 35.8048 10.7503 34.3081C10.7081 34.361 10.3746 35.4293 10.3196 35.5919L9.66785 37.4119L8.01031 41.0119L6.55163 43.6328C5.90889 44.7598 5.97606 45.529 4.50892 45.3731C3.54613 45.2708 2.60858 45.0864 1.66339 44.8849L0.933499 44.7258C-0.346066 44.441 0.0336202 43.6719 0.11803 42.6783L1.7185 30.6092L3.014 24.2851L4.71039 17.9003C6.20636 13.0927 7.2994 10.3009 12.0026 8.10729C12.6063 7.82568 13.2233 7.52322 13.8825 7.3902C14.2798 7.31004 14.3546 7.38255 14.6209 7.07965L15.0597 6.56428C15.6726 5.82071 15.8252 5.70423 15.8573 4.78008C15.9121 3.20781 17.369 2.10771 18.8839 2.02072L27.362 2.00788C27.714 2.00812 28.0832 1.9832 28.4324 2.02078C29.5616 2.14244 30.62 3.04836 31.0089 4.07053C31.151 4.44392 31.1825 5.54085 31.2593 5.64433C31.9176 6.53152 32.0915 7.1733 33.1843 7.45381C34.2714 7.73285 36.5476 8.85878 37.4846 9.51574C39.183 10.7065 40.3477 12.6512 41.094 14.5341L42.4975 18.6058C42.5249 18.7382 42.578 18.8595 42.6068 18.9916L42.7228 19.4059C42.803 19.803 42.9667 20.1775 43.0505 20.5738L43.7155 23.1915C43.8125 23.7185 43.9558 24.2564 44.0804 24.7787L44.3018 25.821C44.4706 26.5769 44.6494 27.3369 44.7925 28.0978L45.3455 31.0808L46.4338 38.9037L46.9272 43.66C46.9369 43.7873 47.0009 43.8977 47 44.0215C46.9951 44.7095 46.0853 44.721 45.6021 44.8196L42.5311 45.3671C41.0965 45.5593 41.2961 45.374 40.606 44.1994C39.5368 42.3797 38.6521 40.5032 37.8446 38.557L36.2594 34.3238L36.2194 34.6194C36.1257 34.9962 36.1802 35.4032 36.1512 35.788L35.9294 37.8932C35.7217 39.5877 34.9326 41.8571 35.5618 43.5143L35.7655 44.1105C36.1779 45.4751 36.2481 45.3465 34.7943 45.8329C33.0798 46.4065 32.1671 46.633 30.3061 46.7919L27.9663 46.9051ZM19.3565 3.70696C18.7142 3.72007 17.9395 3.77768 17.6297 4.47773L17.546 4.72515C17.4836 4.89825 17.4862 5.12301 17.5362 5.29917L17.5784 5.4371C17.6706 5.71739 17.8473 5.9137 18.0562 6.11733C19.5513 7.57422 21.4085 7.74825 23.3882 7.74732C24.5036 7.74678 25.6586 7.74738 26.7252 7.3807L27.1787 7.22671C27.8123 6.96471 29.0722 6.33521 29.3572 5.64897L29.4177 5.4738C29.4787 5.28857 29.4917 5.08183 29.4641 4.88962L29.4597 4.85664C29.2986 3.70773 28.1967 3.70483 27.3392 3.70429L19.3565 3.70696ZM16.7403 7.14425L16.1505 7.81132L17.4238 9.7227C18.9823 11.892 20.991 12.2808 23.5251 12.2782C23.8979 12.2778 24.2492 12.2838 24.6172 12.2209L25.212 12.1446C27.3243 11.7768 28.3796 11.3199 29.7002 9.64248L29.7561 9.56893L30.8839 7.85473L30.261 7.1916C28.1745 8.92326 26.4804 9.39004 23.6997 9.39086C21.0728 9.39168 18.704 9.19842 16.7403 7.14425ZM14.7446 8.87587C13.8894 9.11149 13.0087 9.48194 12.2346 9.91065C13.1449 12.334 16.022 16.6358 18.5203 17.7602C19.7894 18.3315 21.6566 18.4075 23.0463 18.4099L24.9218 18.3909C25.736 18.3488 27.0081 18.2492 27.7345 18.05C29.6717 17.5189 31.6261 15.4128 32.6511 13.8225C33.5125 12.5865 34.0305 11.2274 34.6277 9.86304C33.9072 9.44099 33.064 9.127 32.2745 8.85604C30.1687 12.7666 27.7268 14.0104 23.1964 14.0043C20.0399 14 17.5838 13.0583 15.747 10.3918L14.8428 8.87041C14.8098 8.87128 14.7772 8.87084 14.7446 8.87587ZM36.1633 10.6805C35.8482 11.4024 35.6005 12.1498 35.2434 12.8556C34.1023 15.1109 31.6542 18.3741 29.1438 19.3521L29.11 19.365C27.9044 19.8349 26.5426 20.0536 25.2453 20.1226L21.6815 20.1098C19.1772 19.96 17.4453 19.4933 15.6183 17.794C13.8112 16.1133 11.8115 13.4572 10.8723 11.1318L10.6876 10.7311C8.3314 12.5992 7.43065 15.0214 6.54604 17.7903L5.68988 20.5836L3.95272 27.9747L3.41882 31.035C3.35955 31.4229 3.26062 31.8069 3.21757 32.1969L1.85263 42.5153C1.83265 42.7355 1.7885 42.9393 1.78999 43.1624L4.56569 43.6662C4.75338 43.2667 4.99684 42.8965 5.21541 42.5135L6.34425 40.4309C8.14372 36.8965 10.4685 31.2163 10.5514 27.2109C10.5653 26.5369 10.3804 25.5685 11.2027 25.291C11.5483 25.1743 12.0995 25.3733 12.2172 25.7381L12.242 25.8169C12.2823 25.9249 12.259 26.0981 12.2589 26.2133L12.2577 30.8617L12.3048 32.6841C12.3146 32.8375 12.3504 32.9854 12.365 33.1371L12.4243 34.2015C12.4369 34.4011 12.4824 34.5992 12.495 34.8001L12.6054 36.2475C12.6492 36.7067 12.6867 37.1773 12.7602 37.6328L13.136 40.0287C13.3082 40.8546 13.0607 40.643 13.9753 40.8229L15.8457 41.1441C18.3186 41.5473 20.7965 41.6583 23.3007 41.6576L26.1784 41.6426C28.6883 41.5443 31.2236 41.2049 33.6789 40.6876C34.1056 39.0371 34.3052 37.2273 34.4373 35.5373L34.5376 34.2945C34.5975 33.0859 34.6873 31.9923 34.6895 30.7652L34.6897 26.4017C34.6914 25.9096 34.743 25.3714 35.3656 25.2705L35.4061 25.2636C35.8671 25.1916 36.3027 25.5265 36.3647 25.9786L36.3699 26.012C36.4424 26.5096 36.3757 27.0471 36.4223 27.5536C36.5726 29.1839 36.9242 31.1294 37.4739 32.6958L38.9068 36.7932L42.2371 43.6602L45.1476 43.1472L44.8342 39.8122L43.9704 33.2962L42.4452 25.2909L40.8948 19.2299C40.0259 16.3743 39.1399 13.034 36.6919 11.0672C36.5232 10.9317 36.3242 10.8234 36.1633 10.6805ZM13.344 42.4557C13.2612 43.0995 13.1372 43.6999 12.9265 44.3168C14.4383 44.8924 15.4701 44.9722 17.0006 45.0951L19.1531 45.2074C19.3849 45.22 19.6119 45.2629 19.8446 45.2696L26.3724 45.2718L29.8231 45.0854C31.1518 44.9995 32.4964 44.8907 33.7409 44.377L34.0711 44.267C33.9831 43.9333 33.8668 43.6065 33.7909 43.2694L33.6568 42.4961L31.0891 42.9317L26.9135 43.3904C26.5718 43.412 26.2226 43.4001 25.8802 43.4015L20.9514 43.3918L16.9952 43.072C15.7787 42.945 14.5305 42.7549 13.344 42.4557Z" fill="black"/>
</svg>
