<svg width="48" height="48" viewBox="0 0 48 48" fill="none" xmlns="http://www.w3.org/2000/svg">
<path d="M36.8397 34.6851L33.9071 37.2948C33.4752 37.6363 32.9167 37.8175 32.405 38.0075C31.2788 38.4258 29.9819 38.5135 29.0675 37.6342C28.7634 37.3417 28.6746 37.3105 28.3105 37.1049C27.6698 36.7433 27.506 36.5377 26.9842 36.0806C25.7172 34.9706 23.2489 35.0454 21.986 36.0745C21.6005 36.3887 21.2882 36.7617 20.9323 37.1058C19.2594 38.7233 16.7973 38.2744 15.0921 36.9648C14.7871 36.7306 14.5161 36.446 14.2218 36.198L12.5606 34.8181C10.738 33.306 8.67004 31.0885 7.27799 29.2302L6.95109 28.8194C5.66013 27.0654 4.49869 24.8986 4.27962 22.6886C4.25299 22.4199 4.27862 22.1387 4.28018 21.8682L4.28425 18.2609C4.2851 17.2192 4.19645 16.1938 5.65556 16.0877L43.4001 16.0869C43.9398 16.0969 44.4363 16.4703 44.6073 16.9884L44.6188 17.0268C44.7584 17.4188 44.6915 17.8707 44.6918 18.2796L44.6924 22.0802C44.6905 25.6251 42.7145 28.3091 40.5086 30.9299C39.3766 32.275 38.1864 33.5499 36.8397 34.6851ZM5.68436 17.4833C5.6597 17.7628 5.64066 18.662 5.68926 18.9102L43.3603 18.8807L43.3619 17.4919L5.68436 17.4833ZM7.19484 20.2398L5.68445 20.2528C5.6621 20.4986 5.63672 21.1934 5.70416 21.4314L41.7931 21.4301L43.3621 21.4337L43.3619 20.2391L7.19484 20.2398ZM5.68214 22.8062L6.09537 24.441L6.53662 25.5095C7.16557 26.9085 8.33386 28.4034 9.30759 29.5622L11.4591 31.8855C12.8079 33.2332 14.2332 34.5155 15.7641 35.6548C15.2786 31.8018 13.6287 29.1253 11.2372 26.097L8.62433 22.8074L5.96641 22.799C5.87893 22.7979 5.7653 22.783 5.68214 22.8062ZM12.9139 22.8055C13.6145 23.342 14.3516 23.8579 14.9926 24.4672C16.7506 26.1382 18.7604 29.4251 19.5291 31.6231C19.8594 32.5674 20.1431 33.6293 20.23 34.6292L20.2688 35.3172C20.2927 35.9465 20.3245 35.7604 20.7371 35.3244C21.7683 34.2348 23.9032 33.6481 25.3784 33.9718L25.4533 33.9879C25.9137 34.0839 26.3471 34.1883 26.7809 34.3798C27.1655 34.5494 28.3183 35.2096 28.5506 35.5611L28.5627 35.5798C28.5641 35.0655 28.5922 34.5336 28.6917 34.027C28.9177 32.8762 29.2745 31.7507 29.8137 30.7063C30.3534 29.6163 30.9335 28.5638 31.6295 27.564L32.594 26.309C33.412 25.2826 34.2502 24.4272 35.2929 23.6287L36.2174 22.9826C36.2968 22.9297 36.3599 22.8646 36.4445 22.8183L12.9139 22.8055ZM41.4812 22.8089C40.8547 22.8561 40.8812 23.0363 40.4436 23.4851L37.7443 26.3156L37.1637 27.0123C35.4866 28.9897 34.2254 31.1903 33.5737 33.7243C33.408 34.369 33.1436 35.217 33.3588 35.8749C33.4069 35.871 34.2182 35.0902 34.3102 35.0041L36.436 33.1925C37.1871 32.4968 37.9331 31.7717 38.6203 31.0129L39.4208 30.0785C41.0192 28.2256 43.1701 25.4387 43.2993 22.8666L41.4812 22.8089ZM10.5456 23.0916L12.5375 25.5661C13.3452 26.6004 14.1474 27.6594 14.8102 28.7946L15.645 30.3559C15.7713 30.6136 15.8577 30.8967 15.9845 31.1528L16.7236 33.2475L17.0323 34.6667C17.1341 35.0538 17.1501 35.5705 17.1523 35.9688C17.1559 36.6337 17.018 36.6142 17.8445 36.7252C18.2971 36.786 18.6606 36.7842 19.1058 36.6672L19.2382 36.6138C19.1308 36.2827 18.9556 36.1955 18.9148 35.7365L18.9108 35.6961C18.892 35.4878 18.9032 35.2783 18.8864 35.0701C18.6032 31.5711 15.8623 26.6842 12.9481 24.5446C12.4881 24.2068 11.9961 23.938 11.5031 23.6546L10.5456 23.0916ZM38.6141 23.2513C36.5898 24.1102 34.7003 25.7681 33.4047 27.5058L32.513 28.7512C30.9748 31.0658 29.6146 33.7339 29.9617 36.5889C30.0485 36.6836 30.1219 36.7615 30.2376 36.8227C30.5208 36.976 31.0345 36.9332 31.3507 36.8974L31.3886 36.8936C32.3315 36.789 31.9628 36.5561 31.9188 35.9634C31.7365 33.511 33.3347 29.9956 34.6214 28.0418C35.7804 26.282 37.2871 24.817 38.6802 23.2513C38.658 23.2508 38.6362 23.2496 38.6141 23.2513Z" fill="black"/>
</svg>
