<svg width="48" height="48" viewBox="0 0 48 48" fill="none" xmlns="http://www.w3.org/2000/svg">
<path d="M32.5471 47.8527C32.1461 47.906 31.7179 47.9726 31.3158 47.9934L17.6956 47.9933C15.7889 47.9079 13.9167 47.452 12.2454 46.5154C10.3242 45.4388 9.64794 44.1502 9.88577 42.0405L10.0563 40.6548C10.202 39.6755 10.1965 39.2724 10.1851 38.2883L10.1918 35.7972C10.2072 35.0726 10.2929 34.3607 10.2951 33.6375L10.2787 28.1132C10.2677 27.8638 10.2202 27.6277 10.1966 27.381L10.1394 26.5199L8.90938 26.3858C6.56519 26.0195 4.51911 24.6498 2.79038 23.0844L1.83305 22.1316C0.413055 20.7051 0.680022 20.802 1.64761 19.2678L3.30271 16.5164L5.55299 12.0408C6.5312 10.0175 7.20863 8.44115 9.24227 7.20338C9.93305 6.78296 10.7251 6.56152 11.4834 6.29601L16.2669 4.54209C16.7963 4.34511 17.32 4.09344 17.8723 3.9704C18.4153 3.92991 18.9972 4.43282 19.4608 4.67248C22.2634 6.12161 26.875 6.09314 29.601 4.48436C30.0389 4.22595 30.5069 3.78501 31.0621 4.00621L37.5732 6.42409C39.2739 7.00561 40.5121 7.6995 41.6286 9.17449C42.381 10.1685 42.7626 11.3175 43.3368 12.3997L45.5206 16.6391L47.3337 19.7064C47.9729 20.6927 48.1013 20.8715 47.2016 21.8299L46.0495 22.942C43.877 24.9972 41.6122 26.3997 38.5922 26.5031C38.4881 27.0449 38.5253 27.6067 38.5041 28.1549L38.4389 29.1717L38.4868 37.6094C38.5159 38.7739 38.4988 39.4777 38.6427 40.6381L38.8295 42.2029C39.4207 45.8056 35.5124 47.4765 32.5471 47.8527ZM30.5773 5.95322L30.5473 5.96367C30.3416 6.03869 30.1566 6.15712 29.9636 6.2591C26.7713 7.94655 22.2166 7.87401 18.9815 6.40296L18.0363 5.9369C18.0409 6.36041 18.1596 6.8941 18.32 7.28187L18.6172 7.9959C18.7653 8.32758 18.991 8.63989 19.2027 8.93363C20.0697 9.97181 21.1157 10.6672 22.3876 11.1292C26.1082 12.4806 30.2633 10.0524 30.6642 5.99875C30.6258 5.96021 30.6354 5.95353 30.5773 5.95322ZM16.1694 6.43884C15.492 6.73403 14.7916 6.97016 14.0968 7.2194L12.5843 7.78108C9.83787 8.73149 8.89699 9.14123 7.5451 11.9766L5.47693 16.1371C4.68987 17.6712 3.85928 19.2419 2.84726 20.6406L4.17008 21.9276C5.7323 23.3214 7.73394 24.6235 9.88783 24.703C9.74445 23.8916 9.62147 23.0897 9.39426 22.2956L8.97287 20.9641C8.90664 20.7587 8.81201 20.556 8.78664 20.3396C8.71762 19.7501 9.1934 19.2409 9.79623 19.3408L9.83192 19.3465C10.8364 19.5228 11.4447 23.247 11.6149 24.4225L11.9145 26.5785C11.9925 27.2393 12.0444 27.9046 12.0485 28.5694L12.05 32.9869C12.0496 33.7879 12.0186 34.3399 11.9658 35.1137L11.9388 38.836C11.9384 39.3274 11.9763 39.8479 11.8813 40.332C11.7381 41.0608 11.4384 42.9243 11.6694 43.558L11.7933 43.8591C11.8609 44.0041 11.985 44.1218 12.0936 44.2371C13.7372 45.9822 16.433 46.1076 18.6646 46.2128L28.1979 46.2675L31.2752 46.1963C33.0289 46.1166 35.904 45.4188 36.961 43.8313C37.4741 42.7411 36.8569 41.2629 36.7527 40.1723L36.7474 40.123C36.6748 39.4096 36.7109 38.665 36.7101 37.9474L36.707 29.7751C36.7076 28.9675 36.6713 28.1396 36.7307 27.335L36.8582 26.2757C37.0499 24.5096 37.3113 22.8018 37.8185 21.0946C38.0434 20.3376 38.2196 19.4798 39.0901 19.2801C39.3408 19.3451 39.6021 19.4029 39.7456 19.6436L39.8583 19.8681C40.0172 20.2248 39.7973 20.6627 39.6934 21.0002L39.3275 22.2702C39.105 23.09 38.9691 23.9107 38.7915 24.7384C41.4507 24.6225 44.0107 22.6601 45.7531 20.7519L45.8487 20.6422L44.2498 18.0151L41.391 12.4291C39.9815 9.43763 39.5249 9.0574 36.6679 7.98674L32.4195 6.40375C32.3069 6.91444 32.2332 7.41219 32.0745 7.91523C31.0835 11.0587 28.1465 13.0824 24.9148 13.2827C24.3902 13.3152 23.8343 13.3094 23.3181 13.1954C19.7295 12.4027 17.1932 10.5144 16.3156 6.77404C16.2906 6.66769 16.275 6.52825 16.2153 6.43714L16.1694 6.43884Z" fill="black"/>
<path d="M24.5391 16.6151C23.4623 16.8233 23.0666 15.2627 24.2102 14.807C25.2544 14.6293 25.653 16.2253 24.5391 16.6151Z" fill="black"/>
<path d="M27.8843 33.0071L26.833 33.7538C26.3718 34.068 24.7164 35.0996 24.2186 34.9816C24.0032 34.9307 23.8108 34.797 23.6262 34.681L22.8054 34.1451C19.7665 32.022 16.1876 28.4405 15.5321 24.7524C14.9719 21.6002 17.0453 18.6751 20.2852 18.3025C21.6304 18.2268 23.1533 18.4963 24.2731 19.2901C24.4059 19.3842 24.3875 19.4383 24.5257 19.3505C27.7401 17.309 31.6768 18.3102 33.0956 21.9176L33.352 22.7904C33.4034 22.9534 33.4073 23.1056 33.4258 23.2735C33.8658 27.2645 30.8532 30.7278 27.8843 33.0071ZM20.7284 20.0637C19.6553 20.1459 18.7301 20.5274 18.0123 21.3502C15.1182 24.6678 20.5239 30.2458 23.1654 32.1983C23.5654 32.494 23.9573 32.8296 24.3834 33.085C25.4706 32.5845 26.5241 31.8114 27.4621 31.0798C29.5758 29.3664 31.682 26.6643 31.6695 23.8265C31.6562 20.821 28.3353 19.2226 25.7969 20.6667C25.3348 20.9296 24.9096 21.3871 24.3518 21.3958C23.6895 21.4062 22.872 19.9671 20.7284 20.0637Z" fill="black"/>
<path d="M26.8649 29.9478C26.2821 30.439 25.6091 30.9231 24.9324 31.2743C23.9742 31.7716 23.2417 30.891 22.5996 30.296C20.9116 28.7319 17.9866 25.9761 19.6198 23.4957C20.0602 22.827 20.7071 22.4663 21.4726 22.3051C22.6162 22.2159 23.4525 22.549 24.3804 23.2352L24.9555 22.8348C26.7647 21.7276 28.997 22.3499 29.6107 24.4484C30.2848 26.7535 28.5353 28.5899 26.8649 29.9478ZM21.8427 24.0672C21.2168 24.1612 20.7964 24.6781 20.9252 25.3209L20.957 25.463C21.1702 26.344 23.4538 28.8104 24.3818 29.5557C25.1964 29.0333 25.9779 28.4326 26.6651 27.7505C27.3101 27.1034 28.0945 26.1821 27.9427 25.196L27.9351 25.1407C27.701 23.5251 25.9986 24.0206 25.2033 24.8622C25.0343 25.041 24.8956 25.2127 24.6594 25.3068L24.6213 25.3221C23.8821 25.6078 23.4713 24.6713 22.899 24.3344L22.8477 24.3036C22.5483 24.1261 22.186 24.0685 21.8427 24.0672Z" fill="black"/>
</svg>
