<svg width="100" height="93" viewBox="0 0 100 93" fill="none" xmlns="http://www.w3.org/2000/svg">
<mask id="path-1-inside-1_338_11850" fill="white">
<path d="M38.9343 0C50.4779 0 59.8355 9.90832 59.8357 22.1309C59.8357 22.2894 59.833 22.4478 59.8298 22.6055C69.0547 23.187 76.9767 26.6688 81.4236 31.6338C82.6427 31.3168 83.9239 31.1475 85.2458 31.1475C93.3943 31.1475 99.9998 37.5701 99.9998 45.4922C99.9996 53.4142 93.3942 59.8359 85.2458 59.8359C82.0316 59.8359 79.0579 58.8361 76.6345 57.1396C72.0339 61.0396 65.7541 63.9587 58.197 64.7539C44.0685 65.6356 37.5007 63.8505 34.0271 60.6338C32.2703 59.2165 30.8574 57.4106 29.9275 55.3516C27.4765 56.6438 24.6848 57.3769 21.7214 57.377C11.9885 57.377 4.09839 49.4868 4.09839 39.7539C4.0985 31.2848 10.0728 24.2117 18.0369 22.5176C18.0348 22.389 18.033 22.2599 18.033 22.1309C18.0331 9.90835 27.3908 5.78495e-05 38.9343 0Z"/>
</mask>
<path d="M38.9343 0V-4.91803H38.9343L38.9343 0ZM59.8357 22.1309H64.7537V22.1308L59.8357 22.1309ZM59.8298 22.6055L54.9128 22.5078L54.8193 27.2174L59.5204 27.5138L59.8298 22.6055ZM81.4236 31.6338L77.7601 34.915L79.7601 37.148L82.6614 36.3935L81.4236 31.6338ZM85.2458 31.1475V26.2294H85.2458L85.2458 31.1475ZM99.9998 45.4922L104.918 45.4923V45.4922H99.9998ZM85.2458 59.8359L85.2458 64.754H85.2458V59.8359ZM76.6345 57.1396L79.4549 53.1107L76.3477 50.9355L73.4544 53.3882L76.6345 57.1396ZM58.197 64.7539L58.5033 69.6624L58.6077 69.6559L58.7117 69.6449L58.197 64.7539ZM34.0271 60.6338L37.3687 57.0253L37.2457 56.9114L37.1151 56.8061L34.0271 60.6338ZM29.9275 55.3516L34.4096 53.3273L32.258 48.5632L27.6339 51.0011L29.9275 55.3516ZM21.7214 57.377V62.295H21.7215L21.7214 57.377ZM4.09839 39.7539L-0.819644 39.7538V39.7539H4.09839ZM18.0369 22.5176L19.0601 27.328L23.0197 26.4857L22.9543 22.4381L18.0369 22.5176ZM18.033 22.1309L13.1149 22.1308V22.1309H18.033ZM38.9343 0V4.91803C47.5006 4.91803 54.9175 12.3558 54.9177 22.1309L59.8357 22.1309L64.7537 22.1308C64.7535 7.46085 53.4552 -4.91803 38.9343 -4.91803V0ZM59.8357 22.1309H54.9177C54.9177 22.2373 54.9158 22.3545 54.9128 22.5078L59.8298 22.6055L64.7469 22.7031C64.7501 22.5411 64.7537 22.3414 64.7537 22.1309H59.8357ZM59.8298 22.6055L59.5204 27.5138C67.8383 28.0381 74.3995 31.1628 77.7601 34.915L81.4236 31.6338L85.087 28.3526C79.5539 22.1748 70.2711 18.3359 60.1393 17.6972L59.8298 22.6055ZM81.4236 31.6338L82.6614 36.3935C83.4798 36.1807 84.3453 36.0655 85.2459 36.0655L85.2458 31.1475L85.2458 26.2294C83.5026 26.2294 81.8055 26.4529 80.1858 26.8741L81.4236 31.6338ZM85.2458 31.1475V36.0655C90.8094 36.0655 95.0817 40.4156 95.0817 45.4922H99.9998H104.918C104.918 34.7245 95.9792 26.2294 85.2458 26.2294V31.1475ZM99.9998 45.4922L95.0817 45.4921C95.0816 50.5683 90.8096 54.9179 85.2458 54.9179V59.8359V64.754C95.9788 64.754 104.918 56.26 104.918 45.4923L99.9998 45.4922ZM85.2458 59.8359L85.2459 54.9179C83.0643 54.9179 81.0712 54.2422 79.4549 53.1107L76.6345 57.1396L73.8141 61.1686C77.0446 63.43 80.9989 64.754 85.2458 64.754L85.2458 59.8359ZM76.6345 57.1396L73.4544 53.3882C69.6136 56.644 64.2645 59.1702 57.6823 59.8629L58.197 64.7539L58.7117 69.6449C67.2437 68.7471 74.4542 65.4353 79.8147 60.8911L76.6345 57.1396ZM58.197 64.7539L57.8907 59.8454C43.8299 60.7229 39.2019 58.7229 37.3687 57.0253L34.0271 60.6338L30.6855 64.2422C35.7995 68.978 44.3071 70.5483 58.5033 69.6624L58.197 64.7539ZM34.0271 60.6338L37.1151 56.8061C35.9424 55.86 35.0144 54.6664 34.4096 53.3273L29.9275 55.3516L25.4454 57.3759C26.7004 60.1547 28.5982 62.5729 30.9391 64.4615L34.0271 60.6338ZM29.9275 55.3516L27.6339 51.0011C25.8708 51.9306 23.8643 52.4589 21.7214 52.4589L21.7214 57.377L21.7215 62.295C25.5054 62.295 29.0821 61.357 32.2211 59.702L29.9275 55.3516ZM21.7214 57.377V52.4589C14.7047 52.4589 9.01642 46.7706 9.01642 39.7539H4.09839H-0.819644C-0.819644 52.2029 9.27239 62.295 21.7214 62.295V57.377ZM4.09839 39.7539L9.01642 39.754C9.0165 33.6545 13.3199 28.549 19.0601 27.328L18.0369 22.5176L17.0136 17.7072C6.82575 19.8743 -0.8195 28.9151 -0.819644 39.7538L4.09839 39.7539ZM18.0369 22.5176L22.9543 22.4381C22.9522 22.3124 22.951 22.2173 22.951 22.1309H18.033H13.1149C13.1149 22.3026 13.1173 22.4657 13.1195 22.5971L18.0369 22.5176ZM18.033 22.1309L22.951 22.1309C22.9511 12.3558 30.3681 4.91808 38.9343 4.91803L38.9343 0L38.9343 -4.91803C24.4136 -4.91796 13.1151 7.46086 13.1149 22.1308L18.033 22.1309Z" fill="#43536F" mask="url(#path-1-inside-1_338_11850)"/>
<rect x="9.42627" y="50.8198" width="4.91803" height="31.9672" fill="#43536F"/>
<path d="M11.8852 92.623L22.1782 82.1722H1.59232L11.8852 92.623Z" fill="#43536F"/>
<rect x="29.0984" y="54.0986" width="4.91803" height="28.6885" fill="#43536F"/>
<path d="M31.5574 92.623L41.8503 82.1722H21.2644L31.5574 92.623Z" fill="#43536F"/>
<path d="M20.959 46.8196C23.2705 46.8196 25.164 45.6884 26.3197 44.0163L28.164 45.4425C26.5902 47.5819 24.0574 48.9835 20.959 48.9835C15.5738 48.9835 11.9099 44.8032 11.9099 39.8851C11.9099 34.9671 15.5738 30.7868 20.959 30.7868C24.0574 30.7868 26.5902 32.213 28.164 34.3278L26.3197 35.754C25.164 34.0819 23.2705 32.9507 20.959 32.9507C17.0738 32.9507 14.2951 36.0491 14.2951 39.8851C14.2951 43.7212 17.0738 46.8196 20.959 46.8196ZM39.2816 30.7868C44.6423 30.7868 48.3062 34.9671 48.3062 39.8851C48.3062 44.8032 44.6423 48.9835 39.2816 48.9835C33.8963 48.9835 30.2324 44.8032 30.2324 39.8851C30.2324 34.9671 33.8963 30.7868 39.2816 30.7868ZM39.2816 46.8196C43.1423 46.8196 45.9209 43.7212 45.9209 39.8851C45.9209 36.0491 43.1423 32.9507 39.2816 32.9507C35.3963 32.9507 32.6177 36.0491 32.6177 39.8851C32.6177 43.7212 35.3963 46.8196 39.2816 46.8196Z" fill="#43536F"/>
<path d="M45.9181 54.1641V53.1682L48.832 50.1682C49.8402 49.1108 50.2951 48.6313 50.2951 47.7214C50.2951 46.8239 49.6435 46.3075 48.7706 46.3075C47.8607 46.3075 47.2706 46.7624 46.7665 47.5985L45.8566 47.0452C46.5574 45.9509 47.5165 45.3116 48.8566 45.3116C50.2951 45.3116 51.4386 46.246 51.4386 47.6477C51.4386 48.8157 50.6763 49.6887 49.6435 50.7706L47.2829 53.1682H51.6722V54.1641H45.9181Z" fill="#43536F"/>
</svg>
