<svg width="101" height="88" viewBox="0 0 101 88" fill="none" xmlns="http://www.w3.org/2000/svg">
<rect width="40.1786" height="14.6104" transform="translate(0.697998 0.305176)" fill="white"/>
<path d="M12.9743 12.8447C12.9791 12.8447 12.984 12.8375 12.984 12.8375C13.0228 12.8089 13.0616 12.773 13.0955 12.7301C13.0907 12.7301 13.0858 12.7301 13.081 12.7229C13.047 12.7587 13.0082 12.8017 12.9743 12.8447Z" fill="#000091"/>
<path d="M18.3475 11.0343L18.2627 11.1074C18.3112 11.0952 18.3475 11.083 18.3475 11.0343Z" fill="#000091"/>
<path fill-rule="evenodd" clip-rule="evenodd" d="M16.6103 12.8836C16.7659 12.7271 16.9216 12.561 17.0772 12.3903H17.0725C17.3649 12.0582 17.6479 11.7404 17.9874 11.451C18.0912 11.3562 18.1902 11.2755 18.2845 11.2091C18.2984 11.1952 18.3055 11.1744 18.3124 11.1541C18.3196 11.1329 18.3267 11.1121 18.3411 11.1C18.2739 11.1257 18.2203 11.1662 18.1665 11.207C18.1107 11.2492 18.0546 11.2917 17.9827 11.3182C17.9544 11.3182 17.9261 11.2898 17.9544 11.2613C18.0535 11.1901 18.1525 11.1142 18.2468 11.0383H18.228C18.1997 11.0383 18.1997 11.0099 18.1997 10.9814C17.8486 10.9257 17.5789 11.1658 17.3375 11.3807L17.3224 11.3941C17.2849 11.413 17.2494 11.3943 17.2215 11.3795C17.2074 11.3721 17.1952 11.3657 17.1857 11.3657C16.9721 11.4373 16.7879 11.5693 16.6025 11.7022C16.4318 11.8246 16.26 11.9477 16.0632 12.025V11.9681C15.9964 11.9911 15.9304 12.0212 15.8642 12.0513C15.7668 12.0955 15.6691 12.14 15.568 12.1626C15.3835 12.2054 15.2122 12.1999 15.0463 12.1945C14.9918 12.1928 14.9378 12.191 14.8842 12.191C14.5821 12.221 14.2839 12.2857 13.9861 12.3503L13.8891 12.3713C13.8844 12.3737 13.8797 12.3749 13.8749 12.376C13.8702 12.3772 13.8655 12.3784 13.8608 12.3808C13.6816 12.4282 13.5165 12.4946 13.3514 12.5895L13.3326 12.599C13.3261 12.6077 13.3196 12.6154 13.3136 12.6225C13.3065 12.631 13.3 12.6387 13.2949 12.6464C13.2383 12.7128 13.1864 12.7698 13.1062 12.8125C12.9878 12.872 12.8854 12.9638 12.7848 13.0542C12.7411 13.0934 12.6976 13.1324 12.6535 13.1682C12.644 13.1777 12.6252 13.1825 12.611 13.1825C12.4648 13.3247 12.3186 13.4671 12.1677 13.6046C12.1583 13.6141 12.1158 13.6189 12.0828 13.6141C12.0828 13.6141 12.0875 13.6141 12.0875 13.6094L12.1017 13.5809L12.1724 13.4671C12.1866 13.4457 12.1995 13.4244 12.2125 13.403C12.2255 13.3817 12.2384 13.3603 12.2526 13.339C12.2903 13.2821 12.3281 13.2251 12.3705 13.173C12.3799 13.1587 12.3799 13.1445 12.3705 13.135C12.361 13.1255 12.3469 13.1208 12.3328 13.1208C12.4695 12.988 12.6299 12.8741 12.7949 12.7745V12.7698C12.7761 12.7745 12.7478 12.7603 12.7619 12.7413C12.7758 12.7239 12.7871 12.704 12.7977 12.6852L12.8091 12.6654C12.8114 12.6607 12.8126 12.6571 12.8138 12.6535C12.815 12.65 12.8162 12.6464 12.8185 12.6417C12.8162 12.6369 12.8126 12.6334 12.8091 12.6298C12.8055 12.6263 12.802 12.6227 12.7997 12.618L12.771 12.6368C12.7369 12.6592 12.7017 12.6822 12.6723 12.7081C12.6515 12.7261 12.6321 12.7506 12.6121 12.7758C12.5689 12.8305 12.5232 12.8884 12.4554 12.8884C12.4507 12.8884 12.4271 12.8884 12.4129 12.8836C12.3988 12.8836 12.3893 12.8789 12.3846 12.8741C12.3846 12.8718 12.3846 12.8706 12.3852 12.87C12.3858 12.8694 12.387 12.8694 12.3893 12.8694C12.3893 12.8694 12.3941 12.8646 12.3941 12.8599C12.3941 12.8599 12.3941 12.8551 12.3988 12.8551C12.4011 12.8504 12.4035 12.8468 12.4059 12.8433C12.4082 12.8397 12.4106 12.8362 12.4129 12.8314C12.4153 12.8267 12.4176 12.8231 12.42 12.8196C12.4224 12.816 12.4247 12.8125 12.4271 12.8077C12.4294 12.8053 12.4306 12.8018 12.4318 12.7982C12.433 12.7947 12.4342 12.7911 12.4365 12.7887L12.4418 12.7789C12.4465 12.7706 12.4521 12.7607 12.4554 12.7508C12.4577 12.746 12.4601 12.7425 12.4624 12.7389C12.4648 12.7354 12.4672 12.7318 12.4695 12.7271C12.4766 12.7176 12.4825 12.7069 12.4884 12.6962C12.4943 12.6856 12.5002 12.6749 12.5073 12.6654C12.512 12.6559 12.5167 12.6464 12.5261 12.6369C12.5308 12.6275 12.5355 12.6192 12.5403 12.6108C12.545 12.6025 12.5497 12.5942 12.5544 12.5848C12.5686 12.561 12.5544 12.5421 12.5355 12.5373C12.5874 12.4709 12.6487 12.414 12.7242 12.3713H12.7148C12.7799 12.3386 12.8468 12.3002 12.9133 12.2621C12.9526 12.2396 12.9923 12.2169 13.0307 12.1958C13.0449 12.1816 13.059 12.1673 13.0779 12.1578C12.9223 12.21 12.7808 12.2812 12.644 12.376C12.644 12.376 12.6063 12.3903 12.5969 12.3998C12.5969 12.3998 12.5686 12.4093 12.5308 12.376C12.5261 12.3713 12.5261 12.3666 12.5261 12.3571C12.5425 12.3241 12.5763 12.3023 12.6129 12.2787C12.6394 12.2615 12.6674 12.2435 12.6912 12.2195C12.7195 12.2195 12.7431 12.2195 12.7431 12.248C13.2862 11.8221 13.956 11.7235 14.628 11.6247C15.0413 11.5639 15.4554 11.5029 15.8416 11.3657C15.8817 11.3372 15.9229 11.3099 15.9642 11.2826C16.0055 11.2554 16.0467 11.2281 16.0868 11.1996C16.1556 11.171 16.2172 11.122 16.2825 11.0701C16.347 11.0187 16.4151 10.9646 16.4971 10.9245C16.7141 10.7585 16.8791 10.5687 16.964 10.2889C16.964 10.2604 16.9357 10.2319 16.9357 10.2319C16.5773 10.6162 16.167 10.9198 15.7284 11.1427C15.3102 11.3634 14.862 11.3961 14.4184 11.4285C14.2517 11.4406 14.0857 11.4527 13.9221 11.4748C13.9504 11.4178 14.007 11.4178 14.0589 11.4178C14.0589 11.3505 14.0911 11.3215 14.1326 11.2843C14.1436 11.2744 14.1554 11.2638 14.1673 11.2518H14.2475C14.2617 11.2518 14.2687 11.2376 14.2758 11.2233C14.2829 11.2091 14.29 11.1949 14.3041 11.1949C14.3607 11.1949 14.4409 11.1664 14.4126 11.1664C14.3693 11.1108 14.3065 11.1328 14.2371 11.1571C14.1704 11.1805 14.0976 11.206 14.0306 11.1664C14.0555 11.1391 14.063 11.1062 14.0698 11.0763C14.0772 11.044 14.0838 11.0152 14.1107 11.0004H14.2192C14.2192 10.9435 14.2758 10.8913 14.2758 10.8913C14.5218 10.7434 14.7593 10.6143 14.9923 10.4876C15.148 10.403 15.3019 10.3193 15.4548 10.2319C15.4239 10.2319 15.3965 10.2447 15.3698 10.257C15.3275 10.2766 15.2871 10.2954 15.2379 10.2604C15.2662 10.2604 15.2662 10.2402 15.2662 10.2201C15.2662 10.1999 15.2662 10.1798 15.2945 10.1798C15.4714 10.1325 15.6289 10.0559 15.7897 9.97764C15.9033 9.92241 16.0185 9.86635 16.1434 9.81924C16.1063 9.81924 16.072 9.82922 16.0386 9.83894C15.9742 9.85766 15.913 9.87544 15.8416 9.81924C15.8603 9.80982 15.8754 9.79779 15.8904 9.78592C15.9205 9.76195 15.9499 9.7386 16.0066 9.7386V9.65796C16.0066 9.6295 16.0349 9.6295 16.0632 9.6295C16.0349 9.6295 16.0066 9.60104 16.0066 9.60104C16.0216 9.5709 16.0511 9.5647 16.084 9.55779C16.1132 9.55165 16.1451 9.54495 16.1717 9.5204C16.1434 9.5204 16.0915 9.5204 16.0915 9.49194C16.1717 9.38283 16.3085 9.35437 16.4452 9.32591C16.4311 9.29745 16.404 9.29745 16.3804 9.29745C16.3568 9.29745 16.3368 9.29745 16.3368 9.26899C16.3368 9.24053 16.3651 9.24053 16.3934 9.24053H16.3368C16.2924 9.21819 16.3002 9.17833 16.3057 9.15074C16.3072 9.14317 16.3085 9.13653 16.3085 9.13142C16.4193 9.00088 16.4557 8.84684 16.4919 8.69367C16.5097 8.61863 16.5274 8.54381 16.5537 8.47206C16.5254 8.47206 16.4971 8.47206 16.4971 8.4436C16.2319 8.73792 15.8116 8.84945 15.4124 8.95539L15.3747 8.9654H15.2379C15.1011 9.02232 14.9078 9.02232 14.771 8.93694C14.706 8.90281 14.6596 8.86015 14.6095 8.81409C14.576 8.78332 14.5409 8.75102 14.4975 8.71873C14.2758 8.58117 14.0589 8.47206 13.8136 8.38668C13.1298 8.16847 12.4176 8.05463 11.7055 8.08309C11.9044 7.9737 12.1155 7.93021 12.3295 7.88613C12.4403 7.8633 12.5519 7.84032 12.6629 7.80796C12.7329 7.78733 12.8023 7.76606 12.8713 7.7449C13.2625 7.62498 13.642 7.50864 14.0589 7.53283C14.0043 7.51346 13.9344 7.52046 13.8701 7.52691C13.8399 7.52993 13.8109 7.53283 13.7853 7.53283C13.4701 7.50934 13.1516 7.57954 12.8194 7.65277C12.749 7.66829 12.678 7.68393 12.6063 7.69886C12.4762 7.72594 12.3524 7.76483 12.2285 7.80378C12.0919 7.84671 11.9551 7.88971 11.8093 7.91706C11.746 7.93888 11.6952 7.97604 11.6457 8.01223C11.5661 8.07045 11.4899 8.12618 11.3707 8.11155V8.02617C11.6442 7.69411 11.9743 7.36681 12.4129 7.33834C12.8369 7.2693 13.2367 7.31848 13.6537 7.36978C13.7237 7.3784 13.7943 7.38708 13.8655 7.39527C14.2074 7.42278 14.5272 7.49903 14.8719 7.58119L14.9078 7.58975C14.9832 7.58975 15.0257 7.65618 15.0668 7.72051C15.1002 7.77278 15.1327 7.82366 15.1813 7.83642C15.2485 7.85958 15.3156 7.86389 15.3827 7.86821C15.4807 7.87451 15.5786 7.8808 15.6765 7.94552C15.6765 7.92637 15.6733 7.90775 15.6701 7.88931C15.6639 7.85295 15.6577 7.81727 15.6765 7.7795C15.7374 7.71829 15.8071 7.73472 15.8758 7.75088C15.9295 7.76353 15.9826 7.77603 16.0302 7.75104C16.1798 7.65822 16.0395 7.51574 15.8991 7.37313C15.8314 7.30437 15.7637 7.23558 15.7284 7.17232C15.7284 7.14386 15.7567 7.11539 15.7567 7.11539C15.8186 7.17092 15.8763 7.22837 15.9335 7.28533C16.0767 7.4279 16.2168 7.56736 16.4122 7.66565C16.549 7.72258 16.8791 7.80322 16.8225 7.63719C16.7257 7.42216 16.5602 7.23569 16.3931 7.04744C16.3243 6.96991 16.2552 6.89206 16.1906 6.81181V6.7027C16.1476 6.7027 16.1372 6.68628 16.1244 6.66591C16.1204 6.65946 16.1161 6.65262 16.1104 6.64578V6.53668C16.0413 6.50039 16.0258 6.44292 16.0102 6.38512C16.0013 6.35224 15.9924 6.31925 15.9736 6.29001C15.9264 6.2134 15.923 6.11914 15.9195 6.02198C15.9167 5.94466 15.9138 5.8655 15.8887 5.79193C15.8321 5.62591 15.8086 5.48834 15.7803 5.32232C15.7496 5.15246 15.7158 4.99006 15.6827 4.83106C15.6243 4.55046 15.5681 4.28044 15.535 3.99885C15.4914 3.59638 15.6946 3.25599 15.9024 2.90803C15.964 2.80487 16.026 2.70105 16.0821 2.59475C16.2755 2.2627 16.4924 1.93539 16.8508 1.71244C16.929 1.38858 17.1418 1.11887 17.3535 0.850496L17.3696 0.830129C17.5786 0.569689 17.9276 0.410474 18.1848 0.293134L18.2138 0.279872C18.5958 0.109103 18.9401 0 18.9448 0H0V14.6055H13.4411C13.8005 14.3449 14.1578 14.1805 14.5831 13.9848C14.7771 13.8955 14.9853 13.7997 15.2143 13.6853C15.2628 13.6609 15.3205 13.6325 15.3844 13.6011C15.7683 13.4122 16.3799 13.1113 16.6103 12.8836ZM12.3453 10.9131C12.292 10.9185 12.2354 10.9241 12.2568 10.8813C12.2766 10.7853 12.3749 10.7565 12.4709 10.7284C12.512 10.7164 12.5527 10.7044 12.5866 10.6874L12.6021 10.6794L12.6135 10.6734C12.6666 10.6452 12.7317 10.6106 12.7798 10.6307C12.8122 10.6768 12.8524 10.6887 12.8914 10.7002C12.9204 10.7088 12.9488 10.7172 12.973 10.7394C12.871 10.8417 12.7521 10.8518 12.6315 10.862C12.5514 10.8688 12.4705 10.8757 12.3934 10.9097C12.3796 10.9097 12.3626 10.9114 12.3453 10.9131ZM8.17285 10.246C8.17285 10.2745 8.20115 10.303 8.20115 10.303C8.86141 9.55822 9.46036 8.92257 10.3093 8.39604C10.332 8.38651 10.3235 8.39841 10.3123 8.41421C10.2956 8.43776 10.2727 8.46999 10.3376 8.45296C10.6186 8.38889 10.7448 8.14813 10.8676 7.9139C10.8994 7.85333 10.9309 7.7932 10.9648 7.73668C11.0936 7.52721 11.2765 7.39301 11.4608 7.25778C11.5938 7.16026 11.7274 7.06221 11.842 6.93501C11.842 6.96347 11.842 6.99193 11.8137 7.02039C11.842 7.04885 11.8703 7.04885 11.8986 7.04885C11.9484 7.01132 12.0027 6.99579 12.0547 6.9809C12.1211 6.96191 12.1838 6.94397 12.2287 6.88283C12.0118 6.79744 11.7335 6.76898 11.5166 6.85437C10.9412 7.1295 10.4508 7.57065 9.98385 8.06873C9.70088 8.36757 9.40848 8.64745 9.05005 8.84193C8.80481 9.33527 8.53128 9.77642 8.17285 10.246ZM10.4753 8.48182C10.4605 8.51149 10.4457 8.52693 10.4316 8.54168C10.4187 8.55513 10.4064 8.56802 10.3952 8.59057C10.3669 8.64731 10.3386 8.67096 10.2868 8.69932C10.2585 8.69932 10.2303 8.69932 10.2303 8.67096C10.2585 8.56221 10.3386 8.45345 10.447 8.42509C10.4753 8.42981 10.4753 8.45818 10.4753 8.48182ZM11.6813 12.6944C11.7048 12.6707 11.7331 12.6423 11.7472 12.6138C11.7708 12.5569 11.6247 12.5711 11.6012 12.5853C11.5798 12.6026 11.5662 12.6198 11.5498 12.6405L11.5446 12.647C11.525 12.6696 11.502 12.6906 11.4786 12.7118C11.4628 12.7262 11.4468 12.7408 11.4316 12.7561C11.3656 12.8225 11.2996 12.8889 11.229 12.9506C11.1818 12.9933 11.3326 13.0123 11.3656 12.9838C11.4033 12.9553 11.4363 12.9221 11.4692 12.8889C11.4818 12.8889 11.4944 12.8868 11.5028 12.8854L11.5085 12.8845L11.5117 12.8842C11.5898 12.858 11.6479 12.8036 11.7044 12.7507L11.719 12.7371C11.7378 12.7182 11.7143 12.6992 11.6813 12.6944ZM11.2549 12.386C11.2543 12.3861 11.254 12.3862 11.2537 12.3865C11.2531 12.3871 11.2531 12.3882 11.2531 12.3906C11.2242 12.4105 11.1956 12.4307 11.1671 12.4508C11.0934 12.503 11.0201 12.5549 10.9419 12.5993C10.867 12.6415 10.7903 12.6779 10.7129 12.7146C10.6683 12.7358 10.6235 12.7571 10.5787 12.7796C10.5787 12.7796 10.5787 12.7749 10.574 12.7749C10.5646 12.7606 10.5457 12.7559 10.5268 12.7654C10.4231 12.8223 10.3335 12.8982 10.2533 12.9788C10.2391 12.9883 10.225 13.0025 10.2156 13.0168L10.1731 13.0595V13.0642C10.1543 13.0832 10.1354 13.1022 10.1118 13.1306C10.1069 13.1356 10.1031 13.1405 10.0995 13.1452C10.0927 13.1541 10.0864 13.1624 10.0741 13.1686C10.0552 13.1781 10.0081 13.1781 10.0128 13.1496V13.1449C9.99862 13.1543 9.97976 13.1638 9.96561 13.1686C9.95853 13.1733 9.95146 13.1769 9.94439 13.1804C9.93731 13.184 9.93024 13.1875 9.92316 13.1923C9.91845 13.1875 9.90901 13.1875 9.9043 13.1875C9.89958 13.1875 9.89015 13.1875 9.88543 13.1923C9.87443 13.2018 9.86342 13.2107 9.85242 13.2197C9.83041 13.2376 9.8084 13.2555 9.78639 13.2777C9.7298 13.3299 9.67792 13.3868 9.62604 13.4484C9.62604 13.4484 9.62604 13.4532 9.62133 13.4532C9.62133 13.4556 9.62015 13.4567 9.61897 13.4579C9.61779 13.4591 9.61661 13.4603 9.61661 13.4627L9.60718 13.4722C9.60538 13.474 9.60426 13.4758 9.60331 13.4773C9.60177 13.4798 9.60066 13.4816 9.59775 13.4816L9.59303 13.4864C9.58831 13.4959 9.5836 13.5054 9.57417 13.5149C9.56945 13.5196 9.56002 13.5243 9.55058 13.5243C9.54587 13.5196 9.54115 13.5149 9.54115 13.5101C9.53879 13.5077 9.53762 13.5054 9.53644 13.503C9.53526 13.5006 9.53408 13.4982 9.53172 13.4959C9.527 13.4888 9.52347 13.4816 9.51993 13.4745C9.51639 13.4674 9.51286 13.4603 9.50814 13.4532V13.4484C9.50814 13.4461 9.50696 13.4437 9.50578 13.4413C9.5046 13.439 9.50342 13.4366 9.50342 13.4342L9.58831 13.3346L9.59303 13.3299C9.59774 13.3251 9.60245 13.3192 9.60717 13.3133C9.61188 13.3073 9.61661 13.3014 9.62133 13.2966C9.6284 13.2872 9.63665 13.2777 9.64491 13.2682C9.65316 13.2587 9.66142 13.2492 9.66849 13.2397C9.67085 13.235 9.67321 13.2314 9.67556 13.2279C9.67792 13.2243 9.68028 13.2207 9.68264 13.216C9.71093 13.1781 9.73923 13.1401 9.76753 13.0974V13.0927C9.77224 13.0879 9.77696 13.0832 9.77696 13.0737C9.7911 13.0547 9.80526 13.0357 9.81469 13.0168L9.84299 12.9599V12.9551L9.8477 12.9504C9.8477 12.948 9.84888 12.9468 9.85006 12.9456C9.85124 12.9444 9.85242 12.9432 9.85242 12.9409C9.85713 12.929 9.86185 12.9184 9.86656 12.9077C9.87127 12.897 9.876 12.8863 9.88072 12.8745V12.8697L9.88543 12.8507C9.88779 12.846 9.88897 12.8413 9.89015 12.8365C9.89133 12.8318 9.89251 12.827 9.89486 12.8223V12.8175C9.89722 12.8104 9.8984 12.8033 9.89958 12.7962C9.90076 12.7891 9.90194 12.782 9.9043 12.7749C9.9043 12.7701 9.9043 12.7606 9.89958 12.7559C9.92788 12.7037 9.96561 12.6563 10.0081 12.6088C10.0057 12.6088 10.0033 12.61 10.001 12.6112C9.99963 12.6119 9.99827 12.6126 9.99692 12.613C9.99591 12.6134 9.99491 12.6136 9.9939 12.6136C9.97291 12.6268 9.95484 12.6444 9.93644 12.6623C9.92177 12.6766 9.90689 12.6911 9.89015 12.7037C9.86185 12.7274 9.80526 12.6895 9.84299 12.661C9.86656 12.642 9.88542 12.6231 9.90428 12.6041C9.90428 12.6041 9.9043 12.5993 9.90901 12.5993C9.92781 12.5823 9.94586 12.563 9.96406 12.5436C9.9915 12.5143 10.0193 12.4846 10.0505 12.4618C10.0835 12.4381 10.1071 12.4191 10.1354 12.3954C10.1401 12.3906 10.1448 12.3859 10.1495 12.3859C10.1684 12.3622 10.1873 12.3384 10.2108 12.3147C10.2108 12.3147 10.2156 12.3147 10.2156 12.31C10.3775 12.1529 10.6051 12.0975 10.8374 12.0409C10.9839 12.0053 11.1323 11.9692 11.2673 11.9068C11.3435 11.875 11.4285 11.8875 11.5126 11.8999C11.5793 11.9097 11.6453 11.9194 11.7059 11.9068C11.786 11.9068 11.8709 11.9068 11.9511 11.9637C11.7646 12.063 11.5867 12.1766 11.4106 12.2889C11.3596 12.3214 11.3087 12.3539 11.2578 12.3859C11.2565 12.3859 11.2556 12.3859 11.2549 12.386ZM11.8442 10.4526C11.8221 10.4552 11.8078 10.4568 11.8201 10.4691C11.9003 10.5498 12.0653 10.5213 12.1785 10.4596C12.2587 10.4027 12.3436 10.4027 12.4521 10.4027C12.4804 10.4027 12.4804 10.3505 12.4804 10.3221C12.5605 10.3505 12.6171 10.3505 12.6973 10.3505C13.3529 10.213 13.9848 10.0754 14.5885 9.77182C13.9777 9.29986 13.2246 9.08963 12.487 8.88371C12.3647 8.84955 12.2427 8.81551 12.1219 8.78041C12.1485 8.78041 12.175 8.78925 12.2018 8.79815C12.2557 8.81613 12.3104 8.83434 12.3672 8.78041C12.2923 8.72071 12.209 8.7093 12.1265 8.698C12.0582 8.68864 11.9905 8.67936 11.9286 8.64284C11.935 8.64284 11.9427 8.64433 11.9511 8.64594C11.9793 8.65139 12.0152 8.65831 12.037 8.61438C11.8938 8.54234 11.7505 8.51787 11.6059 8.49316C11.5315 8.48046 11.4568 8.46769 11.3815 8.44836C11.5183 8.41989 11.6032 8.31079 11.6032 8.17323C11.6032 8.14477 11.5466 8.14477 11.5183 8.14477C11.1929 8.31079 10.9712 8.61438 10.8344 8.97015C10.9577 9.04275 11.0906 9.03433 11.2209 9.02608C11.2949 9.0214 11.368 9.01676 11.4381 9.02707C11.3763 9.08582 11.2869 9.10177 11.201 9.1171C11.169 9.12282 11.1374 9.12845 11.108 9.13618C11.0231 9.15515 10.9429 9.21682 10.9712 9.27374C10.9901 9.29746 11.0089 9.30695 11.0325 9.31169C10.9712 9.33066 10.9146 9.35913 10.8627 9.41131C10.9404 9.47242 11.0204 9.46063 11.0994 9.44899C11.1308 9.44437 11.162 9.43977 11.1929 9.43977C11.1929 9.47422 11.2155 9.48592 11.239 9.49809C11.2511 9.50435 11.2634 9.51074 11.273 9.52041C11.1363 9.57259 11.0278 9.68643 10.9995 9.76708C10.9657 9.84925 10.9033 9.90265 10.8414 9.95558C10.7997 9.99126 10.7582 10.0267 10.726 10.0707V10.156C10.6348 10.2368 10.5412 10.3089 10.4488 10.3801C10.2591 10.5262 10.0748 10.6681 9.92892 10.8723C9.95722 10.8723 9.95722 10.9008 9.95722 10.9293C9.93112 10.9686 9.894 10.9959 9.85879 11.0218C9.81764 11.052 9.77911 11.0803 9.76386 11.1237C9.76386 11.1522 9.76386 11.1807 9.79215 11.1807C9.96522 11.1235 10.115 11.0272 10.2617 10.9328C10.395 10.8471 10.5258 10.763 10.6694 10.7111C10.7867 10.6828 10.8889 10.6296 10.9886 10.5777C11.0732 10.5336 11.156 10.4905 11.2447 10.4644C11.3131 10.4502 11.3886 10.43 11.464 10.4098C11.5395 10.3897 11.6149 10.3695 11.6833 10.3553C11.6833 10.3837 11.6833 10.4122 11.7116 10.4122H11.9286C11.9152 10.4445 11.8731 10.4493 11.8442 10.4526Z" fill="#000091"/>
<path d="M40.1784 0H24.4681C24.4681 0 24.4966 0.0047498 24.6153 0.0664972C24.7436 0.132994 24.9098 0.223241 25.0095 0.275489C25.2137 0.379984 25.4085 0.512979 25.5367 0.71722C25.5937 0.797967 25.6744 0.96421 25.6222 1.07346C25.5652 1.2112 25.5367 1.43444 25.399 1.48669C25.2327 1.57218 25.0143 1.57218 24.8196 1.54369C24.7103 1.54369 24.6011 1.51519 24.4871 1.48669C24.9003 1.65293 25.2897 1.84767 25.5652 2.23241C25.5937 2.2894 25.7029 2.31315 25.8121 2.31315C25.8406 2.31315 25.8406 2.37015 25.8406 2.3939C25.7836 2.4509 25.7314 2.4794 25.7599 2.56014H25.8406C25.9784 2.50315 25.9499 2.22766 26.1446 2.31315C26.2823 2.3939 26.3393 2.58864 26.2538 2.72639C26.1446 2.83563 26.0353 2.92113 25.9214 3.00187C25.8929 3.05887 25.8929 3.13962 25.9214 3.19662C26.0021 3.30586 26.0306 3.41511 26.0591 3.5291C26.1446 3.72385 26.1683 3.94234 26.2538 4.13708C26.363 4.55031 26.4723 4.96354 26.4485 5.38153C26.4485 5.60002 26.3393 5.79476 26.42 6.018C26.477 6.23649 26.6147 6.40273 26.724 6.59747C26.8332 6.76372 26.9424 6.87296 27.0279 7.03921C27.1941 7.31469 27.4981 7.59018 27.3604 7.92267C27.2796 8.11741 26.9757 8.08891 26.781 8.19816C26.6147 8.3359 26.7525 8.55914 26.838 8.69689C26.9757 8.94388 26.6717 9.11012 26.477 9.19562C26.534 9.28111 26.6432 9.25261 26.6717 9.30486C26.7002 9.44261 26.838 9.52335 26.7525 9.66585C26.6432 9.83209 26.3108 9.91284 26.477 10.1646C26.5863 10.3593 26.515 10.5731 26.4485 10.7726C26.3678 11.0195 26.1446 11.1288 25.9499 11.1858C25.7836 11.2428 25.5889 11.2428 25.4275 11.2143C25.3705 11.1858 25.3182 11.1573 25.2612 11.1573C24.7911 11.1003 24.3209 10.9673 23.8555 10.9673C23.7177 10.9958 23.58 11.0195 23.4708 11.0765C23.3473 11.1668 23.2333 11.2665 23.1383 11.371C23.1383 11.371 23.1383 11.371 23.1336 11.3758C23.1146 11.3995 23.0909 11.4185 23.0719 11.4423C23.0624 11.4565 23.0481 11.4708 23.0386 11.485C23.0291 11.4945 23.0244 11.504 23.0149 11.5135C22.9341 11.6133 22.8629 11.7225 22.7964 11.8318C22.7917 11.8413 22.7869 11.846 22.7822 11.8508C22.7774 11.865 22.7679 11.8745 22.7584 11.8888C22.6682 12.055 22.6017 12.226 22.5494 12.397C22.3595 13.0287 22.445 13.5702 22.5779 13.7032C22.6159 13.7412 23.4898 14.0119 24.0977 14.2827C24.3826 14.4109 24.5821 14.5059 24.7483 14.6104H40.1737V0H40.1784Z" fill="#E1000F"/>
<path d="M25.4014 5.3264C25.5104 5.35486 25.6762 5.35486 25.6762 5.41179C25.6193 5.62999 25.2925 5.68691 25.1267 5.90986H25.0414C24.9609 5.96679 24.9846 6.10435 24.9041 6.10435C24.8235 6.07589 24.7383 6.10435 24.6577 6.13281C24.7667 6.24192 24.9041 6.3273 25.0698 6.29884C25.0983 6.29884 25.1504 6.35576 25.1504 6.40794C25.1504 6.40794 25.1788 6.40794 25.2072 6.37948C25.2356 6.37948 25.2641 6.37948 25.2641 6.40794V6.51704C25.1835 6.62615 25.0414 6.57397 24.9325 6.59769C25.1551 6.65461 25.373 6.65461 25.5672 6.59769C25.733 6.54076 25.5672 6.26563 25.6762 6.12807C25.6193 6.12807 25.6762 6.04268 25.6193 6.04268C25.6762 5.98576 25.7283 5.90512 25.7851 5.87666C25.8419 5.87666 25.9225 5.8482 25.9509 5.79127C25.9509 5.73435 25.8419 5.71063 25.8656 5.65371C26.0314 5.54461 26.1688 5.37858 26.1119 5.21256C26.0835 5.12717 25.8656 5.12717 25.7283 5.07499C25.5909 5.02281 25.4251 5.07499 25.2593 5.10345C25.122 5.10345 24.9846 5.18884 24.8472 5.21256C24.653 5.26948 24.4872 5.37858 24.3262 5.48768C24.5204 5.40704 24.7099 5.37858 24.9325 5.32166C25.0983 5.3264 25.2356 5.28845 25.4014 5.3264Z" fill="#808080"/>
<path d="M2.20287 33.9155V23.6883H5.32949C7.57949 23.6883 8.96748 24.8425 8.96748 26.7418C8.96748 27.9837 8.36845 28.9042 7.3165 29.3863L10.5162 33.9155H8.07624L5.3441 29.7808H4.27754V33.9155H2.20287ZM5.44637 25.4123H4.27754V28.0568H5.44637C6.323 28.0568 6.83436 27.5454 6.83436 26.7126C6.83436 25.9383 6.323 25.4123 5.44637 25.4123ZM15.9504 22.8116H14.0657L15.7167 20.8392H17.8498L15.9504 22.8116ZM12.0495 33.9155V23.6883H18.0105V25.4123H14.1241V27.8376H17.4261V29.5616H14.1241V32.1915H18.0105V33.9155H12.0495ZM20.6405 33.9155V23.6883H24.0155C26.2655 23.6883 27.6389 24.8425 27.6389 26.7418C27.6389 28.6266 26.2655 29.7808 24.0155 29.7808H22.7152V33.9155H20.6405ZM24.1032 25.4123H22.7152V28.0568H24.1032C24.9798 28.0568 25.5058 27.5454 25.5058 26.7126C25.5058 25.9383 24.9798 25.4123 24.1032 25.4123ZM35.6053 30.0876V23.6883H37.68V29.9123C37.68 32.6006 36.1021 34.2077 33.5306 34.2077C30.9738 34.2077 29.3959 32.6006 29.3959 29.9123V23.6883H31.4706V30.0876C31.4706 31.461 32.2449 32.2646 33.5452 32.2646C34.8163 32.2646 35.6053 31.461 35.6053 30.0876ZM40.4764 33.9155V23.6883H43.4861C45.6192 23.6883 46.9196 24.7402 46.9196 26.4642C46.9196 27.297 46.5397 28.0129 45.8238 28.4805C46.905 28.9626 47.504 29.8392 47.504 30.9058C47.504 32.7759 46.0576 33.9155 43.7053 33.9155H40.4764ZM43.53 25.4123H42.5511V27.7207H43.53C44.3189 27.7207 44.7864 27.297 44.7864 26.5519C44.7864 25.836 44.3189 25.4123 43.53 25.4123ZM43.8222 29.4447H42.5511V32.1915H43.8222C44.7864 32.1915 45.3709 31.6801 45.3709 30.8181C45.3709 29.9415 44.7864 29.4447 43.8222 29.4447ZM49.8521 33.9155V23.6883H51.9268V32.0308H55.8132V33.9155H49.8521ZM57.8582 33.9155V23.6883H59.9329V33.9155H57.8582ZM71.5869 33.6525C72.3759 34.3684 73.0772 34.6314 73.7347 34.6314C73.9538 34.6314 74.246 34.6022 74.4652 34.5146V36.2678C74.1291 36.3993 73.8369 36.4577 73.384 36.4577C72.2444 36.4577 71.1924 35.9902 70.1843 35.1136L68.9717 34.0324C68.5334 34.1493 68.0658 34.2077 67.5691 34.2077C64.3402 34.2077 62.134 31.724 62.134 28.8019C62.134 25.8798 64.3402 23.396 67.5691 23.396C70.7834 23.396 72.9895 25.8798 72.9895 28.8019C72.9895 30.5113 72.2298 32.0746 70.9733 33.0681L71.5869 33.6525ZM67.5691 32.2646C69.483 32.2646 70.8564 30.7597 70.8564 28.8019C70.8564 26.8441 69.483 25.3392 67.5691 25.3392C65.6405 25.3392 64.2671 26.8441 64.2671 28.8019C64.2671 30.7597 65.6405 32.2646 67.5691 32.2646ZM81.2285 30.0876V23.6883H83.3032V29.9123C83.3032 32.6006 81.7253 34.2077 79.1539 34.2077C76.597 34.2077 75.0191 32.6006 75.0191 29.9123V23.6883H77.0938V30.0876C77.0938 31.461 77.8681 32.2646 79.1685 32.2646C80.4396 32.2646 81.2285 31.461 81.2285 30.0876ZM86.0996 33.9155V23.6883H92.0606V25.4123H88.1743V27.8376H91.4762V29.5616H88.1743V32.1915H92.0606V33.9155H86.0996ZM2.20287 47.9155V37.6883H8.16391V39.4123H4.27754V41.8376H7.57949V43.5616H4.27754V47.9155H2.20287ZM10.2089 47.9155V37.6883H13.3355C15.5855 37.6883 16.9735 38.8425 16.9735 40.7418C16.9735 41.9837 16.3745 42.9042 15.3225 43.3863L18.5222 47.9155H16.0823L13.3501 43.7808H12.2836V47.9155H10.2089ZM13.4524 39.4123H12.2836V42.0568H13.4524C14.329 42.0568 14.8404 41.5454 14.8404 40.7126C14.8404 39.9383 14.329 39.4123 13.4524 39.4123ZM19.2121 47.9155L23.0839 37.6883H25.8014L29.6731 47.9155H27.467L26.4881 45.2564H22.3972L21.4183 47.9155H19.2121ZM23.04 43.4886H25.8452L24.4426 39.646L23.04 43.4886ZM31.4716 47.9155V37.6883H34.1307L38.7037 45.0811V37.6883H40.7784V47.9155H38.1193L33.5463 40.5227V47.9155H31.4716ZM48.4163 46.2646C49.5852 46.2646 50.5056 45.6947 51.09 44.862L52.7264 46.1184C51.9374 47.1996 50.7102 47.9594 49.2199 48.1493L47.9488 50.2678H46.1079L47.3936 48.1201C44.7345 47.6525 42.9813 45.4025 42.9813 42.8019C42.9813 39.8798 45.1874 37.396 48.4163 37.396C50.2719 37.396 51.7913 38.2288 52.7264 39.4707L51.09 40.7418C50.5056 39.909 49.5852 39.3392 48.4163 39.3392C46.4878 39.3392 45.1144 40.8441 45.1144 42.8019C45.1144 44.7597 46.4878 46.2646 48.4163 46.2646ZM53.389 47.9155L57.2608 37.6883H59.9783L63.85 47.9155H61.6439L60.665 45.2564H56.5741L55.5952 47.9155H53.389ZM57.2169 43.4886H60.0221L58.6195 39.646L57.2169 43.4886ZM65.6485 47.9155V37.6883H67.7232V47.9155H65.6485ZM69.8805 46.4983L71.3853 45.1103C71.999 45.8993 72.8172 46.3668 73.65 46.3668C74.4681 46.3668 74.9649 45.9285 74.9649 45.198C74.9649 43.3133 70.3188 43.8246 70.3188 40.362C70.3188 38.7402 71.6629 37.396 73.6207 37.396C75.1548 37.396 76.3237 38.0827 77.2003 39.1201L75.6808 40.4934C75.0818 39.7191 74.4097 39.2077 73.6353 39.2077C72.9048 39.2077 72.4227 39.6753 72.4227 40.2889C72.4227 42.1444 77.0688 41.6184 77.0688 45.1249C77.0396 47.0535 75.5493 48.2077 73.6646 48.2077C71.9405 48.2077 70.7863 47.5795 69.8805 46.4983ZM79.4633 47.9155V37.6883H85.4243V39.4123H81.538V41.8376H84.8399V43.5616H81.538V46.1915H85.4243V47.9155H79.4633Z" fill="black"/>
<path fill-rule="evenodd" clip-rule="evenodd" d="M38.6607 75.1436L37.3017 76.3854H36.951L37.7547 74.9683H38.6607V75.1436ZM37.6817 79.9497H37.3894C37.0241 80.3879 36.6149 80.7386 36.2204 80.7386C35.8113 80.7386 35.6067 80.4902 35.6067 79.9497C35.6067 79.7305 35.6359 79.4968 35.6797 79.2922L38.0616 78.5033C38.5292 77.393 37.9739 76.9109 37.3163 76.9109C36.1912 76.9109 34.9053 78.8832 34.9053 80.461C34.9053 81.2061 35.256 81.6151 35.8113 81.6151C36.4542 81.6005 37.1264 80.9723 37.6817 79.9497ZM36.8643 77.5541C37.1857 77.5541 37.4634 77.8024 37.3172 78.3722L35.8414 78.7667C36.0752 78.0654 36.5136 77.5541 36.8643 77.5541ZM32.2182 77.5829H33.0072L31.7506 81.0308C31.6337 81.323 31.7944 81.6152 32.1013 81.6152C32.9926 81.6152 34.0593 80.8555 34.4685 79.7744H34.2493C33.9278 80.2273 33.2264 80.724 32.7004 80.8116L33.8548 77.5829H35.0384L35.1845 77.0862H34.0301L34.4685 75.8444H34.0155L33.1972 77.0862L32.2182 77.2177V77.5829ZM31.1214 76.9263C31.2822 76.9263 31.5013 77.1016 31.3991 77.423L29.9816 80.8563C30.347 80.7979 30.7269 80.4472 30.9461 80.1258H31.1799C30.8438 80.9878 30.0839 81.616 29.4264 81.616C29.2656 81.616 29.0318 81.4407 29.1487 81.1193L30.4639 77.686C30.0985 77.7445 29.7186 78.0951 29.4994 78.4165H29.2802C29.6163 77.5399 30.4346 76.9263 31.1214 76.9263ZM31.5315 76.0494C31.8238 76.0494 32.0722 75.8156 32.0722 75.5088C32.0722 75.2166 31.8238 74.9683 31.5315 74.9683C31.2247 74.9683 30.9909 75.2166 30.9909 75.5088C30.9909 75.801 31.2393 76.0494 31.5315 76.0494ZM25.1457 78.8986C25.4671 78.1974 25.3503 77.8759 25.1457 77.8759C24.9703 77.8759 24.7657 78.0659 24.5612 78.4165H24.342C24.6781 77.6714 25.1164 76.9263 25.5987 76.9263C26.0078 76.9263 26.1539 77.3354 26.1539 77.7883V78.4311C26.2197 78.3546 26.2837 78.2795 26.3463 78.2061L26.3474 78.2048L26.3484 78.2037C26.9657 77.4793 27.437 76.9263 27.9805 76.9263C28.4043 76.9263 28.6235 77.1893 28.6235 77.5838C28.6235 77.8175 28.5504 78.1097 28.3897 78.4165L27.1768 80.8563C27.5421 80.7979 27.9221 80.4472 28.1412 80.1258H28.3604C28.0243 81.0024 27.206 81.616 26.5193 81.616C26.2124 81.616 26.037 81.2946 26.1685 81.0316L27.5714 78.3288C27.7321 78.022 27.7613 77.8175 27.5129 77.8175C27.1768 77.8175 26.3877 78.3727 25.964 78.884L25.0434 81.3092C24.9411 81.5576 24.8388 81.616 24.605 81.616C24.2251 81.616 24.0351 81.3676 24.2105 80.9732L25.1457 78.8986ZM24.1948 77.9628C24.3555 77.4076 24.2678 76.9109 23.8441 76.9109C23.3156 76.9109 23.1501 77.2598 22.638 78.3398L22.602 78.4157V77.7728C22.602 77.3199 22.4559 76.9109 22.0467 76.9109C21.5645 76.9109 21.1262 77.656 20.7901 78.401H21.0093C21.2431 78.065 21.4622 77.8605 21.6376 77.8605C21.8422 77.8605 21.9591 78.1819 21.6376 78.8832L20.7024 80.9577C20.527 81.3522 20.717 81.6005 21.0969 81.6005C21.3307 81.6005 21.433 81.5421 21.5353 81.2937L22.4559 78.8685C22.7189 78.5471 22.9527 78.2696 23.245 77.9628H24.1948ZM19.5776 78.3722C19.7237 77.8024 19.4461 77.5541 19.1246 77.5541C18.7739 77.5541 18.3355 78.0654 18.1017 78.7667L19.5776 78.3722ZM19.942 79.9497H19.6497C19.2844 80.3879 18.8753 80.7386 18.4807 80.7386C18.0716 80.7386 17.867 80.4902 17.867 79.9497C17.867 79.7305 17.8962 79.4968 17.9401 79.2922L20.3219 78.5033C20.7895 77.393 20.2342 76.9109 19.5767 76.9109C18.4515 76.9109 17.1656 78.8832 17.1656 80.461C17.1656 81.2061 17.5163 81.6151 18.0716 81.6151C18.7145 81.6005 19.3867 80.9723 19.942 79.9497ZM15.2676 77.5829H14.4785V77.2177L15.4575 77.0862L16.2758 75.8444H16.7288L16.2904 77.0862H17.4448L17.2987 77.5829H16.1151L14.9607 80.8116C15.4867 80.724 16.1881 80.2273 16.5096 79.7744H16.7288C16.3197 80.8555 15.2529 81.6152 14.3616 81.6152C14.0547 81.6152 13.894 81.323 14.0109 81.0308L15.2676 77.5829ZM10.3 80.2568C10.3 79.1903 11.4837 77.7586 12.1412 77.7586C12.2873 77.7586 12.4335 77.7732 12.5504 77.817L11.8636 79.6578C11.469 80.1399 10.8553 80.7243 10.5631 80.7243C10.4023 80.7243 10.3 80.5782 10.3 80.2568ZM13.559 76.6921L13.9243 76.7213L12.653 79.6432C12.3462 80.3445 12.4777 80.6659 12.653 80.6659C12.8284 80.6659 13.0476 80.4614 13.2814 80.1253H13.5005C13.1645 80.8704 12.7261 81.6155 12.2439 81.6155C11.8347 81.6155 11.5863 81.1772 11.6594 80.3883L11.6886 80.1107L11.609 80.2219C11.0856 80.9535 10.6119 81.6155 10.1251 81.6155C9.70129 81.6155 9.48211 81.3526 9.48211 80.9581C9.48211 79.2634 11.3379 77.1012 13.0768 77.1012H13.1498L13.559 76.6921ZM10.2118 77.9628C10.3726 77.4076 10.2849 76.9109 9.86112 76.9109C9.33264 76.9109 9.16715 77.2598 8.65502 78.3398L8.61906 78.4157V77.7728C8.61906 77.3199 8.47293 76.9109 8.06378 76.9109C7.58157 76.9109 7.14319 77.656 6.80711 78.401H7.02629C7.26009 78.065 7.47928 77.8605 7.64002 77.8605C7.84459 77.8605 7.96149 78.1819 7.64002 78.8832L6.70482 80.9723C6.52947 81.3668 6.71943 81.6151 7.09936 81.6151C7.33316 81.6151 7.43544 81.5567 7.53773 81.3083L8.45832 78.8832C8.72134 78.5617 8.95514 78.2842 9.24739 77.9774H10.2118V77.9628ZM4.19039 81.176L4.10271 81.4389H0.697998L0.785673 81.1614C1.83777 80.9714 2.01312 80.8838 2.4515 79.7004L3.40131 77.1583C3.82507 75.975 3.7374 75.8873 2.81681 75.6974L2.90449 75.4344H7.33208L7.06905 76.8515H6.74758C6.74758 76.0042 6.6599 75.785 5.85621 75.785H5.65164C4.86256 75.785 4.76027 75.9019 4.54109 76.5155L3.91275 78.2248H4.83334C5.44706 78.2248 5.68086 77.845 5.9585 77.3483H6.27998L5.52013 79.4228H5.19865C5.27171 78.7946 5.27171 78.5462 4.70183 78.5462H3.78124L3.35747 79.715C2.8994 80.9315 3.0303 80.9563 4.12108 81.1628C4.14377 81.1671 4.16687 81.1715 4.19039 81.176Z" fill="black"/>
<path fill-rule="evenodd" clip-rule="evenodd" d="M7.08367 63.9664L5.72466 64.9458V64.9604H5.37395L6.17766 63.791H7.08367V63.9664ZM16.5834 70.822L18.7607 65.0334L18.6877 64.9457L17.1825 65.1211V65.2965L17.4748 65.5158C17.7243 65.7099 17.6582 65.8909 17.4512 66.458L17.4163 66.5536L15.7505 70.9974C15.6189 71.2605 15.7943 71.5821 16.1012 71.5821C16.788 71.5821 17.5186 70.9535 17.8547 70.0911H17.6355C17.4017 70.4127 16.9341 70.7635 16.5834 70.822ZM26.563 66.3636L27.922 65.1211V64.9457H27.016L26.2123 66.3636H26.563ZM26.6497 69.9157H26.942C26.4013 70.9535 25.7291 71.5821 25.0862 71.5821C24.5309 71.5821 24.1802 71.1728 24.1802 70.4273C24.1802 68.8486 25.4661 66.8752 26.5913 66.8752C27.2343 66.8752 27.8042 67.3576 27.3366 68.4685L24.94 69.2579C24.8962 69.4625 24.867 69.6964 24.867 69.9157C24.867 70.4565 25.0715 70.705 25.4807 70.705C25.8753 70.705 26.2844 70.3542 26.6497 69.9157ZM26.576 68.337C26.7221 67.7815 26.4445 67.533 26.123 67.533C25.7869 67.533 25.3485 68.0447 25.1001 68.7317L26.576 68.337ZM22.2797 67.5619H21.4906V67.1965L22.4697 67.0649L23.288 65.8224H23.741L23.3027 67.0649H24.4571L24.3109 67.5619H23.1273L21.9729 70.7924C22.4989 70.7047 23.2004 70.2077 23.5218 69.7546H23.741C23.3319 70.8363 22.2651 71.5964 21.3737 71.5964C21.0669 71.5964 20.9061 71.304 21.023 71.0117L22.2797 67.5619ZM20.6722 67.3865C20.7599 67.0649 20.5553 66.8895 20.38 66.8895C19.6932 66.8895 18.8748 67.518 18.5387 68.3805H18.7579C18.9771 68.0589 19.3571 67.7081 19.7224 67.6496L18.4072 71.0847C18.2903 71.4063 18.5241 71.5817 18.6849 71.5817C19.3424 71.5817 20.1023 70.9532 20.4384 70.0907H20.2192C20 70.4123 19.6201 70.7631 19.2548 70.8216L20.6722 67.3865ZM21.3455 65.4865C21.3455 65.7789 21.0971 66.0274 20.8048 66.0274C20.5126 66.0274 20.2641 65.7789 20.2641 65.4865C20.2641 65.1942 20.498 64.9457 20.8048 64.9457C21.0971 64.9457 21.3455 65.1942 21.3455 65.4865ZM13.9675 67.7376C13.3099 67.7376 12.1263 69.1702 12.1263 70.2373C12.1263 70.5588 12.2285 70.705 12.4039 70.705C12.6816 70.705 13.2953 70.1203 13.6898 69.6379L14.3767 67.7961C14.2451 67.7523 14.1136 67.7376 13.9675 67.7376ZM15.7506 66.6998L15.3853 66.6706L14.9762 67.0799H14.9031C13.1641 67.0799 11.3083 69.2433 11.3083 70.9389C11.3083 71.3336 11.5275 71.5967 11.9513 71.5967C12.4382 71.5967 12.9118 70.9343 13.4353 70.2023L13.5149 70.0911L13.4856 70.3688C13.4126 71.1582 13.661 71.5967 14.0701 71.5967C14.5524 71.5967 14.9908 70.8512 15.3269 70.1057H15.1077C14.8739 70.4419 14.6547 70.6466 14.4793 70.6466C14.304 70.6466 14.1724 70.325 14.4793 69.6233L15.7506 66.6998ZM8.38489 71.4361C7.75653 71.6846 7.31814 71.9769 7.31814 72.4301C7.31814 72.854 7.71269 73.0294 8.53102 73.0294C9.62699 73.0294 10.2261 72.7078 10.2261 72.2839C10.2261 72.0939 9.9777 72.0061 9.32011 71.7869C8.89634 71.6553 8.58947 71.5384 8.38489 71.4361ZM9.11458 69.638C8.82232 69.638 8.72003 69.3895 8.72003 69.1264C8.72003 68.2786 9.12919 67.2261 9.78677 67.2261C10.079 67.2261 10.1813 67.4746 10.1813 67.7377C10.1667 68.6002 9.75755 69.638 9.11458 69.638ZM9.67134 71.012C10.4751 71.2605 10.9719 71.4505 10.9719 72.006C10.9719 72.7222 9.65673 73.5701 8.06391 73.5554C7.1433 73.5554 6.3542 73.3069 6.3542 72.7076C6.3542 72.1375 6.88027 71.6698 8.16621 71.2897C7.99085 71.1728 7.91779 71.0266 7.91779 70.822C7.91779 70.4711 8.23927 70.1934 8.79456 69.9303C8.25388 69.8572 7.90317 69.4479 7.90317 68.8486C7.90317 67.9277 8.66305 66.8752 9.86131 66.8752C10.1097 66.8752 10.3289 66.9337 10.5043 67.0506H11.8194L11.6733 67.5476H10.8988C10.9427 67.6792 10.9719 67.8253 10.9719 67.9861C10.9719 68.8778 10.2559 69.901 9.11605 69.9595C8.82379 70.1203 8.67766 70.3396 8.67766 70.515C8.67766 70.7214 8.91669 70.7912 9.44499 70.9454C9.51528 70.9659 9.59069 70.9879 9.67134 71.012ZM5.03804 68.5125C5.60795 68.5125 5.62256 68.761 5.53488 69.3895H5.85637L6.61624 67.3138H6.29476C6.01711 67.8108 5.7833 68.1909 5.16956 68.1909H3.91285L4.52659 66.4806C4.74579 65.8667 4.84808 65.7498 5.63718 65.7498H6.19247C6.99618 65.7498 7.08386 65.969 7.08386 66.8168H7.40534L7.66838 65.3989H2.90455L2.81688 65.662C3.73749 65.8521 3.82517 65.9398 3.40139 67.1238L2.45155 69.6819C2.01316 70.8659 1.83781 70.9536 0.771063 71.1436L0.697998 71.4214H5.98789L6.93773 69.9158H6.5724C5.95866 70.5151 5.34492 71.0706 4.14665 71.0706C2.82866 71.0706 2.85213 71.006 3.24759 69.9193C3.27305 69.8494 3.30005 69.7752 3.32833 69.6965L3.76672 68.5271H5.03804V68.5125Z" fill="black"/>
<path fill-rule="evenodd" clip-rule="evenodd" d="M9.40292 55.9962C9.69507 55.9962 9.9434 55.748 9.9434 55.4559C9.9434 55.1638 9.69507 54.9155 9.40292 54.9155C9.09616 54.9155 8.86244 55.1638 8.86244 55.4559C8.86244 55.7626 9.09616 55.9962 9.40292 55.9962ZM13.7283 57.8359C13.7283 57.1349 13.553 56.8721 13.0564 56.8721C12.4429 56.8721 11.8732 57.5292 11.3035 58.3179L12.5305 55.032L12.4575 54.9297L10.9529 55.105V55.2802L11.245 55.4993C11.4994 55.6971 11.4257 55.8949 11.209 56.4761L11.1866 56.5362L9.85732 60.0119C9.74045 60.304 9.60899 60.6545 9.60899 60.7421C9.60899 61.151 10.1641 61.5453 10.6753 61.5453C11.8147 61.5599 13.7283 59.457 13.7283 57.8359ZM26.3931 56.3463L27.7516 55.105V54.9297H26.8459L26.0425 56.3463H26.3931ZM26.481 59.8951H26.7732C26.2181 60.932 25.5462 61.5599 24.9034 61.5453C24.3483 61.5453 23.9978 61.151 23.9978 60.4062C23.9978 58.829 25.2832 56.8575 26.408 56.8575C27.0507 56.8575 27.6204 57.3394 27.153 58.4493L24.772 59.2379C24.7281 59.4424 24.6989 59.676 24.6989 59.8951C24.6989 60.4354 24.9034 60.6837 25.3124 60.6837C25.7068 60.6837 26.1159 60.3332 26.481 59.8951ZM26.4066 58.3179C26.5527 57.763 26.2751 57.5147 25.9538 57.5147C25.6032 57.5147 25.165 58.0258 24.9312 58.7122L26.4066 58.3179ZM22.0957 57.5447H21.3069V57.1796L22.2856 57.0482L23.1037 55.8069H23.5565L23.1183 57.0482H24.2723L24.1262 57.5447H22.943L21.789 60.7722C22.3148 60.6846 23.016 60.1881 23.3374 59.7353H23.5565C23.1475 60.816 22.0811 61.5754 21.1901 61.5754C20.8833 61.5754 20.7226 61.2834 20.8395 60.9913L22.0957 57.5447ZM20.9007 57.9244C21.0614 57.3695 20.9737 56.8729 20.5501 56.8729C20.0218 56.8729 19.8564 57.2218 19.3444 58.3013L19.3085 58.3771V57.7346C19.3085 57.2818 19.1624 56.8729 18.7534 56.8729C18.2713 56.8729 17.8331 57.6177 17.4971 58.3625H17.7162C17.95 58.0266 18.1691 57.8222 18.3298 57.8222C18.5343 57.8222 18.6511 58.1435 18.3298 58.8445L17.3949 60.9182C17.2196 61.3125 17.4095 61.5608 17.7893 61.5608C18.023 61.5608 18.1252 61.5024 18.2275 61.2541L19.1478 58.8299C19.4107 58.5086 19.6444 58.2311 19.9366 57.9244H20.9007ZM16.2704 58.3179C16.4165 57.763 16.139 57.5147 15.8176 57.5147C15.467 57.5147 15.0434 58.0258 14.7951 58.7122L16.2704 58.3179ZM16.6347 59.8951H16.3426C15.9774 60.3332 15.5684 60.6837 15.174 60.6837C14.7649 60.6837 14.5604 60.4354 14.5604 59.8951C14.5604 59.676 14.5896 59.4424 14.6335 59.2379L17.0145 58.4493C17.4819 57.3394 16.9269 56.8575 16.2695 56.8575C15.1447 56.8575 13.8593 58.829 13.8593 60.4062C13.8593 61.151 14.2099 61.5453 14.7649 61.5453C15.4077 61.5599 16.0796 60.932 16.6347 59.8951ZM10.5006 60.4506C10.5006 60.6404 10.8366 60.8595 11.0703 60.8595C12.0198 60.8595 12.9109 59.1508 12.8963 58.2016C12.8963 57.8803 12.7356 57.7488 12.5165 57.7488C12.1659 57.7488 11.5232 58.2746 11.1141 58.7711L10.7343 59.7934C10.6029 60.1293 10.5006 60.3921 10.5006 60.4506ZM8.96709 56.8729C9.14238 56.8729 9.34689 57.0482 9.25924 57.3695L7.85692 60.8014C8.22211 60.743 8.6019 60.3925 8.82102 60.0712H9.04013C8.70415 60.9328 7.94456 61.5608 7.28722 61.5608C7.11193 61.5608 6.87821 61.3855 6.99507 61.0643L8.30975 57.6323C7.94456 57.6908 7.56477 58.0413 7.34565 58.3625H7.12654C7.46251 57.5009 8.28054 56.8729 8.96709 56.8729ZM2.90374 55.3541H6.04436L5.95672 55.6315C4.89037 55.8214 4.71508 55.909 4.27685 57.0919L3.34197 59.6622C2.88913 60.889 3.00599 61.035 3.80941 61.035C4.80202 61.035 5.45289 60.3137 6.02121 59.6839C6.06343 59.6371 6.1052 59.5908 6.14662 59.5454H6.5118L5.47467 61.3855H0.697998L0.785643 61.1226C1.83739 60.9328 2.01268 60.8451 2.4509 59.6622L3.4004 57.0773C3.82401 55.8944 3.73637 55.8068 2.81609 55.6169L2.90374 55.3541Z" fill="black"/>
</svg>
